<?xml version="1.0" encoding="UTF-8" standalone="no"?>
<!-- Created with Inkscape (http://www.inkscape.org/) -->

<svg
   width="100mm"
   height="100mm"
   viewBox="0 0 100 100"
   version="1.1"
   id="svg1"
   inkscape:version="1.4.1-rc (06eac75fbf, 2025-03-29)"
   sodipodi:docname="ka-hiragana.svg"
   xmlns:inkscape="http://www.inkscape.org/namespaces/inkscape"
   xmlns:sodipodi="http://sodipodi.sourceforge.net/DTD/sodipodi-0.dtd"
   xmlns="http://www.w3.org/2000/svg"
   xmlns:svg="http://www.w3.org/2000/svg">
  <sodipodi:namedview
     id="namedview1"
     pagecolor="#ffffff"
     bordercolor="#000000"
     borderopacity="0.25"
     inkscape:showpageshadow="2"
     inkscape:pageopacity="0.0"
     inkscape:pagecheckerboard="0"
     inkscape:deskcolor="#d1d1d1"
     inkscape:document-units="mm"
     inkscape:zoom="1.0116647"
     inkscape:cx="194.23432"
     inkscape:cy="196.21126"
     inkscape:window-width="1920"
     inkscape:window-height="1011"
     inkscape:window-x="0"
     inkscape:window-y="32"
     inkscape:window-maximized="1"
     inkscape:current-layer="layer1" />
  <defs
     id="defs1" />
  <g
     inkscape:label="Layer 1"
     inkscape:groupmode="layer"
     id="layer1">
    <text
       xml:space="preserve"
       style="font-size:98.7732px;font-family:Propysy;-inkscape-font-specification:'Propysy, Normal';text-align:start;writing-mode:lr-tb;direction:ltr;text-anchor:start;fill:#000000;stroke-width:0.264583"
       x="34.027397"
       y="140.17809"
       id="text1"><tspan
         sodipodi:role="line"
         id="tspan1"
         style="stroke-width:0.264583"
         x="34.027397"
         y="140.17809" /></text>
    <path
       d="m 76.717577,19.994169 -7.210443,3.259516 c 7.012897,8.198175 14.717207,25.582259 17.581629,35.755898 l 7.70431,-3.654608 C 91.434784,46.169067 82.841516,27.994798 76.717577,19.994169 Z M 7.1812438,31.155541 7.9714294,39.748809 C 10.539533,39.353716 14.589234,38.85985 16.861018,38.563531 L 29.405214,37.180706 C 26.046925,50.416315 18.638935,72.936605 8.5640686,86.468533 l 8.0994024,3.160743 C 27.034657,72.936605 33.751235,50.613861 37.405843,36.39052 c 4.346021,-0.395092 8.296949,-0.691412 10.667506,-0.691412 6.222712,0 10.469959,1.679144 10.469959,10.766279 0,10.667506 -1.580371,23.508022 -4.741113,30.224599 -1.975464,4.247248 -4.93866,5.037434 -8.593269,5.037434 -2.765649,0 -8.000629,-0.691413 -12.149104,-1.975464 l 1.284052,8.198175 c 3.160743,0.790186 7.901856,1.481598 11.655238,1.481598 6.420258,0 11.260145,-1.679144 14.420887,-8.296949 4.148475,-8.198175 5.728846,-23.903114 5.728846,-35.657125 0,-13.334382 -7.210444,-16.692671 -16.001259,-16.692671 -2.370557,0 -6.519031,0.29632 -11.161371,0.691412 l 2.568103,-14.124567 c 0.395093,-1.876691 0.790185,-4.049702 1.185278,-5.8276193 l -9.185908,-0.987732 c 0,6.7165773 -0.987732,14.4208873 -2.568103,21.5325583 -5.926392,0.493866 -11.754011,0.987732 -15.013526,1.086505 -3.160743,0.09877 -5.728846,0.197546 -8.7908152,0 z"
       id="text2"
       style="font-size:98.7732px;font-family:Propysy;-inkscape-font-specification:'Propysy, Normal';fill:#b0b0b0;stroke-width:0.264583"
       aria-label="ã‹" />
  </g>
</svg>
