<?xml version="1.0" encoding="UTF-8" standalone="no"?>
<!-- Created with Inkscape (http://www.inkscape.org/) -->

<svg
   width="100mm"
   height="100mm"
   viewBox="0 0 100 100"
   version="1.1"
   id="svg1"
   sodipodi:docname="letter-e-text-variant-svgrepo-com.svg"
   inkscape:version="1.4.1-rc (06eac75fbf, 2025-03-29)"
   xmlns:inkscape="http://www.inkscape.org/namespaces/inkscape"
   xmlns:sodipodi="http://sodipodi.sourceforge.net/DTD/sodipodi-0.dtd"
   xmlns="http://www.w3.org/2000/svg"
   xmlns:svg="http://www.w3.org/2000/svg">
  <sodipodi:namedview
     id="namedview1"
     pagecolor="#ffffff"
     bordercolor="#000000"
     borderopacity="0.25"
     inkscape:showpageshadow="2"
     inkscape:pageopacity="0.0"
     inkscape:pagecheckerboard="0"
     inkscape:deskcolor="#d1d1d1"
     inkscape:document-units="mm"
     inkscape:zoom="0.71891835"
     inkscape:cx="273.32728"
     inkscape:cy="221.86108"
     inkscape:window-width="1920"
     inkscape:window-height="1011"
     inkscape:window-x="0"
     inkscape:window-y="32"
     inkscape:window-maximized="1"
     inkscape:current-layer="layer1" />
  <defs
     id="defs1">
    <rect
       x="285.1506"
       y="415.90259"
       width="193.34602"
       height="172.48134"
       id="rect1" />
  </defs>
  <g
     inkscape:label="Шар 1"
     inkscape:groupmode="layer"
     id="layer1">
    <path
       d="m 294.26503,421.63707 c -1.12623,1.07385 -2.90725,1.85959 -4.53113,1.85959 -1.75483,0 -3.30013,-0.94289 -3.45727,-3.45728 -0.13096,-2.25246 0.99527,-4.58351 3.14298,-5.5264 1.88578,-0.75956 2.462,-0.47145 3.53585,-0.49764 0.13095,0 0.20953,-0.20953 0.10476,-0.3143 -0.41906,-0.49764 -1.72864,-0.96908 -1.96436,-2.90725 -0.13096,-1.04766 0.15715,-2.40962 0.81194,-3.24775 0.68098,-0.86432 1.85959,-1.62387 2.98583,-1.46672 0.65479,0.0786 1.20481,0.47144 1.5453,1.07385 0.36668,0.70717 0.31429,1.25719 0.23572,1.72864 0,0.23572 0.28811,0.20953 0.34049,0.13095 0.28811,-0.49764 0.10477,-2.20008 -0.99528,-2.93344 -0.41906,-0.3143 -0.9167,-0.44526 -1.38815,-0.44526 -1.28338,0 -2.59296,0.9167 -3.22155,1.91198 -0.68098,0.99528 -0.9167,2.22628 -0.73336,3.40489 0.10476,0.70717 0.41906,1.46673 0.81193,1.88579 0.60241,0.6286 0.89051,0.73336 0.75956,0.73336 -0.13096,0 -0.68098,-0.10476 -1.78103,0.15715 -2.90725,0.65479 -4.79304,3.22156 -4.66208,6.15501 0.18334,2.48819 1.57149,4.2954 4.3216,4.03349 2.33104,-0.15715 4.05968,-1.38815 5.57878,-3.11679 0.18335,-0.20953 -0.13095,-0.49764 -0.34048,-0.26192 -0.26192,0.26192 -1.10005,1.10005 -1.10005,1.10005 z"
       id="text1"
       style="font-size:10.4766px;font-family:Propysy;-inkscape-font-specification:'Propysy, Normal';white-space:pre;fill:#bbbbbb"
       transform="matrix(6.6077006,0,0,4.9863314,-1877.4462,-2018.4517)"
       aria-label="Е" />
  </g>
</svg>
