<?xml version="1.0" encoding="UTF-8" standalone="no"?>
<!-- Created with Inkscape (http://www.inkscape.org/) -->

<svg
   width="100mm"
   height="100mm"
   viewBox="0 0 100 100"
   version="1.1"
   id="svg1"
   sodipodi:docname="letter-b-text-variant-svgrepo-com.svg"
   inkscape:version="1.4.1-rc (06eac75fbf, 2025-03-29)"
   xmlns:inkscape="http://www.inkscape.org/namespaces/inkscape"
   xmlns:sodipodi="http://sodipodi.sourceforge.net/DTD/sodipodi-0.dtd"
   xmlns="http://www.w3.org/2000/svg"
   xmlns:svg="http://www.w3.org/2000/svg">
  <sodipodi:namedview
     id="namedview1"
     pagecolor="#ffffff"
     bordercolor="#000000"
     borderopacity="0.25"
     inkscape:showpageshadow="2"
     inkscape:pageopacity="0.0"
     inkscape:pagecheckerboard="0"
     inkscape:deskcolor="#d1d1d1"
     inkscape:document-units="mm"
     inkscape:zoom="0.71891835"
     inkscape:cx="273.32728"
     inkscape:cy="221.86108"
     inkscape:window-width="1920"
     inkscape:window-height="1011"
     inkscape:window-x="0"
     inkscape:window-y="32"
     inkscape:window-maximized="1"
     inkscape:current-layer="layer1" />
  <defs
     id="defs1">
    <rect
       x="285.1506"
       y="415.90259"
       width="193.34602"
       height="172.48134"
       id="rect1" />
  </defs>
  <g
     inkscape:label="Шар 1"
     inkscape:groupmode="layer"
     id="layer1">
    <path
       d="m 302.53223,407.786 c -0.2946,-1.87477 -2.41042,-2.41042 -4.33876,-2.41042 -2.49077,0 -5.11546,0.83025 -6.10641,3.29424 -0.0804,0.21426 0.16069,0.37496 0.32139,0.21426 0.40174,-0.72312 0.74991,-1.3659 1.44625,-1.87477 1.33913,-0.91061 2.54434,-1.20521 4.20486,-1.15165 0.21426,0 0.26782,0.13391 0.26782,0.24104 -0.16069,0.99096 -3.37459,7.6598 -3.99059,8.99893 -0.66956,1.44625 -1.17843,2.65146 -1.84799,4.07094 -0.45531,0.96417 -1.12487,2.22294 -1.76765,3.0532 -0.50887,0.64278 -1.82121,1.5266 -2.89251,1.5266 -0.616,0 -1.12486,-0.26782 -1.41947,-0.99095 l -0.13391,-0.32139 c -0.0268,-0.10713 -0.0536,-0.21426 -0.0804,-0.32139 -0.0268,-0.24104 -0.34817,-0.32139 -0.40174,-0.0804 -0.10713,0.56244 0.4553,1.47304 0.91061,1.76765 0.34817,0.24104 0.74991,0.34817 1.15164,0.34817 1.28556,0 2.78538,-1.01773 3.42816,-1.9819 1.33913,-1.98191 2.24973,-4.2852 3.2139,-6.4278 1.15165,-2.54434 2.3033,-5.08868 3.45495,-7.60624 0.2946,-0.64278 0.56243,-1.28556 0.88382,-1.90155 0.10713,-0.21426 0.29461,-0.29461 0.50887,-0.32139 1.12486,-0.0804 2.51755,0.66956 2.75859,1.82121 0.29461,1.90156 -1.01773,3.48172 -2.4372,4.57981 -0.99096,0.80347 -1.52661,0.72312 -2.62469,0.93738 -0.24104,0.0268 -0.32139,0.29461 -0.10713,0.40174 0.32139,0.1607 0.66956,0.1607 0.99095,0.26783 1.0713,0.2946 2.16939,1.28556 2.24973,2.41042 0.0536,0.83026 -0.0268,1.58017 -0.24104,2.35686 -0.42852,1.58017 -0.80347,2.33008 -1.92834,3.56207 -0.69634,0.7767 -2.22295,1.66052 -3.40138,1.49982 -0.50886,-0.0803 -0.96417,-0.50886 -1.01773,-1.15164 -0.0268,-0.21426 -0.0268,-0.37496 -0.0536,-0.53565 -0.0268,-0.1607 -0.32139,-0.13392 -0.34817,0.0536 -0.0268,0.21426 -0.0268,0.4553 0,0.69635 0.1607,0.99095 0.85704,1.31234 1.63373,1.31234 0.83026,0 1.79443,-0.34817 2.35686,-0.69635 2.16939,-1.25877 3.48173,-4.09772 3.48173,-6.7224 0,-1.33913 -0.69635,-2.16939 -1.63373,-2.81217 l -0.34818,-0.24104 c -0.24104,-0.16069 -0.24104,-0.10713 0.0536,-0.26782 0.56243,-0.29461 1.12486,-0.56244 1.58017,-0.99096 1.28556,-1.15164 2.46399,-2.75859 2.22294,-4.60659 z"
       id="text1"
       style="font-size:10.713px;font-family:Propysy;-inkscape-font-specification:'Propysy, Normal';white-space:pre;fill:#bbbbbb"
       transform="matrix(4.2737913,0,0,4.2069419,-1209.6456,-1695.9875)"
       aria-label="В" />
  </g>
</svg>
