<?xml version="1.0" encoding="UTF-8" standalone="no"?>
<!-- Created with Inkscape (http://www.inkscape.org/) -->

<svg
   width="100mm"
   height="100mm"
   viewBox="0 0 100 100"
   version="1.1"
   id="svg1"
   sodipodi:docname="letter-eu-text-variant-svgrepo-com.svg"
   inkscape:version="1.4.1-rc (06eac75fbf, 2025-03-29)"
   xmlns:inkscape="http://www.inkscape.org/namespaces/inkscape"
   xmlns:sodipodi="http://sodipodi.sourceforge.net/DTD/sodipodi-0.dtd"
   xmlns="http://www.w3.org/2000/svg"
   xmlns:svg="http://www.w3.org/2000/svg">
  <sodipodi:namedview
     id="namedview1"
     pagecolor="#ffffff"
     bordercolor="#000000"
     borderopacity="0.25"
     inkscape:showpageshadow="2"
     inkscape:pageopacity="0.0"
     inkscape:pagecheckerboard="0"
     inkscape:deskcolor="#d1d1d1"
     inkscape:document-units="mm"
     inkscape:zoom="0.71891835"
     inkscape:cx="273.32728"
     inkscape:cy="221.86108"
     inkscape:window-width="1920"
     inkscape:window-height="1011"
     inkscape:window-x="0"
     inkscape:window-y="32"
     inkscape:window-maximized="1"
     inkscape:current-layer="layer1" />
  <defs
     id="defs1">
    <rect
       x="285.1506"
       y="415.90259"
       width="193.34602"
       height="172.48134"
       id="rect1" />
  </defs>
  <g
     inkscape:label="Шар 1"
     inkscape:groupmode="layer"
     id="layer1">
    <path
       d="m 290.72206,410.94864 c 1.42863,-3.04775 1.02385,-4.38114 -0.11905,-4.38114 -1.00005,0 -2.57154,1.07148 -3.90493,2.9287 -0.23811,0.33335 0.0714,0.42859 0.21429,0.28573 0.23811,-0.26192 0.33335,-0.4524 1.00004,-1.16672 0.6667,-0.69051 1.90485,-1.69055 2.66679,-1.69055 0.50002,0 0.78574,0.40478 0.61907,1.5715 -0.19048,0.83337 -0.52383,1.64292 -0.88099,2.42867 -0.64288,1.38101 -1.28577,2.76203 -1.92865,4.14304 -0.0714,0.14286 -0.14287,0.28573 -0.19049,0.42859 l -0.42859,0.83337 c -0.0476,0.14286 -0.11905,0.28572 -0.19048,0.42859 -0.59527,1.28577 -1.3572,2.73821 -1.66674,4.14303 -0.19049,0.88099 -0.0476,2.33344 1.07147,2.33344 0.61908,0 1.28577,-0.33335 1.76198,-0.83337 2.00009,-2.11914 3.11919,-4.02398 4.66687,-6.47647 0.0238,-0.0476 -0.64288,1.50006 -0.66669,1.54768 -0.6667,1.45245 -1.73817,3.26205 -1.00005,4.88117 0.30954,0.57145 0.83337,0.85718 1.42864,0.85718 1.3572,0 3.02394,-1.90485 3.85731,-2.85727 0.19048,-0.2381 -0.11906,-0.4524 -0.30954,-0.2381 -0.42859,0.4524 -2.61916,3.1668 -4.00017,2.66678 -0.90481,-0.33335 -0.85718,-1.92866 -0.59527,-2.71441 0.19049,-0.57145 0.30954,-0.92861 0.54764,-1.47625 0.42859,-1.02385 0.83337,-1.88103 1.26196,-2.83346 0.9048,-1.97627 1.80961,-3.95255 2.71441,-5.92882 0.40478,-0.85718 0.80956,-1.73817 1.21433,-2.61916 0.0952,-0.16668 0.16668,-0.38097 0.16668,-0.47621 0,-0.16668 -0.2143,-0.2143 -0.30954,-0.11906 -0.16667,0.14287 -0.38097,0.71432 -0.40478,0.78575 -0.66669,1.40482 -1.3572,2.80965 -2.07152,4.16685 -1.8096,3.40491 -4.23827,7.85748 -6.59552,10.3814 -0.57145,0.59526 -1.11909,0.9048 -1.54768,0.9048 -0.59527,0 -0.95243,-0.54764 -0.80956,-1.66674 0.19048,-1.45244 1.71436,-4.42876 2.35724,-5.76215 0.71432,-1.47626 1.40482,-2.97632 2.07152,-4.47639 z"
       id="text1"
       style="font-size:9.52422px;font-family:Propysy;-inkscape-font-specification:'Propysy, Normal';white-space:pre;fill:#bbbbbb"
       transform="matrix(7.0030972,0,0,5.1783524,-1993.273,-2098.8376)"
       aria-label="И" />
  </g>
</svg>
