<?xml version="1.0" encoding="UTF-8" standalone="no"?>
<!-- Created with Inkscape (http://www.inkscape.org/) -->

<svg
   width="100mm"
   height="100mm"
   viewBox="0 0 100 100"
   version="1.1"
   id="svg1"
   inkscape:version="1.4.1-rc (06eac75fbf, 2025-03-29)"
   sodipodi:docname="letter-a-text-variant-svgrepo-com.svg"
   xmlns:inkscape="http://www.inkscape.org/namespaces/inkscape"
   xmlns:sodipodi="http://sodipodi.sourceforge.net/DTD/sodipodi-0.dtd"
   xmlns="http://www.w3.org/2000/svg"
   xmlns:svg="http://www.w3.org/2000/svg">
  <sodipodi:namedview
     id="namedview1"
     pagecolor="#ffffff"
     bordercolor="#000000"
     borderopacity="0.25"
     inkscape:showpageshadow="2"
     inkscape:pageopacity="0.0"
     inkscape:pagecheckerboard="0"
     inkscape:deskcolor="#d1d1d1"
     inkscape:document-units="mm"
     inkscape:zoom="0.71891835"
     inkscape:cx="273.32728"
     inkscape:cy="328.96643"
     inkscape:window-width="1920"
     inkscape:window-height="1011"
     inkscape:window-x="0"
     inkscape:window-y="32"
     inkscape:window-maximized="1"
     inkscape:current-layer="layer1" />
  <defs
     id="defs1">
    <rect
       x="285.1506"
       y="415.90259"
       width="193.34602"
       height="172.48134"
       id="rect1" />
  </defs>
  <g
     inkscape:label="Шар 1"
     inkscape:groupmode="layer"
     id="layer1">
    <path
       d="m 416.81672,464.88674 c -5.33332,10.99997 -12.99997,23.33328 -15.33329,35.99991 -2.33333,12.99997 3.33332,17.33329 11.3333,17.33329 7.66665,0 16.99996,-3.99999 23.66661,-8.66665 9.99997,-7.33331 26.33326,-21.99994 35.33324,-31.66658 2,-2 -2.33333,-5.66665 -4.66665,-2.99999 0,0 -26.6666,27.66659 -38.66657,33.99991 -4.33332,2.33333 -9.66664,4.66665 -13.99997,4.66665 -3.33332,0 -6.33331,-1.33333 -7.66664,-4.99998 -2.33333,-6.33332 5.99998,-22.33328 7.33331,-25.33327 4.66666,-10.33331 27.6666,-54.66653 27.6666,-54.66653 1.33333,0 29.66659,2 29.33326,-2.33333 0.99999,-4.66665 -16.99996,-2.66666 -26.6666,-3.66665 12.3333,-26.33327 24.99993,-51.99987 37.33323,-77.66647 4.33333,-8.99998 8.66665,-17.99996 12.66664,-26.99993 1,-2.33333 2.33333,-4.66666 3.33332,-6.99999 l 6.99999,-13.99996 c 0.99999,-2.33333 2.33332,-4.66665 3.33332,-6.99998 1,-2.66666 -1.66666,-4.99999 -4.33332,-4.33332 -2,0.66666 -3.33333,3.99999 -4.99999,6.33331 -21.33328,32.99992 -42.66656,65.99983 -65.99983,98.33309 -6.99998,9.99997 -14.99996,20.33328 -22.33328,30.33325 -1.33333,2 -29.66659,-4.66665 -26.66659,2.99999 1.33333,3.33333 16.33329,2.66666 21.33327,3.66666 -19.66661,24.33327 -62.6665,84.99978 -94.33309,84.99978 -6.33332,0 -11.99997,-2.33332 -17.33329,-7.99998 -11.66663,1.66667 4.66666,12.66664 8.99998,13.3333 14.3333,3.33333 28.33326,-3.66665 39.9999,-11.66663 26.6666,-19.33329 66.66649,-74.33315 69.33315,-77.9998 0.66667,-1 22.99994,1.33333 23.33328,0.66666 -4.99999,11.99997 -12.66664,24.33327 -18.33329,36.33324 z m 65.33317,-134.99965 c -5.33332,14.99996 -43.33323,89.66643 -44.99989,92.33309 -0.66666,0 -12.99996,0 -18.99995,-0.66666 13.3333,-18.66662 26.33327,-37.66657 39.33323,-56.33319 4.66666,-6.33332 24.99994,-36.33324 24.66661,-35.33324 z"
       id="text1"
       style="font-size:133.333px;font-family:Propysy;-inkscape-font-specification:'Propysy, Normal';white-space:pre;fill:#bbbbbb"
       transform="matrix(0.30188054,0,0,0.33490076,-72.97556,-87.184434)"
       aria-label="А" />
  </g>
</svg>
