<?xml version="1.0" encoding="UTF-8" standalone="no"?>
<!-- Created with Inkscape (http://www.inkscape.org/) -->

<svg
   width="100mm"
   height="100mm"
   viewBox="0 0 100 100"
   version="1.1"
   id="svg1"
   sodipodi:docname="letter-be-text-variant-svgrepo-com.svg"
   inkscape:version="1.4.1-rc (06eac75fbf, 2025-03-29)"
   xmlns:inkscape="http://www.inkscape.org/namespaces/inkscape"
   xmlns:sodipodi="http://sodipodi.sourceforge.net/DTD/sodipodi-0.dtd"
   xmlns="http://www.w3.org/2000/svg"
   xmlns:svg="http://www.w3.org/2000/svg">
  <sodipodi:namedview
     id="namedview1"
     pagecolor="#ffffff"
     bordercolor="#000000"
     borderopacity="0.25"
     inkscape:showpageshadow="2"
     inkscape:pageopacity="0.0"
     inkscape:pagecheckerboard="0"
     inkscape:deskcolor="#d1d1d1"
     inkscape:document-units="mm"
     inkscape:zoom="0.71891835"
     inkscape:cx="273.32728"
     inkscape:cy="221.86108"
     inkscape:window-width="1920"
     inkscape:window-height="1011"
     inkscape:window-x="0"
     inkscape:window-y="32"
     inkscape:window-maximized="1"
     inkscape:current-layer="layer1" />
  <defs
     id="defs1">
    <rect
       x="285.1506"
       y="415.90259"
       width="193.34602"
       height="172.48134"
       id="rect1" />
  </defs>
  <g
     inkscape:label="Шар 1"
     inkscape:groupmode="layer"
     id="layer1">
    <path
       d="m 292.44192,411.08986 c -0.66287,0 -1.33801,0 -2.00088,0 -0.67514,0 -1.39938,0.0982 -1.87812,0.62604 -0.27005,0.2946 -0.38053,0.98202 -0.0737,1.2889 0.0859,0.0614 0.20868,-0.0123 0.13503,-0.12275 -0.1964,-0.33143 -0.17185,-0.74879 0.12275,-1.06795 0.25778,-0.30688 0.83472,-0.49101 1.22753,-0.50329 0.39281,-0.0245 0.71197,-0.0123 1.10478,0 0.17185,0 0.1473,0.12275 0.0982,0.23323 l -0.20868,0.46646 c -0.57694,1.27663 -1.1416,2.57782 -1.73081,3.85445 -0.31916,0.68741 -1.17843,2.84787 -1.76765,3.26523 -0.34371,0.2455 -0.67514,0.36826 -0.95747,0.36826 -0.42964,0 -0.76107,-0.29461 -0.88382,-0.83472 -0.0245,-0.0859 -0.18413,-0.0737 -0.18413,0.0491 0.0614,0.55239 0.49101,0.95747 1.03112,0.95747 0.49102,0 1.05568,-0.25778 1.32574,-0.57694 0.58921,-0.67514 1.25208,-2.33231 1.55896,-2.9829 0.12275,-0.23323 0.2455,-0.47873 0.45418,-0.63831 0.31916,-0.24551 0.83473,-0.42964 1.25209,-0.42964 0.38053,0 0.58921,0.12276 0.73651,0.49101 0.17186,0.44192 0.0491,1.27664 -0.0859,1.7431 -0.25779,0.88382 -0.76107,1.89039 -1.71855,2.17273 -0.12275,0.0245 -0.38053,0.0491 -0.50328,0.0368 -0.40509,-0.0491 -0.51557,-0.42963 -0.55239,-0.79789 0,-0.0614 -0.0491,-0.0982 -0.0982,-0.0982 -0.0614,0 -0.12276,0.0614 -0.0982,0.15958 0.0123,0.17186 0.0491,0.39281 0.11048,0.51557 0.0736,0.1964 0.30688,0.36825 0.51556,0.39281 0.82245,0.11047 1.36256,-0.29461 1.73082,-0.71197 0.66287,-0.77335 0.98203,-1.97633 0.98203,-2.95835 0,-0.41736 -0.18413,-0.85927 -0.57694,-1.05567 -0.14731,-0.0614 -0.30689,-0.0859 -0.46647,-0.0859 -0.38053,0 -0.78561,0.1473 -1.10477,0.33143 -0.0859,0.0491 -0.14731,0.0368 -0.0982,-0.0859 0.28233,-0.68741 1.16615,-2.67601 1.52213,-3.46163 0.15958,-0.35598 0.15958,-0.33143 0.49101,-0.33143 h 2.90925 c 0.19641,0 0.24551,-0.18413 0.0123,-0.19641 -0.73652,-0.0368 -1.58352,-0.0123 -2.33231,-0.0123 z"
       id="text1"
       style="font-size:4.91012px;font-family:Propysy;-inkscape-font-specification:'Propysy, Normal';white-space:pre;fill:#bbbbbb"
       transform="matrix(9.5596082,0,0,9.50717,-2724.6071,-3898.1827)"
       aria-label="Б" />
  </g>
</svg>
