<?xml version="1.0" encoding="UTF-8" standalone="no"?>
<!-- Created with Inkscape (http://www.inkscape.org/) -->

<svg
   width="100mm"
   height="100mm"
   viewBox="0 0 100 100"
   version="1.1"
   id="svg1"
   sodipodi:docname="letter-f-text-variant-svgrepo-com.svg"
   inkscape:version="1.4.1-rc (06eac75fbf, 2025-03-29)"
   xmlns:inkscape="http://www.inkscape.org/namespaces/inkscape"
   xmlns:sodipodi="http://sodipodi.sourceforge.net/DTD/sodipodi-0.dtd"
   xmlns="http://www.w3.org/2000/svg"
   xmlns:svg="http://www.w3.org/2000/svg">
  <sodipodi:namedview
     id="namedview1"
     pagecolor="#ffffff"
     bordercolor="#000000"
     borderopacity="0.25"
     inkscape:showpageshadow="2"
     inkscape:pageopacity="0.0"
     inkscape:pagecheckerboard="0"
     inkscape:deskcolor="#d1d1d1"
     inkscape:document-units="mm"
     inkscape:zoom="0.71891835"
     inkscape:cx="273.32728"
     inkscape:cy="221.86108"
     inkscape:window-width="1920"
     inkscape:window-height="1011"
     inkscape:window-x="0"
     inkscape:window-y="32"
     inkscape:window-maximized="1"
     inkscape:current-layer="layer1" />
  <defs
     id="defs1">
    <rect
       x="285.1506"
       y="415.90259"
       width="193.34602"
       height="172.48134"
       id="rect1" />
  </defs>
  <g
     inkscape:label="Шар 1"
     inkscape:groupmode="layer"
     id="layer1">
    <path
       d="m 392.81678,439.88681 c -8.33331,17.99995 -18.33328,39.66656 -31.33325,54.99985 -8.66665,10.33331 -22.66661,18.99996 -36.33324,18.99996 -14.66663,0 -21.66661,-7.99998 -25.33327,-21.66662 -1,-2.66666 -4.66665,-0.99999 -4.33332,1.33333 0.99999,13.3333 11.66663,22.33328 20.99994,24.33328 23.99994,4.99998 42.99989,-12.66664 46.66655,-16.66663 27.99993,-31.99992 44.33322,-83.66645 57.66652,-109.33305 2.99999,22.33327 15.66663,31.66658 29.99992,31.66658 11.99997,0 25.33327,-6.99998 34.99991,-18.33328 20.99995,-25.33327 49.33321,-80.9998 34.66658,-107.66639 -4.66665,-8.33332 -11.3333,-11.66664 -18.66662,-11.66664 -11.99997,0 -25.33327,8.99998 -33.66658,16.66662 0,0 -9.99997,9.99998 -12.3333,13.3333 0,-1.33333 12.3333,-23.33327 12.99997,-28.33326 0,-1.99999 -3.66666,-2.33333 -4.66666,-0.33333 -6.99998,12.99997 -13.3333,27.33326 -20.66661,39.9999 0,-16.66663 -0.33333,-37.99991 -19.33328,-41.66656 -15.66663,-1.66667 -28.33327,4.99998 -39.33324,14.99996 -23.33327,21.33328 -38.33323,47.33321 -45.33321,79.66646 -4.66666,20.66661 1.99999,44.99989 25.33326,44.99989 4.99999,0 10.99998,-1 17.66663,-3.66666 10.66663,-3.99999 24.99993,-18.99995 25.99993,-18.99995 1,1.66666 -13.99997,33.66658 -15.66663,37.33324 z m 40.66656,-93.3331 c -6.99998,24.33327 -22.99994,49.66654 -44.33322,64.6665 -8.33331,5.99999 -16.66662,8.66665 -23.6666,8.66665 -14.66663,0 -24.33327,-11.99997 -21.33328,-34.33325 4.99999,-34.99991 20.66661,-58.33318 45.66655,-81.99979 6.66665,-6.33332 17.66662,-12.99997 27.99993,-12.99997 3.66666,0 7.33331,1 10.33331,2.66666 14.66662,8.33332 9.66664,41.66656 5.33331,53.3332 z m 48.33321,54.99986 c -7.99997,10.33331 -19.99994,16.33329 -30.66658,16.33329 -10.66664,0 -20.33329,-5.99998 -23.66661,-19.33328 -7.66665,-30.33326 29.99992,-78.66647 45.66655,-92.99976 8.99998,-8.33332 20.33328,-14.66663 29.66659,-14.66663 5.33332,0 9.66664,1.99999 12.99997,7.33331 15.99996,26.33327 -15.99996,80.99979 -33.99992,103.33307 z"
       id="text1"
       style="font-size:133.333px;font-family:Propysy;-inkscape-font-specification:'Propysy, Normal';white-space:pre;fill:#bbbbbb"
       transform="matrix(0.37055306,0,0,0.3452863,-102.40324,-87.733877)"
       aria-label="Ф" />
  </g>
</svg>
