<?xml version="1.0" encoding="UTF-8" standalone="no"?>
<!-- Created with Inkscape (http://www.inkscape.org/) -->

<svg
   width="100mm"
   height="100mm"
   viewBox="0 0 100 100"
   version="1.1"
   id="svg1"
   sodipodi:docname="letter-de-text-variant-svgrepo-com.svg"
   inkscape:version="1.4.1-rc (06eac75fbf, 2025-03-29)"
   xmlns:inkscape="http://www.inkscape.org/namespaces/inkscape"
   xmlns:sodipodi="http://sodipodi.sourceforge.net/DTD/sodipodi-0.dtd"
   xmlns="http://www.w3.org/2000/svg"
   xmlns:svg="http://www.w3.org/2000/svg">
  <sodipodi:namedview
     id="namedview1"
     pagecolor="#ffffff"
     bordercolor="#000000"
     borderopacity="0.25"
     inkscape:showpageshadow="2"
     inkscape:pageopacity="0.0"
     inkscape:pagecheckerboard="0"
     inkscape:deskcolor="#d1d1d1"
     inkscape:document-units="mm"
     inkscape:zoom="0.71891835"
     inkscape:cx="273.32728"
     inkscape:cy="221.86108"
     inkscape:window-width="1920"
     inkscape:window-height="1011"
     inkscape:window-x="0"
     inkscape:window-y="32"
     inkscape:window-maximized="1"
     inkscape:current-layer="layer1" />
  <defs
     id="defs1">
    <rect
       x="285.1506"
       y="415.90259"
       width="193.34602"
       height="172.48134"
       id="rect1" />
  </defs>
  <g
     inkscape:label="Шар 1"
     inkscape:groupmode="layer"
     id="layer1">
    <path
       d="m 297.28425,418.33966 c 2.85727,-6.53362 0.32383,-9.90519 -2.76202,-9.90519 -1.61912,0 -3.40967,0.95242 -4.60973,2.85726 -0.0762,0.1143 -0.41906,0.60955 -0.40001,0.83814 0,0.0571 0.0381,0.0952 0.0952,0.11429 0.0571,0.019 0.0952,0 0.13334,-0.0381 0.15238,-0.20953 0.26668,-0.43811 0.38097,-0.64765 0.87622,-1.48578 2.72392,-2.81917 4.2859,-2.81917 0.32382,0 0.6286,0.0571 0.91432,0.17144 0.17144,0.0762 0.20954,0.0952 0.13334,0.26668 l -4.51448,9.94329 c -0.24763,0.43811 -0.53336,0.83813 -0.91433,1.181 -0.0571,0.0381 -0.13334,0.0571 -0.22858,0.0571 -0.36192,0 -0.89527,-0.26668 -0.97147,-0.30478 -0.60955,-0.22858 -1.37149,-0.43811 -2.03818,-0.40002 -0.93338,0 -1.61912,0.99052 -0.81909,1.71436 0.34288,0.30478 1.14291,0.40002 1.60007,0.38097 0.76194,-0.0381 0.97147,-0.15238 1.69532,-0.49526 0.36192,-0.15238 0.5524,-0.49526 1.00956,-0.34287 0.53336,0.19049 1.8477,0.70479 2.26677,0.74289 0.30477,0.0952 0.6286,0.13334 0.95242,0.13334 1.31434,0 2.66678,-0.83813 3.79064,-3.44777 z m 0.26668,-1.58102 c -0.60955,1.56197 -1.79055,4.60972 -3.84779,4.68592 -1.46673,0.0381 -1.63816,-0.26668 -3.20013,-0.80004 -0.28573,-0.11429 -0.30478,-0.019 -0.0762,-0.28572 0.51431,-0.59051 0.74289,-0.93338 1.08576,-1.67627 l 3.88589,-8.62894 c 0.11429,-0.24763 0.24763,-0.53336 0.40001,-0.78099 0.0762,-0.11429 0.17144,-0.17144 0.32383,-0.0952 0.0762,0.019 0.17143,0.0571 0.22858,0.0952 2.68583,1.60007 1.8858,5.69549 1.20005,7.48604 z m -10.53379,4.66687 c -1.16196,-0.11429 -1.50483,-1.12386 -0.40002,-1.44768 0.64765,-0.15239 2.4763,0.38097 2.89537,0.72384 -0.0572,0.0381 -0.15239,0.11429 -0.22859,0.17143 -0.78098,0.51431 -1.40958,0.55241 -2.26676,0.55241 z"
       id="text1"
       style="font-size:7.61938px;font-family:Propysy;-inkscape-font-specification:'Propysy, Normal';white-space:pre;fill:#bbbbbb"
       transform="matrix(6.0449363,0,0,5.9361712,-1718.0719,-2413.6198)"
       aria-label="Д" />
  </g>
</svg>
