<?xml version="1.0" encoding="UTF-8" standalone="no"?>
<!-- Created with Inkscape (http://www.inkscape.org/) -->

<svg
   width="100mm"
   height="100mm"
   viewBox="0 0 100 100"
   version="1.1"
   id="svg1"
   inkscape:version="1.4.2 (f4327f4, 2025-05-13)"
   sodipodi:docname="letter-Т.svg"
   xmlns:inkscape="http://www.inkscape.org/namespaces/inkscape"
   xmlns:sodipodi="http://sodipodi.sourceforge.net/DTD/sodipodi-0.dtd"
   xmlns="http://www.w3.org/2000/svg"
   xmlns:svg="http://www.w3.org/2000/svg">
  <sodipodi:namedview
     id="namedview1"
     pagecolor="#ffffff"
     bordercolor="#000000"
     borderopacity="0.25"
     inkscape:showpageshadow="2"
     inkscape:pageopacity="0.0"
     inkscape:pagecheckerboard="0"
     inkscape:deskcolor="#d1d1d1"
     inkscape:document-units="mm"
     inkscape:zoom="0.68862935"
     inkscape:cx="217.824"
     inkscape:cy="164.82016"
     inkscape:window-width="1215"
     inkscape:window-height="981"
     inkscape:window-x="0"
     inkscape:window-y="0"
     inkscape:window-maximized="0"
     inkscape:current-layer="layer1" />
  <defs
     id="defs1" />
  <g
     inkscape:label="Шар 1"
     inkscape:groupmode="layer"
     id="layer1">
    <path
       d="m 92.707989,21.113246 c -16.867399,0 -33.734799,0 -50.602198,0 -2.13928,0 -4.36084,0.16456 -6.41784,0.74052 -4.77224,1.39876 -9.29764,6.33556 -6.74696,11.519199 0.24684,0.4114 0.57596,0.57596 0.8228,0.57596 0.49368,0 0.90508,-0.49368 0.57596,-1.069639 -1.15192,-2.30384 -0.8228,-4.36084 0.8228,-6.41784 2.22156,-2.79752 5.59504,-3.53804 8.96852,-3.86716 2.38612,-0.16456 4.77224,-0.16456 7.07608,0 0.49368,0 0.98736,0.57596 0.8228,1.06964 -0.32912,1.15192 -0.90508,2.22156 -1.39876,3.2912 -6.171,13.082519 -12.342,26.165039 -18.43072,39.247558 -2.22156,5.10136 -5.759599,9.95588 -11.601479,10.77868 -2.4684,0.32912 -4.60768,-0.4114 -6.00644,-2.55068 -0.16456,-0.24684 -0.24684,-0.4114 -0.4114,-0.57596 -0.4113999,-0.4114 -1.5633199,0 -0.9050799,1.31648 1.0696399,1.72788 2.4683999,2.8798 4.6076799,3.12664 2.71524,0.32912 5.18364,-0.08228 7.48748,-1.48104 2.79752,-1.56332 5.348199,-4.68996 6.911519,-7.48748 0.57596,-1.31648 1.2342,-2.55068 1.81016,-3.78488 1.56332,-3.37348 3.20892,-6.829239 4.77224,-10.202719 l 9.54448,-20.32316 c 1.56332,-3.455759 3.20892,-6.829239 4.77224,-10.202719 0.4114,-0.90508 0.90508,-1.97472 1.89244,-2.22156 0.246839,-0.08228 0.575959,-0.08228 0.905079,-0.08228 2.71524,0 5.43048,0 8.14572,0 2.71524,0 0.65824,2.96208 0.08228,4.19628 -7.48748,16.291439 -15.880039,34.557598 -23.367519,50.849038 -0.24684,0.8228 0.98736,1.06964 1.2342,0.49368 7.89888,-17.2788 16.620559,-35.956359 24.601719,-53.152878 0.24684,-0.57596 0.57596,-1.15192 0.90508,-1.72788 0.32912,-0.49368 1.15192,-0.65824 1.72788,-0.65824 3.12664,0 6.25328,0 9.37992,0 0.65824,0 1.72788,0.4114 1.31648,1.31648 -0.4114,1.06964 -0.90508,2.22156 -1.39876,3.2912 L 57.49215,64.145684 c -1.15192,2.4684 -2.30384,4.85452 -3.12664,7.4052 -0.74052,2.13928 -1.06964,5.92416 1.72788,6.82924 1.89244,0.57596 4.27856,-0.24684 5.92416,-1.2342 3.12664,-1.89244 7.89888,-6.00644 10.20272,-8.39256 0.57596,-0.65824 -0.4114,-1.56332 -1.15192,-0.74052 -2.30384,2.4684 -9.62676,9.29764 -13.32936,9.29764 -2.71524,0 -3.12664,-3.20892 -1.56332,-6.66468 0.4114,-1.06964 0.90508,-2.22156 1.39876,-3.2912 13.32936,-28.880279 6.9938,-15.057239 19.08896,-41.386838 0.4114,-0.90508 0.905079,-1.89244 1.398759,-2.71524 0.24684,-0.4114 0.57596,-0.65824 1.06964,-0.74052 4.60768,0 9.29764,0 13.90532,0 0.98736,0 1.06964,-1.39876 -0.32912,-1.39876 z"
       id="text1"
       style="font-size:32.912px;font-family:Propysy;-inkscape-font-specification:'Propysy, Normal';fill:#bbbbbb;stroke-width:0.0968638"
       aria-label="Т" />
  </g>
</svg>
