<?xml version="1.0" encoding="UTF-8" standalone="no"?>
<!-- Created with Inkscape (http://www.inkscape.org/) -->

<svg
   width="100mm"
   height="100mm"
   viewBox="0 0 100 100"
   version="1.1"
   id="svg1"
   inkscape:version="1.4.2 (f4327f4, 2025-05-13)"
   sodipodi:docname="letter-Б.svg"
   xmlns:inkscape="http://www.inkscape.org/namespaces/inkscape"
   xmlns:sodipodi="http://sodipodi.sourceforge.net/DTD/sodipodi-0.dtd"
   xmlns="http://www.w3.org/2000/svg"
   xmlns:svg="http://www.w3.org/2000/svg">
  <sodipodi:namedview
     id="namedview1"
     pagecolor="#ffffff"
     bordercolor="#000000"
     borderopacity="0.25"
     inkscape:showpageshadow="2"
     inkscape:pageopacity="0.0"
     inkscape:pagecheckerboard="0"
     inkscape:deskcolor="#d1d1d1"
     inkscape:document-units="mm"
     inkscape:zoom="0.97386896"
     inkscape:cx="-28.237885"
     inkscape:cy="319.85823"
     inkscape:window-width="1920"
     inkscape:window-height="991"
     inkscape:window-x="-9"
     inkscape:window-y="-9"
     inkscape:window-maximized="1"
     inkscape:current-layer="layer1" />
  <defs
     id="defs1" />
  <g
     inkscape:label="Шар 1"
     inkscape:groupmode="layer"
     id="layer1">
    <path
       d="m 68.808909,14.04313 c -5.407519,0 -10.915178,0 -16.322697,0 -5.507659,0 -11.415874,0.801114 -15.321305,5.107101 -2.203063,2.403342 -3.104317,8.01114 -0.600835,10.514621 0.700974,0.500697 1.702367,-0.100139 1.101531,-1.001392 -1.602228,-2.70376 -1.401949,-6.108494 1.001393,-8.712115 2.102924,-2.503481 6.809468,-4.005569 10.013924,-4.105709 3.204456,-0.200278 5.808077,-0.100139 9.012532,0 1.40195,0 1.201671,1.001393 0.801114,1.902646 l -1.702367,3.805291 c -4.706544,10.414482 -9.31295,21.029242 -14.119633,31.443724 -2.603621,5.607797 -9.613368,23.232305 -14.420052,26.637039 -2.803899,2.002785 -5.507658,3.004177 -7.810861,3.004177 -3.504874,0 -6.208633,-2.403341 -7.210026,-6.809468 -0.200278,-0.700975 -1.502088,-0.600836 -1.502088,0.400557 0.500696,4.506266 4.005569,7.810861 8.411696,7.810861 4.00557,0 8.611975,-2.102924 10.815039,-4.706545 4.806684,-5.507658 10.214203,-19.026456 12.717684,-24.333836 1.001393,-1.902646 2.002785,-3.905431 3.705152,-5.207241 2.603621,-2.002785 6.809469,-3.504874 10.214203,-3.504874 3.104317,0 4.806684,1.001393 6.008355,4.00557 1.401949,3.605013 0.400557,10.414482 -0.700975,14.219773 -2.102924,7.210026 -6.208633,15.421444 -14.019494,17.724646 -1.001393,0.200279 -3.104317,0.400557 -4.105709,0.300418 -3.304595,-0.400557 -4.205849,-3.504873 -4.506266,-6.509051 0,-0.500696 -0.400557,-0.801114 -0.801114,-0.801114 -0.500697,0 -1.001393,0.500696 -0.801114,1.30181 0.100139,1.40195 0.400557,3.204456 0.901253,4.205849 0.600835,1.602228 2.503481,3.004177 4.205848,3.204456 6.70933,0.901253 11.115457,-2.403342 14.119634,-5.808077 5.407519,-6.308772 8.01114,-16.122418 8.01114,-24.133558 0,-3.404734 -1.502089,-7.009747 -4.706545,-8.611975 -1.201671,-0.500696 -2.503481,-0.700975 -3.805291,-0.700975 -3.104317,0 -6.408912,1.201671 -9.012532,2.70376 -0.700975,0.400557 -1.201671,0.300418 -0.801114,-0.700975 2.303202,-5.607798 9.513228,-21.830356 12.417266,-28.239267 1.30181,-2.904038 1.30181,-2.70376 4.00557,-2.70376 h 23.733001 c 1.602228,0 2.002785,-1.502089 0.10014,-1.602228 C 81.827011,13.842851 74.917403,14.04313 68.808909,14.04313 Z"
       id="text1"
       style="font-size:40.0557px;font-family:Propysy;-inkscape-font-specification:'Propysy, Normal';fill:#bbbbbb;stroke-width:3.33798"
       aria-label="Б" />
  </g>
</svg>
