<?xml version="1.0" encoding="UTF-8" standalone="no"?>
<!-- Created with Inkscape (http://www.inkscape.org/) -->

<svg
   width="100mm"
   height="100mm"
   viewBox="0 0 100 100"
   version="1.1"
   id="svg1"
   inkscape:version="1.4.2 (f4327f4, 2025-05-13)"
   sodipodi:docname="letter-Ш.svg"
   xmlns:inkscape="http://www.inkscape.org/namespaces/inkscape"
   xmlns:sodipodi="http://sodipodi.sourceforge.net/DTD/sodipodi-0.dtd"
   xmlns="http://www.w3.org/2000/svg"
   xmlns:svg="http://www.w3.org/2000/svg">
  <sodipodi:namedview
     id="namedview1"
     pagecolor="#ffffff"
     bordercolor="#000000"
     borderopacity="0.25"
     inkscape:showpageshadow="2"
     inkscape:pageopacity="0.0"
     inkscape:pagecheckerboard="0"
     inkscape:deskcolor="#d1d1d1"
     inkscape:document-units="mm"
     inkscape:zoom="0.97386896"
     inkscape:cx="187.91029"
     inkscape:cy="161.72607"
     inkscape:window-width="1195"
     inkscape:window-height="981"
     inkscape:window-x="0"
     inkscape:window-y="0"
     inkscape:window-maximized="0"
     inkscape:current-layer="layer1" />
  <defs
     id="defs1" />
  <g
     inkscape:label="Шар 1"
     inkscape:groupmode="layer"
     id="layer1">
    <path
       d="m 62.529353,57.307333 c 1.209328,-2.046556 1.860505,-3.069834 2.046555,-3.069834 0.186051,0 -0.279076,1.302354 -1.209328,3.53496 -2.325631,5.67454 -7.162944,14.511938 -4.186136,20.558579 0.930252,1.860505 2.604707,3.255884 4.744287,3.255884 1.023278,0 2.232606,-0.279076 3.53496,-0.837228 4.372186,-1.767479 8.744373,-6.883868 11.814206,-10.232777 0.930252,-0.930252 -0.558152,-1.674454 -1.023278,-1.116303 -2.232606,2.511682 -9.302524,10.697904 -14.139837,10.697904 -2.883783,0 -4.186136,-3.069833 -4.186136,-5.581515 -0.186051,-9.39555 17.674797,-42.698588 23.907488,-55.163971 0.18605,-0.372101 0.465126,-0.930252 0.744202,-1.488404 0.558151,-1.302353 -0.558152,-1.860505 -1.302353,-0.744202 -0.465127,0.744202 -1.209329,1.953531 -1.674455,2.790758 -2.418656,4.186136 -4.744287,8.372272 -7.069919,12.558408 L 61.040949,56.37708 c -3.72101,6.325717 -8.744373,14.697989 -13.860762,20.093453 -1.209328,1.395379 -4.279161,3.441934 -6.511767,3.441934 -1.209328,0 -2.232606,-0.651176 -2.511682,-2.418656 -0.837227,-4.651262 4.186136,-15.349166 6.418742,-20.372529 5.67454,-12.465383 12.186307,-24.744715 17.860847,-37.210098 0.279076,-0.558152 0.558152,-1.209328 0.837228,-1.860505 0.372101,-0.744202 0,-1.488404 -0.558152,-1.488404 -0.279076,0 -0.651177,0.18605 -0.930252,0.744202 -1.488404,2.511682 -3.069833,5.67454 -4.465212,8.186222 -6.232691,11.163029 -11.907231,22.88421 -19.070175,33.582113 -1.395379,2.232606 -13.11656,21.023706 -18.884125,21.023706 -0.930253,0 -1.76748,-0.558152 -2.325631,-1.76748 -1.58143,-3.162858 1.116303,-9.023449 2.511681,-11.907231 4.372187,-9.302525 8.837399,-18.512024 13.30261,-27.907574 2.232606,-4.558237 4.930338,-9.674626 5.67454,-14.697989 0.744202,-5.302439 -1.302353,-7.255969 -4.186136,-7.255969 -3.162858,0 -7.348994,2.418656 -9.860676,5.209414 -1.302353,1.395378 -5.86059,5.953615 -6.418742,7.255969 -0.372101,0.744202 0.465127,1.209328 0.930253,0.837227 0.744202,-0.558151 3.627984,-4.279161 6.883868,-7.44202 2.697732,-2.697732 5.953616,-4.558237 8.186222,-4.558237 2.325631,0 3.721009,1.953531 2.604706,6.976894 -1.116303,4.372186 -2.325631,6.418742 -4.000085,10.325802 -5.116389,10.697903 -10.418828,21.395807 -15.442191,32.186735 -1.395379,2.976808 -3.441934,9.023449 -1.395379,12.093282 0.930253,1.581429 2.139581,2.232606 3.53496,2.232606 6.418742,0 16.093367,-15.25614 18.325973,-18.698074 1.395379,-2.046556 2.790757,-4.186137 4.186136,-6.325717 0.930253,-1.395379 1.674455,-2.511682 1.860505,-2.511682 0.186051,0 0,0.744202 -0.744202,2.511682 -0.558151,1.302353 -1.116303,2.511681 -1.581429,3.627984 -2.232606,5.116389 -5.581515,11.34908 -5.116389,17.02362 0.279076,2.976808 2.139581,4.186136 4.465212,4.186136 4.558237,0 8.837399,-4.837312 11.256055,-8.186221 3.72101,-5.209414 7.162944,-10.511853 10.511853,-16.000342 z"
       id="text1"
       style="font-size:37.2101px;font-family:Propysy;-inkscape-font-specification:'Propysy, Normal';fill:#bbbbbb;stroke-width:3.10085"
       aria-label="Ш" />
  </g>
</svg>
