<?xml version="1.0" encoding="UTF-8" standalone="no"?>
<!-- Created with Inkscape (http://www.inkscape.org/) -->

<svg
   width="100mm"
   height="100mm"
   viewBox="0 0 100 100"
   version="1.1"
   id="svg1"
   inkscape:version="1.4.2 (f4327f4, 2025-05-13)"
   sodipodi:docname="letter-Ю.svg"
   xmlns:inkscape="http://www.inkscape.org/namespaces/inkscape"
   xmlns:sodipodi="http://sodipodi.sourceforge.net/DTD/sodipodi-0.dtd"
   xmlns="http://www.w3.org/2000/svg"
   xmlns:svg="http://www.w3.org/2000/svg">
  <sodipodi:namedview
     id="namedview1"
     pagecolor="#ffffff"
     bordercolor="#000000"
     borderopacity="0.25"
     inkscape:showpageshadow="2"
     inkscape:pageopacity="0.0"
     inkscape:pagecheckerboard="0"
     inkscape:deskcolor="#d1d1d1"
     inkscape:document-units="mm"
     inkscape:zoom="0.97386896"
     inkscape:cx="187.91029"
     inkscape:cy="161.72607"
     inkscape:window-width="1195"
     inkscape:window-height="981"
     inkscape:window-x="0"
     inkscape:window-y="0"
     inkscape:window-maximized="0"
     inkscape:current-layer="layer1" />
  <defs
     id="defs1" />
  <g
     inkscape:label="Шар 1"
     inkscape:groupmode="layer"
     id="layer1">
    <path
       d="m 46.058404,24.322446 c -0.176152,0.616532 -0.88076,2.025748 -1.233064,2.818432 -0.704608,1.497292 -1.409216,3.08266 -2.2019,4.668028 -3.787268,8.102992 -7.574536,16.029832 -11.361804,24.2209 -2.906508,5.901092 -6.693776,16.558288 -11.89026,20.69786 -2.289976,1.849596 -4.227648,2.466128 -5.901092,2.466128 -3.170736,0 -6.077244,-2.994584 -6.077244,-6.253396 0.088076,-0.44038 -0.352304,-0.704608 -0.704608,-0.704608 -0.44038,0 -0.792684,0.264228 -0.792684,1.233064 0.176152,4.139572 3.611116,7.222232 7.750688,7.222232 2.378052,0 5.196484,-1.056912 8.014916,-3.96342 2.994584,-3.08266 5.020332,-7.398384 6.869928,-11.185652 2.025748,-4.227648 4.4038,-9.424132 6.693776,-14.268312 0.176152,-0.44038 0.88076,-0.616532 1.409216,-0.616532 3.611116,0 7.310308,0 11.097576,0.08808 1.056912,0 0.968836,0.352304 0.704608,1.32114 l -0.352304,1.144988 c -2.025748,5.548788 -4.051496,13.827932 -2.289976,19.640948 1.849596,5.72494 5.548788,7.838764 9.68836,7.838764 5.28456,0 11.273728,-3.434964 15.060996,-7.134156 8.014916,-8.014916 15.149072,-20.345556 18.231732,-31.090828 1.409216,-4.668028 2.466128,-11.273728 1.673444,-16.117908 -0.792684,-5.196484 -4.4038,-7.222232 -8.543372,-7.222232 -12.418716,0 -25.98242,17.527124 -31.26698,28.360472 -0.44038,0.792684 -0.88076,1.585368 -1.849596,1.585368 -3.611116,0 -7.310308,0 -11.097576,0 -0.528456,0 -1.233064,-0.264228 -0.968836,-0.88076 0.264228,-0.704608 0.528456,-1.409216 0.792684,-2.025748 2.378052,-5.108408 4.756104,-10.12874 7.134156,-15.149072 1.409216,-3.08266 2.64228,-6.16532 4.139572,-9.24798 0.264228,-0.616532 0.704608,-1.409216 0.88076,-2.025748 0.176152,-0.704608 -0.792684,-0.792684 -1.056912,-0.528456 -3.346888,4.315724 -7.398384,8.014916 -12.682944,9.952588 -0.616532,0.264228 -1.497292,0.528456 -2.025748,0.792684 -0.704608,0.352304 -0.44038,1.497292 0.528456,1.233064 3.611116,-1.056912 6.869928,-2.818432 9.776436,-5.28456 0.264228,-0.176152 1.76152,-1.409216 1.849596,-1.585368 z M 88.158732,38.76691 c -2.466128,12.506792 -17.086744,40.426884 -32.235816,40.426884 -4.668028,0 -8.631448,-2.994584 -9.159904,-9.24798 -0.44038,-5.196484 0.88076,-11.097576 2.730356,-15.941756 4.579952,-11.626032 13.035248,-23.956672 23.868596,-30.650448 2.730356,-1.585368 5.901092,-2.730356 8.719524,-2.730356 2.994584,0 5.460712,1.233064 6.517624,4.491876 1.144988,3.699192 0.528456,9.952588 -0.44038,13.65178 z"
       id="text1"
       style="font-size:35.2304px;font-family:Propysy;-inkscape-font-specification:'Propysy, Normal';fill:#bbbbbb;stroke-width:2.93587"
       aria-label="Ю" />
  </g>
</svg>
