<?xml version="1.0" encoding="UTF-8" standalone="no"?>
<!-- Created with Inkscape (http://www.inkscape.org/) -->

<svg
   width="100mm"
   height="100mm"
   viewBox="0 0 100 100"
   version="1.1"
   id="svg1"
   inkscape:version="1.4.2 (f4327f4, 2025-05-13)"
   sodipodi:docname="letter-К.svg"
   xmlns:inkscape="http://www.inkscape.org/namespaces/inkscape"
   xmlns:sodipodi="http://sodipodi.sourceforge.net/DTD/sodipodi-0.dtd"
   xmlns="http://www.w3.org/2000/svg"
   xmlns:svg="http://www.w3.org/2000/svg">
  <sodipodi:namedview
     id="namedview1"
     pagecolor="#ffffff"
     bordercolor="#000000"
     borderopacity="0.25"
     inkscape:showpageshadow="2"
     inkscape:pageopacity="0.0"
     inkscape:pagecheckerboard="0"
     inkscape:deskcolor="#d1d1d1"
     inkscape:document-units="mm"
     inkscape:zoom="0.97386896"
     inkscape:cx="187.91029"
     inkscape:cy="161.72607"
     inkscape:window-width="1195"
     inkscape:window-height="981"
     inkscape:window-x="0"
     inkscape:window-y="0"
     inkscape:window-maximized="0"
     inkscape:current-layer="layer1" />
  <defs
     id="defs1" />
  <g
     inkscape:label="Шар 1"
     inkscape:groupmode="layer"
     id="layer1">
    <path
       d="m 54.928874,26.405422 c 0.371214,-0.27841 1.670463,-1.113642 1.670463,-1.113642 -1.020839,2.505695 -2.969712,6.681852 -4.176158,9.28035 -0.371214,0.928035 -0.835231,1.85607 -1.299248,2.784105 l -2.505695,5.475406 c -0.464017,0.928035 -0.835231,1.85607 -1.299249,2.784105 -2.969712,6.403441 -5.939424,12.806883 -9.001939,19.210324 -0.742428,1.577659 -1.484856,3.155319 -2.227284,4.732978 -2.320087,5.2898 -7.609887,11.507634 -13.920525,11.507634 -2.320087,0 -4.640175,-0.928035 -6.217834,-3.062515 -0.185607,-0.278411 -0.371214,-0.464018 -0.649624,-0.649625 -0.649625,-0.27841 -1.392053,0.371214 -1.020839,1.020839 1.020839,2.13448 3.433729,3.619336 5.661013,4.176157 1.670463,0.371214 4.825782,0.185607 6.403442,-0.556821 5.104192,-1.948873 8.816332,-6.589048 11.136419,-11.41483 1.392053,-2.876909 2.598498,-6.032228 3.990551,-8.816332 1.948873,-4.454568 4.176157,-8.630726 6.310638,-13.085294 0.27841,-0.649624 0.742428,-1.020838 1.484856,-1.020838 2.784104,0 4.640174,0.0928 7.424279,0.742428 2.412891,0.649624 5.846621,3.155319 6.310638,5.661013 1.206446,5.011389 -3.433729,11.13642 -5.56821,15.590988 -1.577659,3.248122 -3.248122,7.795494 -1.299249,10.858009 1.020839,1.670463 2.412891,2.320087 3.897747,2.320087 5.382603,0 12.714079,-8.723528 15.219774,-11.229223 0.556821,-0.556821 -0.556821,-1.577659 -1.113642,-1.020838 -1.85607,1.763266 -9.373153,10.579598 -14.106132,10.579598 -1.020838,0 -1.948873,-0.464017 -2.598498,-1.484855 -1.392052,-2.134481 0,-6.496245 1.484856,-9.373154 1.948874,-3.619336 6.960263,-11.229223 5.661014,-16.426219 -0.928035,-3.71214 -3.526533,-5.196996 -6.589049,-6.774655 -0.649624,-0.371214 -0.371214,-0.556821 0.278411,-0.835232 7.795494,-3.340925 12.899686,-11.600437 17.447057,-18.375092 1.763267,-2.598498 3.526533,-5.475406 6.032228,-7.331476 0.928035,-0.742428 2.041677,-1.020839 3.062515,-1.020839 1.763266,0 3.433729,1.113642 3.897747,3.340926 0.185607,0.742428 0.185607,1.57766 0.0928,2.320088 -0.0928,0.649624 -0.371214,2.412891 0.928035,1.948873 0.278411,-0.0928 0.464018,-0.464017 0.556821,-0.835231 0.556821,-2.412891 0.0928,-4.825782 -1.484856,-6.681852 -1.206445,-1.206446 -2.598498,-1.763267 -4.083353,-1.763267 -3.990551,0 -7.053066,4.083354 -8.909136,7.053066 -0.371214,0.556821 -0.742428,1.113642 -1.206446,1.670463 l -2.227284,3.433729 c -3.248122,4.732979 -6.496244,9.28035 -11.043616,12.899687 -1.392052,0.928035 -2.876908,1.670463 -4.454568,2.041677 -0.556821,0.185607 -3.433729,0.835231 -5.382602,0.835231 -1.113642,0 -1.948874,-0.185607 -1.948874,-0.835231 0.185607,-0.464018 0.278411,-0.835232 0.464018,-1.206446 3.248122,-7.053066 6.496244,-14.013328 9.465956,-21.159197 0.371214,-0.928035 1.57766,-3.062516 1.57766,-3.990551 0,-0.742428 -0.928035,-1.020838 -1.484856,-0.185607 -2.412891,4.361765 -4.918586,6.403442 -9.373153,8.909136 -2.320088,1.206445 -3.897747,1.577659 -4.547372,2.041677 -0.742428,0.556821 -0.185607,1.763266 0.835232,1.299249 3.062515,-1.299249 5.661013,-2.320087 8.445118,-4.268961 z"
       id="text1"
       style="font-size:37.1214px;font-family:Propysy;-inkscape-font-specification:'Propysy, Normal';fill:#bbbbbb;stroke-width:3.09345"
       aria-label="К" />
  </g>
</svg>
