<?xml version="1.0" encoding="UTF-8" standalone="no"?>
<!-- Created with Inkscape (http://www.inkscape.org/) -->

<svg
   width="100mm"
   height="100mm"
   viewBox="0 0 100 100"
   version="1.1"
   id="svg1"
   inkscape:version="1.4.2 (f4327f4, 2025-05-13)"
   sodipodi:docname="letter-М.svg"
   xmlns:inkscape="http://www.inkscape.org/namespaces/inkscape"
   xmlns:sodipodi="http://sodipodi.sourceforge.net/DTD/sodipodi-0.dtd"
   xmlns="http://www.w3.org/2000/svg"
   xmlns:svg="http://www.w3.org/2000/svg">
  <sodipodi:namedview
     id="namedview1"
     pagecolor="#ffffff"
     bordercolor="#000000"
     borderopacity="0.25"
     inkscape:showpageshadow="2"
     inkscape:pageopacity="0.0"
     inkscape:pagecheckerboard="0"
     inkscape:deskcolor="#d1d1d1"
     inkscape:document-units="mm"
     inkscape:zoom="0.97386896"
     inkscape:cx="187.91029"
     inkscape:cy="161.72607"
     inkscape:window-width="1195"
     inkscape:window-height="981"
     inkscape:window-x="0"
     inkscape:window-y="0"
     inkscape:window-maximized="0"
     inkscape:current-layer="layer1" />
  <defs
     id="defs1" />
  <g
     inkscape:label="Шар 1"
     inkscape:groupmode="layer"
     id="layer1">
    <path
       d="m 56.011648,38.377073 c -2.13448,5.661014 -6.310638,13.178097 -8.909136,18.653503 -2.041677,4.361765 -4.26896,8.630725 -6.310637,12.899686 -1.484856,3.062516 -4.361765,9.187547 -2.041677,11.322027 1.206445,1.113642 2.505694,1.577659 3.99055,1.577659 11.41483,0 29.233102,-29.418708 29.511512,-29.789922 0.185607,-0.185607 -9.001939,16.98304 -11.229223,23.108071 -0.928035,2.598498 -0.27841,5.753816 2.691301,6.496244 0.742428,0.185607 1.484856,0.185607 2.227284,0.0928 5.382603,-0.742428 11.229224,-7.238673 14.755756,-11.043616 0.928035,-0.928035 -0.27841,-1.85607 -1.020838,-1.113642 -3.062515,3.155319 -7.145869,7.42428 -10.765206,9.465957 -1.577659,0.928034 -2.876908,1.484855 -4.640175,1.206445 -1.85607,-0.278411 -2.227284,-2.784105 -1.763266,-4.361764 0.556821,-2.041677 1.577659,-3.990551 2.598498,-5.939424 C 73.737116,53.875257 81.625413,36.521003 89.884925,19.352356 90.627353,17.8675 89.049693,17.58909 88.771283,18.145911 88.028855,19.259553 86.915213,21.486837 86.358392,22.600479 80.140557,34.757737 75.9644,44.687711 68.818531,55.081703 64.085552,61.949162 50.443438,82.458734 41.71991,80.973878 c -4.361765,-0.742427 -0.556821,-7.888297 0.464017,-10.022777 3.155319,-6.217835 6.125031,-12.528472 9.094743,-18.83911 5.011389,-10.301188 10.765205,-22.27284 15.498184,-32.852438 0.371214,-0.928035 0,-1.392053 -0.464018,-1.392053 -0.371214,0 -0.649624,0.185607 -0.835231,0.464018 -3.804944,6.310638 -7.42428,13.642114 -11.322027,19.859948 -7.609887,11.971651 -17.168647,25.892176 -27.191425,35.914954 -2.320087,2.320087 -5.196995,5.382603 -8.445118,6.496244 -1.113642,0.371214 -2.320087,0.556821 -3.526533,0.556821 -1.763266,0 -3.526533,-0.371214 -4.825782,-1.299248 C 9.702703,79.489023 9.0530785,79.025005 8.403454,78.560988 7.3826155,77.81856 7.0114016,79.117809 7.475419,79.67463 c 1.9488735,2.13448 4.640175,3.062515 7.331476,3.062515 3.248123,0 6.589049,-1.206446 8.909136,-3.340926 C 31.418721,72.52876 38.657394,63.712428 44.504014,55.26731 47.473726,50.905545 56.011648,38.377073 56.011648,38.377073 Z"
       id="text1"
       style="font-size:37.1214px;font-family:Propysy;-inkscape-font-specification:'Propysy, Normal';fill:#bbbbbb;stroke-width:3.09345"
       aria-label="М" />
  </g>
</svg>
