<?xml version="1.0" encoding="UTF-8" standalone="no"?>
<!-- Created with Inkscape (http://www.inkscape.org/) -->

<svg
   width="100mm"
   height="100mm"
   viewBox="0 0 100 100"
   version="1.1"
   id="svg1"
   inkscape:version="1.4.2 (f4327f4, 2025-05-13)"
   sodipodi:docname="letter-Н.svg"
   xmlns:inkscape="http://www.inkscape.org/namespaces/inkscape"
   xmlns:sodipodi="http://sodipodi.sourceforge.net/DTD/sodipodi-0.dtd"
   xmlns="http://www.w3.org/2000/svg"
   xmlns:svg="http://www.w3.org/2000/svg">
  <sodipodi:namedview
     id="namedview1"
     pagecolor="#ffffff"
     bordercolor="#000000"
     borderopacity="0.25"
     inkscape:showpageshadow="2"
     inkscape:pageopacity="0.0"
     inkscape:pagecheckerboard="0"
     inkscape:deskcolor="#d1d1d1"
     inkscape:document-units="mm"
     inkscape:zoom="0.97386896"
     inkscape:cx="188.42371"
     inkscape:cy="161.72607"
     inkscape:window-width="1196"
     inkscape:window-height="981"
     inkscape:window-x="0"
     inkscape:window-y="0"
     inkscape:window-maximized="0"
     inkscape:current-layer="layer1" />
  <defs
     id="defs1" />
  <g
     inkscape:label="Шар 1"
     inkscape:groupmode="layer"
     id="layer1">
    <path
       d="m 87.225876,21.513748 c 0,-2.969712 -1.948873,-4.640175 -4.26896,-4.640175 -1.484856,0 -2.969712,0.649624 -4.268961,2.13448 -4.825782,5.661014 -9.187547,15.869398 -12.064455,22.829661 -0.27841,0.649624 -0.649624,1.299249 -0.928035,1.85607 -0.371214,0.649624 -1.113642,1.763266 -1.763266,2.13448 -7.42428,4.268961 -13.2709,5.382603 -21.623215,8.537922 -0.278411,0.0928 -0.928035,0.27841 -1.392053,0.27841 -0.464017,0 -0.835231,-0.185607 -0.27841,-1.113642 2.320087,-5.104192 4.547371,-10.208384 6.774655,-15.40538 l 5.289799,-12.064455 c 0.835232,-2.041677 1.763267,-4.083354 2.598498,-6.032227 0.371214,-0.742428 0.835232,-1.763267 1.020839,-2.505695 0.185607,-0.928035 -0.928035,-0.835231 -1.206446,-0.556821 -0.27841,0.278411 -0.649624,0.649625 -0.835231,0.835232 -3.897747,5.104192 -9.001939,7.145869 -14.477346,9.929974 -1.113642,0.556821 -0.835231,2.041677 0.742428,1.392052 3.619337,-1.484855 7.331477,-3.619336 10.579599,-5.84662 0.928035,-0.649624 1.392052,-1.020838 1.484856,-1.020838 0.0928,0 -0.0928,0.371214 -0.464018,1.299249 -1.577659,4.361764 -3.99055,9.465956 -5.939423,13.920524 -2.969712,6.589049 -5.846621,13.178097 -9.187547,19.581538 -3.433729,6.774655 -6.12503,15.219774 -12.157258,20.231163 -2.320087,1.763266 -4.640175,2.784105 -6.774655,2.784105 -2.412891,0 -4.732978,-1.299249 -6.867459,-4.083354 -0.556821,-0.556821 -1.9488733,0.27841 -0.27841,2.320087 1.85607,2.227284 4.361764,3.248122 7.053065,3.248122 1.948874,0 3.990551,-0.556821 5.846621,-1.670462 7.42428,-4.640175 10.486795,-13.734918 14.106131,-21.159198 0.464018,-1.020838 1.299249,-1.763266 1.948874,-2.041677 7.609887,-3.248122 14.848559,-4.825782 22.55125,-8.445118 0.556821,-0.278411 1.020838,-0.556821 1.206445,-0.556821 0.278411,0 0.278411,0.371214 -0.27841,1.484856 -3.340926,6.403441 -10.950813,20.602376 -11.41483,26.26339 -0.464018,3.619336 2.320087,6.774655 5.939423,6.12503 5.104193,-0.649624 11.229224,-7.331476 14.755756,-11.043616 0.556821,-0.556821 -0.371214,-1.763266 -1.206445,-0.928035 -0.464018,0.464018 -7.981101,8.816333 -12.806883,10.393992 -2.13448,0.649625 -4.640175,-0.0928 -5.104192,-3.340926 -0.649625,-4.825782 8.630725,-21.530411 10.486795,-25.428158 0.185607,-0.371214 0.371214,-0.742428 0.556821,-1.113642 l 1.020839,-2.320088 c 0.185607,-0.371214 0.371214,-0.742428 0.556821,-1.113642 0.27841,-0.556821 0.649624,-0.928034 1.113642,-1.299248 6.496244,-3.990551 11.971651,-9.465957 16.611826,-15.498185 1.85607,-2.505694 3.155318,-5.196995 3.340925,-8.352314 z M 71.356478,40.724072 c -1.670463,1.392052 -2.784104,2.320087 -3.155318,2.320087 -0.371214,0 -0.278411,-0.649624 0.371214,-2.041677 2.876908,-6.589048 6.310637,-15.034166 10.950812,-20.602376 1.299249,-1.484856 2.505695,-2.134481 3.526533,-2.134481 2.412891,0 3.619337,3.619337 1.392053,7.702691 -3.248123,5.84662 -7.981101,10.579598 -13.085294,14.755756 z"
       id="text1"
       style="font-size:37.1214px;font-family:Propysy;-inkscape-font-specification:'Propysy, Normal';fill:#bbbbbb;stroke-width:3.09345"
       aria-label="Н" />
  </g>
</svg>
