<?xml version="1.0" encoding="UTF-8" standalone="no"?>
<!-- Created with Inkscape (http://www.inkscape.org/) -->

<svg
   width="100mm"
   height="100mm"
   viewBox="0 0 100 100"
   version="1.1"
   id="svg1"
   inkscape:version="1.4.2 (f4327f4, 2025-05-13)"
   sodipodi:docname="letter-Й.svg"
   xmlns:inkscape="http://www.inkscape.org/namespaces/inkscape"
   xmlns:sodipodi="http://sodipodi.sourceforge.net/DTD/sodipodi-0.dtd"
   xmlns="http://www.w3.org/2000/svg"
   xmlns:svg="http://www.w3.org/2000/svg">
  <sodipodi:namedview
     id="namedview1"
     pagecolor="#ffffff"
     bordercolor="#000000"
     borderopacity="0.25"
     inkscape:showpageshadow="2"
     inkscape:pageopacity="0.0"
     inkscape:pagecheckerboard="0"
     inkscape:deskcolor="#d1d1d1"
     inkscape:document-units="mm"
     inkscape:zoom="0.97386896"
     inkscape:cx="188.42371"
     inkscape:cy="161.72607"
     inkscape:window-width="1196"
     inkscape:window-height="981"
     inkscape:window-x="0"
     inkscape:window-y="0"
     inkscape:window-maximized="0"
     inkscape:current-layer="layer1" />
  <defs
     id="defs1" />
  <g
     inkscape:label="Шар 1"
     inkscape:groupmode="layer"
     id="layer1">
    <path
       d="m 58.921995,14.99732 c 2.784105,0 5.56821,-1.299249 7.42428,-3.340926 0.371214,-0.649625 -0.278411,-1.206446 -0.835232,-0.742428 -0.185607,0.0928 -1.392052,1.020838 -2.227284,1.577659 -1.299249,0.835232 -2.691301,1.392053 -4.176157,1.392053 -1.299249,0 -2.598498,-0.371214 -3.897747,-1.392053 -0.649624,-0.464017 -1.392052,-1.113642 -1.948873,-1.577659 -0.556821,-0.464018 -1.113642,0.27841 -0.928035,0.742428 0.928035,1.948873 4.547371,3.340926 6.589048,3.340926 z M 44.259042,34.671661 c 5.56821,-11.878848 3.990551,-17.075843 -0.464017,-17.075843 -3.897747,0 -10.022778,4.176157 -15.219774,11.41483 -0.928035,1.299249 0.278411,1.670463 0.835232,1.113642 0.928035,-1.020839 1.299249,-1.763267 3.897747,-4.547372 2.598498,-2.691301 7.42428,-6.589048 10.393991,-6.589048 1.948874,0 3.062516,1.577659 2.412891,6.125031 -0.742428,3.248122 -2.041677,6.403441 -3.433729,9.465957 -2.505694,5.382602 -5.011389,10.765205 -7.517083,16.147808 -0.278411,0.556821 -0.556821,1.113642 -0.742428,1.670463 l -1.670463,3.248122 c -0.185607,0.556821 -0.464018,1.113642 -0.742428,1.670463 -2.320088,5.011389 -5.2898,10.672403 -6.496245,16.147809 -0.649625,3.062515 -0.0928,9.094743 4.176157,9.094743 2.412891,0 5.196996,-1.57766 6.867459,-3.248123 3.71214,-3.804943 7.70269,-8.537921 11.41483,-14.384542 l 6.774656,-10.858009 c 0.0928,-0.185607 -2.505695,5.84662 -2.598498,6.032227 -2.598498,5.661014 -6.681852,13.363704 -3.897747,19.210324 1.020838,2.134481 2.969712,3.248123 5.104192,3.248123 5.011389,0 13.085293,-7.702691 16.055005,-11.229223 0.464018,-0.649625 -0.556821,-1.57766 -1.206445,-0.928035 -2.969712,3.340925 -11.600437,12.157258 -16.147809,10.486795 -5.84662,-2.134481 -2.13448,-12.064455 -0.185607,-16.426219 1.57766,-3.71214 3.248123,-7.331477 4.918586,-11.043616 3.526532,-7.702691 7.053065,-15.405381 10.579598,-23.108071 1.57766,-3.340926 3.155319,-6.774656 4.732979,-10.208385 0.371214,-0.649624 0.649624,-1.484856 0.649624,-1.85607 0,-0.649624 -0.835231,-0.835231 -1.206445,-0.464017 -0.649625,0.556821 -1.484856,2.784104 -1.57766,3.062515 -2.598498,5.475406 -5.289799,10.950813 -8.073904,16.240612 -7.053066,13.2709 -16.333416,30.810761 -25.706569,40.462325 -2.13448,2.227284 -4.361764,3.340926 -6.032227,3.340926 -2.227284,0 -3.71214,-1.948874 -3.155319,-6.310638 0.742428,-5.661013 6.681852,-17.261451 9.187546,-22.458446 2.784105,-5.753817 5.475407,-11.600438 8.073904,-17.447058 z"
       id="text1"
       style="font-size:37.1214px;font-family:Propysy;-inkscape-font-specification:'Propysy, Normal';fill:#bbbbbb;stroke-width:3.09345"
       aria-label="Й" />
  </g>
</svg>
