<?xml version="1.0" encoding="UTF-8" standalone="no"?>
<!-- Created with Inkscape (http://www.inkscape.org/) -->

<svg
   width="100mm"
   height="100mm"
   viewBox="0 0 100 100"
   version="1.1"
   id="svg1"
   inkscape:version="1.4.2 (f4327f4, 2025-05-13)"
   sodipodi:docname="letter-Ч.svg"
   xmlns:inkscape="http://www.inkscape.org/namespaces/inkscape"
   xmlns:sodipodi="http://sodipodi.sourceforge.net/DTD/sodipodi-0.dtd"
   xmlns="http://www.w3.org/2000/svg"
   xmlns:svg="http://www.w3.org/2000/svg">
  <sodipodi:namedview
     id="namedview1"
     pagecolor="#ffffff"
     bordercolor="#000000"
     borderopacity="0.25"
     inkscape:showpageshadow="2"
     inkscape:pageopacity="0.0"
     inkscape:pagecheckerboard="0"
     inkscape:deskcolor="#d1d1d1"
     inkscape:document-units="mm"
     inkscape:zoom="0.97386896"
     inkscape:cx="187.91029"
     inkscape:cy="161.72607"
     inkscape:window-width="1195"
     inkscape:window-height="981"
     inkscape:window-x="0"
     inkscape:window-y="0"
     inkscape:window-maximized="0"
     inkscape:current-layer="layer1" />
  <defs
     id="defs1" />
  <g
     inkscape:label="Шар 1"
     inkscape:groupmode="layer"
     id="layer1">
    <path
       d="M 37.699791,12.917076 C 33.8064,14.323023 26.560367,21.352757 25.58702,25.029848 c -0.2163,0.865198 0.757048,1.838546 1.297797,0.757048 0.648898,-1.081497 1.189647,-2.054845 1.946695,-3.028193 3.136343,-4.00154 8.54383,-9.625327 13.843168,-8.760129 1.838545,0.324449 2.271144,2.271144 2.379294,3.677091 0.2163,3.028193 -0.648898,5.191188 -1.622246,8.003081 -2.920043,8.327531 -20.332153,34.28347 -1.081498,30.822679 5.083039,-0.865198 10.490526,-6.164536 17.30396,-15.357265 0.10815,-0.108149 1.514097,-1.946695 1.622246,-1.946695 0.2163,0 -0.757048,2.054845 -0.865198,2.379294 L 46.67622,71.20979 c -1.514096,3.568942 -5.299337,12.220922 -1.622246,15.249115 0.973348,0.865198 2.703744,1.189647 4.43414,1.189647 1.838546,0 3.785241,-0.432599 4.974888,-0.973348 4.974889,-2.487444 10.814975,-8.219381 14.708366,-12.112772 0.865198,-0.865198 -0.648899,-1.946695 -1.405947,-1.081497 -4.21784,4.43414 -12.004622,12.437221 -18.709906,12.437221 -1.622246,0 -3.028193,-0.540749 -3.568942,-2.054845 -1.838546,-5.299338 9.192729,-25.090742 11.680173,-30.498229 6.056386,-13.194269 11.788322,-26.496688 17.952858,-39.582808 0.432599,-0.865198 0,-1.405947 -0.540749,-1.405947 -0.324449,0 -0.865198,0.2163 -1.189647,0.973348 -5.407487,10.923125 -20.440302,41.637653 -34.28347,41.637653 -3.352642,0 -5.299338,-2.162995 -2.920043,-8.65198 3.352642,-9.084579 14.383916,-26.604838 9.733477,-32.444924 -0.865198,-1.081498 -2.054845,-1.730396 -3.460792,-1.838546 -1.622246,-0.10815 -3.244492,0.324449 -4.758589,0.865198 z"
       id="text1"
       style="font-size:43.2599px;font-family:Propysy;-inkscape-font-specification:'Propysy, Normal';fill:#bbbbbb;stroke-width:3.605"
       aria-label="Ч" />
  </g>
</svg>
