<?xml version="1.0" encoding="UTF-8" standalone="no"?>
<!-- Created with Inkscape (http://www.inkscape.org/) -->

<svg
   width="100mm"
   height="100mm"
   viewBox="0 0 100 100"
   version="1.1"
   id="svg1"
   inkscape:version="1.4.2 (f4327f4, 2025-05-13)"
   sodipodi:docname="letter-А.svg"
   xmlns:inkscape="http://www.inkscape.org/namespaces/inkscape"
   xmlns:sodipodi="http://sodipodi.sourceforge.net/DTD/sodipodi-0.dtd"
   xmlns="http://www.w3.org/2000/svg"
   xmlns:svg="http://www.w3.org/2000/svg">
  <sodipodi:namedview
     id="namedview1"
     pagecolor="#ffffff"
     bordercolor="#000000"
     borderopacity="0.25"
     inkscape:showpageshadow="2"
     inkscape:pageopacity="0.0"
     inkscape:pagecheckerboard="0"
     inkscape:deskcolor="#d1d1d1"
     inkscape:document-units="mm"
     inkscape:zoom="0.97386896"
     inkscape:cx="-28.237885"
     inkscape:cy="319.85823"
     inkscape:window-width="1920"
     inkscape:window-height="991"
     inkscape:window-x="-9"
     inkscape:window-y="-9"
     inkscape:window-maximized="1"
     inkscape:current-layer="layer1" />
  <defs
     id="defs1" />
  <g
     inkscape:label="Шар 1"
     inkscape:groupmode="layer"
     id="layer1">
    <path
       d="m 57.031679,67.203135 c -1.602228,3.304595 -3.90543,7.009748 -4.606405,10.815039 -0.700975,3.90543 1.001392,5.207241 3.404734,5.207241 2.303203,0 5.107102,-1.201671 7.109887,-2.603621 3.004177,-2.203063 7.911,-6.60919 10.61476,-9.513228 0.600835,-0.600836 -0.700975,-1.702367 -1.40195,-0.901253 0,0 -8.011139,8.311557 -11.616152,10.214203 -1.30181,0.700974 -2.904038,1.401949 -4.205849,1.401949 -1.001392,0 -1.902645,-0.400557 -2.303202,-1.502088 -0.700975,-1.902646 1.802506,-6.70933 2.203063,-7.610583 1.40195,-3.104317 8.311558,-16.422837 8.311558,-16.422837 0.400557,0 8.912392,0.600836 8.812253,-0.700974 0.300418,-1.40195 -5.107101,-0.801114 -8.011139,-1.101532 3.705152,-7.911 7.510443,-15.621722 11.215595,-23.332444 1.30181,-2.70376 2.60362,-5.40752 3.805291,-8.111279 0.300418,-0.700975 0.700975,-1.40195 1.001393,-2.102924 l 2.102924,-4.205849 c 0.300418,-0.700974 0.700975,-1.401949 1.001393,-2.102924 0.300417,-0.801114 -0.500697,-1.502089 -1.301811,-1.30181 -0.600835,0.200278 -1.001392,1.201671 -1.502088,1.902646 -6.408912,9.913785 -12.817824,19.82757 -19.827571,29.541077 -2.102924,3.004178 -4.506266,6.108494 -6.70933,9.112672 -0.400557,0.600835 -8.912392,-1.40195 -8.011139,0.901253 0.400557,1.001392 4.906823,0.801114 6.408911,1.101531 -5.908215,7.310165 -18.826178,25.535508 -28.339406,25.535508 -1.902646,0 -3.605013,-0.700975 -5.207241,-2.403342 -3.504874,0.500697 1.40195,3.805292 2.70376,4.00557 4.305987,1.001393 8.511836,-1.101532 12.016709,-3.504873 8.01114,-5.808077 20.027849,-22.331052 20.828963,-23.432584 0.200279,-0.300418 6.909608,0.400557 7.009748,0.200278 -1.502089,3.605013 -3.805292,7.310165 -5.507659,10.915178 z M 76.658971,26.646741 c -1.602228,4.506266 -13.018102,26.937457 -13.518798,27.738571 -0.200278,0 -3.90543,0 -5.707937,-0.200279 4.00557,-5.607797 7.911001,-11.315734 11.816431,-16.923532 1.40195,-1.902646 7.510444,-10.915178 7.410304,-10.61476 z"
       id="text1"
       style="font-size:40.0557px;font-family:Propysy;-inkscape-font-specification:'Propysy, Normal';fill:#bbbbbb;stroke-width:3.33798"
       aria-label="А&#10;" />
  </g>
</svg>
