<?xml version="1.0" encoding="UTF-8" standalone="no"?>
<!-- Created with Inkscape (http://www.inkscape.org/) -->

<svg
   width="100mm"
   height="100mm"
   viewBox="0 0 100 100"
   version="1.1"
   id="svg1"
   inkscape:version="1.4.2 (f4327f4, 2025-05-13)"
   sodipodi:docname="letter-Ф.svg"
   xmlns:inkscape="http://www.inkscape.org/namespaces/inkscape"
   xmlns:sodipodi="http://sodipodi.sourceforge.net/DTD/sodipodi-0.dtd"
   xmlns="http://www.w3.org/2000/svg"
   xmlns:svg="http://www.w3.org/2000/svg">
  <sodipodi:namedview
     id="namedview1"
     pagecolor="#ffffff"
     bordercolor="#000000"
     borderopacity="0.25"
     inkscape:showpageshadow="2"
     inkscape:pageopacity="0.0"
     inkscape:pagecheckerboard="0"
     inkscape:deskcolor="#d1d1d1"
     inkscape:document-units="mm"
     inkscape:zoom="0.97386896"
     inkscape:cx="187.91029"
     inkscape:cy="161.72607"
     inkscape:window-width="1195"
     inkscape:window-height="981"
     inkscape:window-x="0"
     inkscape:window-y="0"
     inkscape:window-maximized="0"
     inkscape:current-layer="layer1" />
  <defs
     id="defs1" />
  <g
     inkscape:label="Шар 1"
     inkscape:groupmode="layer"
     id="layer1">
    <path
       d="m 45.424408,59.997672 c -2.325631,5.023363 -5.116389,11.070004 -8.744373,15.349165 -2.418657,2.883783 -6.325717,5.302439 -10.139752,5.302439 -4.093111,0 -6.046641,-2.232606 -7.069919,-6.046641 -0.279075,-0.744202 -1.302353,-0.279076 -1.209328,0.372101 0.279076,3.72101 3.255884,6.232692 5.860591,6.790843 6.697817,1.395379 12.000256,-3.534959 13.023534,-4.651262 7.814121,-8.930424 12.372358,-23.349337 16.093368,-30.512281 0.837227,6.232692 4.372186,8.837399 8.372272,8.837399 3.348908,0 7.069918,-1.953531 9.76765,-5.116389 5.860591,-7.069919 13.767737,-22.605135 9.674626,-30.047154 -1.302353,-2.325631 -3.162858,-3.255884 -5.209414,-3.255884 -3.348909,0 -7.069918,2.511682 -9.39555,4.651262 0,0 -2.790757,2.790758 -3.441934,3.72101 0,-0.372101 3.441934,-6.511767 3.627985,-7.907146 0,-0.558151 -1.023278,-0.651176 -1.302354,-0.09302 -1.95353,3.627985 -3.721009,7.62807 -5.767565,11.16303 0,-4.651263 -0.09302,-10.604878 -5.395464,-11.628156 -4.372187,-0.465126 -7.907146,1.395379 -10.976979,4.186136 -6.511767,5.953616 -10.697903,13.209585 -12.651433,22.233034 -1.302354,5.767565 0.558151,12.558408 7.069918,12.558408 1.395379,0 3.069833,-0.279076 4.930338,-1.023278 2.976808,-1.116303 6.976894,-5.302439 7.255969,-5.302439 0.279076,0.465126 -3.90706,9.39555 -4.372186,10.418828 z m 11.34908,-26.047069 c -1.95353,6.790843 -6.418742,13.860761 -12.372358,18.046898 -2.325631,1.674454 -4.651262,2.418656 -6.604792,2.418656 -4.093111,0 -6.790843,-3.348909 -5.953616,-9.5816 1.395379,-9.767651 5.767565,-16.279418 12.744459,-22.884211 1.860505,-1.767479 4.930338,-3.627984 7.81412,-3.627984 1.023278,0 2.046556,0.279075 2.883783,0.744202 4.093111,2.325631 2.697732,11.628155 1.488404,14.884039 z m 13.48866,15.349165 c -2.232605,2.883783 -5.581514,4.558237 -8.558322,4.558237 -2.976808,0 -5.67454,-1.674454 -6.604793,-5.395464 -2.13958,-8.465297 8.372273,-21.953958 12.744459,-25.954043 2.511682,-2.325631 5.67454,-4.093111 8.279247,-4.093111 1.488404,0 2.697732,0.558151 3.627985,2.046555 4.465211,7.348995 -4.465212,22.605135 -9.488576,28.837826 z"
       id="text1"
       style="font-size:37.2101px;font-family:Propysy;-inkscape-font-specification:'Propysy, Normal';fill:#bbbbbb;stroke-width:3.10085"
       aria-label="Ф" />
  </g>
</svg>
