<?xml version="1.0" encoding="UTF-8" standalone="no"?>
<!-- Created with Inkscape (http://www.inkscape.org/) -->

<svg
   width="100mm"
   height="100mm"
   viewBox="0 0 100 100"
   version="1.1"
   id="svg1"
   inkscape:version="1.4.2 (f4327f4, 2025-05-13)"
   sodipodi:docname="letter-Д.svg"
   xmlns:inkscape="http://www.inkscape.org/namespaces/inkscape"
   xmlns:sodipodi="http://sodipodi.sourceforge.net/DTD/sodipodi-0.dtd"
   xmlns="http://www.w3.org/2000/svg"
   xmlns:svg="http://www.w3.org/2000/svg">
  <sodipodi:namedview
     id="namedview1"
     pagecolor="#ffffff"
     bordercolor="#000000"
     borderopacity="0.25"
     inkscape:showpageshadow="2"
     inkscape:pageopacity="0.0"
     inkscape:pagecheckerboard="0"
     inkscape:deskcolor="#d1d1d1"
     inkscape:document-units="mm"
     inkscape:zoom="0.97386896"
     inkscape:cx="-28.237885"
     inkscape:cy="319.85823"
     inkscape:window-width="1920"
     inkscape:window-height="991"
     inkscape:window-x="-9"
     inkscape:window-y="-9"
     inkscape:window-maximized="1"
     inkscape:current-layer="layer1" />
  <defs
     id="defs1" />
  <g
     inkscape:label="Шар 1"
     inkscape:groupmode="layer"
     id="layer1">
    <path
       d="M 75.831725,65.843855 C 90.852612,31.496094 77.534092,13.771447 61.311534,13.771447 c -8.511836,0 -17.924925,5.006962 -24.233697,15.020887 -0.400557,0.600836 -2.203064,3.204456 -2.102925,4.406127 0,0.300418 0.200279,0.500696 0.500697,0.600835 0.300417,0.10014 0.500696,0 0.700974,-0.200278 0.801114,-1.101532 1.40195,-2.303203 2.002785,-3.404734 4.606406,-7.810862 14.319912,-14.820609 22.531331,-14.820609 1.702367,0 3.304595,0.300418 4.806683,0.901253 0.901254,0.400557 1.101532,0.500697 0.700975,1.40195 L 42.485356,69.949564 c -1.30181,2.303203 -2.803899,4.406127 -4.806684,6.208633 -0.300418,0.200279 -0.700975,0.300418 -1.201671,0.300418 -1.902646,0 -4.706545,-1.401949 -5.107102,-1.602228 -3.204455,-1.201671 -7.210025,-2.303202 -10.714899,-2.102924 -4.906823,0 -8.511836,5.207241 -4.305987,9.012532 1.802506,1.602228 6.008354,2.102924 8.411696,2.002785 4.00557,-0.200278 5.107102,-0.801114 8.912393,-2.60362 1.902646,-0.801114 2.904038,-2.603621 5.30738,-1.802507 2.803899,1.001393 9.713507,3.705152 11.91657,3.905431 1.602228,0.500696 3.304596,0.700975 5.006963,0.700975 6.909608,0 14.019494,-4.406127 19.92771,-18.125204 z m 1.401949,-8.311557 c -3.204456,8.211418 -9.413089,24.233697 -20.228128,24.634254 -7.710721,0.200279 -8.611975,-1.401949 -16.823393,-4.205848 -1.502089,-0.600836 -1.602228,-0.100139 -0.400557,-1.502089 2.70376,-3.104316 3.905431,-4.906823 5.707937,-8.812253 L 65.917939,22.283283 c 0.600836,-1.30181 1.301811,-2.803899 2.102925,-4.105709 0.400557,-0.600835 0.901253,-0.901253 1.702367,-0.500696 0.400557,0.100139 0.901253,0.300418 1.201671,0.500696 14.119633,8.411697 9.913785,29.941635 6.308772,39.354724 z M 21.856671,82.066413 c -6.108494,-0.600836 -7.911,-5.908216 -2.102924,-7.610583 3.404734,-0.801114 13.018102,2.002785 15.221165,3.805292 -0.300417,0.200278 -0.801114,0.600835 -1.201671,0.901253 -4.105709,2.703759 -7.410304,2.904038 -11.91657,2.904038 z"
       id="text1"
       style="font-size:40.0557px;font-family:Propysy;-inkscape-font-specification:'Propysy, Normal';fill:#bbbbbb;stroke-width:3.33798"
       aria-label="Д" />
  </g>
</svg>
