<?xml version="1.0" encoding="UTF-8" standalone="no"?>
<!-- Created with Inkscape (http://www.inkscape.org/) -->

<svg
   width="100mm"
   height="100mm"
   viewBox="0 0 100 100"
   version="1.1"
   id="svg1"
   inkscape:version="1.4.2 (f4327f4, 2025-05-13)"
   sodipodi:docname="letter-П.svg"
   xmlns:inkscape="http://www.inkscape.org/namespaces/inkscape"
   xmlns:sodipodi="http://sodipodi.sourceforge.net/DTD/sodipodi-0.dtd"
   xmlns="http://www.w3.org/2000/svg"
   xmlns:svg="http://www.w3.org/2000/svg">
  <sodipodi:namedview
     id="namedview1"
     pagecolor="#ffffff"
     bordercolor="#000000"
     borderopacity="0.25"
     inkscape:showpageshadow="2"
     inkscape:pageopacity="0.0"
     inkscape:pagecheckerboard="0"
     inkscape:deskcolor="#d1d1d1"
     inkscape:document-units="mm"
     inkscape:zoom="0.97386896"
     inkscape:cx="187.91029"
     inkscape:cy="161.72607"
     inkscape:window-width="1195"
     inkscape:window-height="981"
     inkscape:window-x="0"
     inkscape:window-y="0"
     inkscape:window-maximized="0"
     inkscape:current-layer="layer1" />
  <defs
     id="defs1" />
  <g
     inkscape:label="Шар 1"
     inkscape:groupmode="layer"
     id="layer1">
    <path
       d="m 91.169331,18.139183 c -13.642114,0 -27.191425,0 -40.833539,0 -4.547371,0 -8.723528,0 -12.806882,2.412891 -3.71214,2.227284 -6.125031,7.795494 -3.619337,11.971651 0.278411,0.556821 1.206446,0.649625 1.299249,-0.0928 -0.185607,-0.742428 -0.649624,-1.57766 -0.835231,-2.412891 -1.020839,-3.897747 1.948873,-7.702691 5.382603,-9.094743 5.011389,-2.041677 9.373153,-1.392052 14.941363,-1.392052 0.928035,0 1.299249,0.928034 0.928035,1.856069 -1.299249,2.876909 -2.598498,5.661014 -3.897747,8.445119 -9.28035,19.767145 -17.261451,41.019146 -24.500123,48.072211 -2.134481,2.041677 -5.382603,3.804944 -8.352315,3.804944 -1.670463,0 -3.340926,-0.556821 -4.547372,-2.041677 -0.464017,-0.556821 -0.742428,-1.206446 -1.299249,-1.763267 -0.464017,-0.464017 -1.392052,0 -0.835231,1.020839 1.577659,2.876908 3.897747,4.176157 7.053066,4.176157 2.505694,0 5.939424,-0.928035 9.55876,-4.547371 6.774655,-6.774656 15.776595,-29.97553 20.509573,-39.998308 2.320087,-5.011388 4.732978,-10.115581 7.145869,-15.219773 0.464018,-0.928035 0.835232,-1.948874 1.484856,-2.784105 0.371214,-0.556821 0.835232,-0.928035 1.484856,-0.928035 5.104192,0 10.301188,0 15.405381,0 1.113642,0 1.392052,1.020838 0.928035,2.13448 L 53.955129,68.902696 c -1.57766,3.433729 -5.2898,12.528472 0.464017,13.920525 3.248123,0.835231 6.125031,-0.464018 8.630725,-2.412891 2.969712,-2.320088 6.217835,-5.56821 8.816333,-8.445119 0.742428,-0.835231 -0.464018,-1.670462 -1.020839,-1.113641 -2.876908,2.969711 -5.382603,5.661013 -8.723528,8.352314 -1.392053,1.113642 -3.990551,2.412891 -6.125031,2.412891 -1.948874,0 -3.43373,-1.113642 -3.155319,-4.361764 0.185607,-2.691302 1.670463,-6.217834 2.876908,-8.723529 L 77.0632,22.408144 c 0.556821,-1.113642 1.206445,-2.691302 1.948873,-2.784105 1.85607,-0.0928 8.909136,0.0928 12.250062,-0.0928 1.113642,-0.0928 1.113642,-1.392053 -0.0928,-1.392053 z"
       id="text1"
       style="font-size:37.1214px;font-family:Propysy;-inkscape-font-specification:'Propysy, Normal';fill:#bbbbbb;stroke-width:3.09345"
       aria-label="П" />
  </g>
</svg>
