<?xml version="1.0" encoding="UTF-8" standalone="no"?>
<!-- Created with Inkscape (http://www.inkscape.org/) -->

<svg
   width="100mm"
   height="100mm"
   viewBox="0 0 100 100"
   version="1.1"
   id="svg1"
   inkscape:version="1.4.2 (f4327f4, 2025-05-13)"
   sodipodi:docname="letter-Щ.svg"
   xmlns:inkscape="http://www.inkscape.org/namespaces/inkscape"
   xmlns:sodipodi="http://sodipodi.sourceforge.net/DTD/sodipodi-0.dtd"
   xmlns="http://www.w3.org/2000/svg"
   xmlns:svg="http://www.w3.org/2000/svg">
  <sodipodi:namedview
     id="namedview1"
     pagecolor="#ffffff"
     bordercolor="#000000"
     borderopacity="0.25"
     inkscape:showpageshadow="2"
     inkscape:pageopacity="0.0"
     inkscape:pagecheckerboard="0"
     inkscape:deskcolor="#d1d1d1"
     inkscape:document-units="mm"
     inkscape:zoom="0.97386896"
     inkscape:cx="187.91029"
     inkscape:cy="161.72607"
     inkscape:window-width="1195"
     inkscape:window-height="981"
     inkscape:window-x="0"
     inkscape:window-y="0"
     inkscape:window-maximized="0"
     inkscape:current-layer="layer1" />
  <defs
     id="defs1" />
  <g
     inkscape:label="Шар 1"
     inkscape:groupmode="layer"
     id="layer1">
    <path
       d="m 57.848518,74.683958 c 0,1.674455 0.279076,4.279162 2.418657,4.279162 2.046555,0 4.837313,-2.139581 5.86059,-3.069834 2.697732,-2.511681 2.604707,-3.348908 2.046556,-0.279075 -0.372101,1.860505 -0.186051,2.232606 -1.581429,3.441934 -2.046556,1.674454 -4.186137,3.72101 -5.67454,5.86059 -1.395379,1.95353 -0.651177,4.651263 1.860504,5.023363 0.558152,0.09303 1.023278,0.09303 1.488404,-0.18605 1.302354,-0.651177 1.76748,-2.325631 2.232606,-3.627985 0.651177,-1.860504 1.116303,-3.534959 1.581429,-5.302439 0.186051,-0.744202 0.651177,-1.674454 1.302354,-2.13958 0.930252,-0.837227 1.674454,-1.488404 2.604707,-2.232606 3.255883,-2.604707 6.139666,-5.48849 9.5816,-8.651348 0.744202,-0.651177 -0.465126,-1.581429 -1.023278,-1.116303 -0.930252,0.837227 -8.186221,7.814121 -10.139751,9.209499 -0.651177,0.465127 -0.930253,0.744202 -1.023278,0.744202 -0.09303,0 0.18605,-0.558151 0.465126,-2.046555 0.279076,-1.674454 0.837227,-3.069833 1.302354,-4.651262 0.279075,-1.116303 -0.744202,-1.674455 -1.395379,-0.744202 -1.95353,2.790757 -5.116389,6.604792 -8.000171,8.093196 -0.465126,0.279076 -0.837227,0.372101 -1.116303,0.372101 -0.930253,0 -1.209328,-0.930252 -1.302354,-2.232606 -0.279075,-5.209414 4.000086,-14.791014 6.232692,-19.628327 2.418656,-5.395464 2.232606,-5.023363 4.837313,-10.232777 4.744287,-9.488575 7.721095,-16.000342 13.860761,-28.465725 0.279076,-0.558151 1.023278,-2.232606 1.023278,-2.232606 0.465126,-0.837227 -0.651177,-1.674454 -1.302354,-0.372101 -4.744287,8.930424 -8.744373,17.02362 -12.930509,25.488918 -2.883782,5.86059 -6.418742,11.907231 -9.5816,17.395721 -1.488404,2.697732 -13.674711,20.279503 -19.535302,20.279503 -1.023277,0 -1.860504,-0.651177 -2.418656,-1.95353 -0.651177,-1.581429 -0.558151,-4.279161 -0.279076,-5.860591 0.372101,-2.046555 2.232606,-6.976893 3.069833,-8.837398 7.162944,-16.372443 14.046813,-30.047154 21.488832,-46.326572 0.09302,-1.023278 -1.023278,-0.930253 -1.302353,-0.372101 -4.093111,8.279247 -7.62807,15.628241 -10.232777,20.93068 -6.418742,13.209585 -10.604878,22.326059 -20.093453,33.675139 -1.209329,1.395379 -7.814121,8.837398 -11.814207,8.837398 -1.023277,0 -1.860504,-0.465126 -2.418656,-1.674454 -1.116303,-2.325631 -0.372101,-5.209414 0.372101,-7.535045 2.697732,-8.837398 7.348994,-17.581771 11.34908,-25.861018 2.790757,-5.860591 6.604792,-12.186307 8.465297,-18.418999 0.558152,-2.139581 1.302354,-6.511767 -0.279075,-8.465297 -1.023278,-1.395379 -2.697732,-1.95353 -4.465212,-1.95353 -4.093111,0 -6.511767,2.325631 -9.209499,5.023363 -2.046556,1.95353 -4.000086,4.186136 -5.953616,6.511767 -0.465126,0.558151 0.372101,1.581429 0.930252,0.930252 1.302354,-1.395378 4.465212,-5.023363 6.046641,-6.511767 1.116303,-1.023277 2.604707,-2.418656 3.814035,-3.255883 1.023278,-0.651177 2.883783,-1.488404 4.558237,-1.488404 1.76748,0 3.348909,0.837227 3.814035,3.348909 0.279076,1.767479 -0.09303,3.534959 -0.558151,5.116388 -0.930253,3.162858 -2.232606,5.953616 -3.627985,8.930424 -4.372186,9.023449 -15.44219,29.861104 -17.02362,39.256653 -0.279075,1.488404 -0.18605,3.069833 0.465127,4.651263 0.744202,1.860505 2.325631,2.604707 4.000085,2.604707 1.116303,0 2.232606,-0.279076 3.255884,-0.837228 6.325716,-3.90706 10.790928,-9.76765 15.25614,-15.535216 0.930253,-1.209328 1.302354,-1.767479 1.395379,-1.767479 0.18605,0 -0.186051,0.744202 -0.651177,2.046555 -0.651177,1.860505 -1.76748,4.651262 -2.232606,7.162944 -0.372101,1.95353 -0.372101,3.90706 0.279076,5.86059 0.744202,1.860505 1.95353,3.162859 4.093111,3.162859 6.046641,0 14.697988,-12.093282 17.116645,-15.349166 1.488404,-1.95353 2.046555,-2.604707 2.232606,-2.604707 0.18605,0 -0.279076,1.116303 -0.744202,2.325631 -1.395379,3.72101 -2.418657,6.883869 -2.790758,11.256055 z m 6.418742,12.651434 c -0.372101,0.744202 -0.837227,1.023277 -1.302353,1.023277 -0.930252,0 -1.674454,-1.116303 -1.023278,-2.046555 0.372101,-0.558152 3.441934,-4.372187 4.000086,-4.372187 0.18605,0 0.09302,0.465127 -0.279076,1.674455 -0.372101,1.302353 -0.837227,2.604707 -1.395379,3.72101 z"
       id="text1"
       style="font-size:37.2101px;font-family:Propysy;-inkscape-font-specification:'Propysy, Normal';fill:#bbbbbb;stroke-width:3.10085"
       aria-label="Щ" />
  </g>
</svg>
