<?xml version="1.0" encoding="UTF-8" standalone="no"?>
<!-- Created with Inkscape (http://www.inkscape.org/) -->

<svg
   width="100mm"
   height="100mm"
   viewBox="0 0 100 100"
   version="1.1"
   id="svg1"
   inkscape:version="1.4.2 (f4327f4, 2025-05-13)"
   sodipodi:docname="letter-Я.svg"
   xmlns:inkscape="http://www.inkscape.org/namespaces/inkscape"
   xmlns:sodipodi="http://sodipodi.sourceforge.net/DTD/sodipodi-0.dtd"
   xmlns="http://www.w3.org/2000/svg"
   xmlns:svg="http://www.w3.org/2000/svg">
  <sodipodi:namedview
     id="namedview1"
     pagecolor="#ffffff"
     bordercolor="#000000"
     borderopacity="0.25"
     inkscape:showpageshadow="2"
     inkscape:pageopacity="0.0"
     inkscape:pagecheckerboard="0"
     inkscape:deskcolor="#d1d1d1"
     inkscape:document-units="mm"
     inkscape:zoom="0.97386896"
     inkscape:cx="187.91029"
     inkscape:cy="161.72607"
     inkscape:window-width="1195"
     inkscape:window-height="981"
     inkscape:window-x="0"
     inkscape:window-y="0"
     inkscape:window-maximized="0"
     inkscape:current-layer="layer1" />
  <defs
     id="defs1" />
  <g
     inkscape:label="Шар 1"
     inkscape:groupmode="layer"
     id="layer1">
    <path
       d="m 54.588977,54.919256 c 2.254505,-1.127252 3.484235,-2.04955 3.68919,-2.04955 0.204955,0 -0.204955,0.512388 -1.024775,1.537163 -4.611487,5.841217 -12.2973,13.93694 -17.523653,19.163293 -3.586712,3.484235 -11.784913,10.555183 -17.113743,10.555183 -3.586712,0 -4.816442,-3.586713 -5.226352,-6.558561 -0.102478,-1.127252 -1.434685,-1.127252 -1.434685,0 -0.102478,2.254505 0.922297,4.816443 2.356982,6.353606 1.22973,1.332207 2.766893,1.844595 4.304055,1.844595 1.537163,0 3.074325,-0.40991 4.406533,-1.024775 2.45946,-1.024775 4.611488,-2.45946 6.763515,-3.894145 8.710588,-6.046173 19.163293,-18.548428 26.029286,-26.541674 1.537162,-1.742117 2.561937,-3.176802 2.766892,-3.176802 0.204955,0 -0.204955,0.922297 -1.332207,3.586712 -2.971848,6.661038 -5.943695,13.014643 -9.222975,19.880636 -1.332208,2.86937 -2.766893,6.353605 -1.127253,9.325453 0.81982,1.332207 2.356983,1.844595 3.996623,1.844595 6.14865,0 15.064193,-8.198201 19.060815,-12.194823 0.922298,-0.922298 -0.512387,-1.844595 -1.127252,-1.22973 -3.68919,3.586712 -12.502256,11.784913 -18.138518,11.784913 -1.947073,0 -3.27928,-1.22973 -2.45946,-5.021398 0.512387,-1.537163 1.024775,-2.971848 1.63964,-4.406533 3.381757,-7.37838 6.763515,-14.654283 10.24775,-21.930185 L 79.49101,20.589293 c 0.717343,-1.63964 1.537163,-3.176803 2.152028,-4.91892 0.40991,-1.332208 -1.127253,-1.332208 -1.434685,-0.614865 -1.024775,2.152027 -5.431308,11.88739 -6.14865,12.809688 -0.102478,-0.102478 0.102477,-2.766893 0.102477,-2.869371 0,-2.766892 0.102478,-3.791667 -1.22973,-6.353605 -1.742117,-3.176802 -4.713965,-4.406532 -7.890768,-4.406532 -4.406532,0 -9.42793,2.356982 -12.399777,4.91892 -7.993246,6.14865 -13.219598,15.98649 -14.654283,25.824331 -0.307433,2.254505 -0.307433,3.68919 0.204955,5.841217 1.024775,4.304055 4.816442,5.841218 8.813065,5.841218 2.664415,0 5.431308,-0.717343 7.583335,-1.742118 z m -14.449328,-3.68919 c -1.63964,-4.304055 -0.204955,-8.915543 1.332208,-13.424553 2.152027,-6.456082 6.55856,-12.809688 11.989868,-17.011265 2.356982,-2.152028 7.480857,-4.713965 11.784912,-4.713965 2.766893,0 5.123876,1.024775 6.251128,3.791667 1.742118,3.996623 0.614865,9.735363 -0.81982,13.834463 -3.176802,10.042795 -12.809688,21.315321 -24.184691,21.315321 -2.86937,0 -5.32883,-1.024775 -6.353605,-3.791668 z"
       id="text1"
       style="font-size:40.991px;font-family:Propysy;-inkscape-font-specification:'Propysy, Normal';fill:#bbbbbb;stroke-width:3.41592"
       aria-label="Я" />
  </g>
</svg>
