<?xml version="1.0" encoding="UTF-8" standalone="no"?>
<!-- Created with Inkscape (http://www.inkscape.org/) -->

<svg
   width="100mm"
   height="100mm"
   viewBox="0 0 100 100"
   version="1.1"
   id="svg1"
   inkscape:version="1.4.2 (f4327f4, 2025-05-13)"
   sodipodi:docname="letter-Х.svg"
   xmlns:inkscape="http://www.inkscape.org/namespaces/inkscape"
   xmlns:sodipodi="http://sodipodi.sourceforge.net/DTD/sodipodi-0.dtd"
   xmlns="http://www.w3.org/2000/svg"
   xmlns:svg="http://www.w3.org/2000/svg">
  <sodipodi:namedview
     id="namedview1"
     pagecolor="#ffffff"
     bordercolor="#000000"
     borderopacity="0.25"
     inkscape:showpageshadow="2"
     inkscape:pageopacity="0.0"
     inkscape:pagecheckerboard="0"
     inkscape:deskcolor="#d1d1d1"
     inkscape:document-units="mm"
     inkscape:zoom="0.97386896"
     inkscape:cx="187.91029"
     inkscape:cy="161.72607"
     inkscape:window-width="1195"
     inkscape:window-height="981"
     inkscape:window-x="0"
     inkscape:window-y="0"
     inkscape:window-maximized="0"
     inkscape:current-layer="layer1" />
  <defs
     id="defs1" />
  <g
     inkscape:label="Шар 1"
     inkscape:groupmode="layer"
     id="layer1">
    <path
       d="m 49.055477,56.950018 c 0,0.09302 -0.837227,8.465297 -0.558151,12.465382 0.279075,4.186137 1.209328,11.628156 6.604792,11.628156 5.48849,0 12.930509,-7.62807 16.279418,-11.163029 0.558152,-0.558152 -0.372101,-1.860505 -1.302353,-0.837228 -3.069833,3.255884 -9.860676,10.325803 -14.604964,10.325803 -2.418656,0 -4.372186,-1.860505 -5.023363,-6.883868 -0.465126,-3.72101 -0.465126,-7.721096 -0.09303,-11.442106 1.116303,-9.953701 6.790843,-19.442276 12.186307,-27.721523 4.372186,-6.511767 10.418827,-14.325888 18.698074,-15.628241 1.95353,-0.279076 3.441934,0.465126 4.558237,2.046555 1.209328,1.95353 0.930253,2.976808 1.116303,5.023364 0,0.744202 0.372101,1.116302 0.744202,1.116302 0.465126,0 0.837227,-0.3721 0.837227,-0.930252 0.09303,-1.76748 -0.09302,-3.441934 -0.744202,-5.023363 -1.209328,-2.790758 -3.441934,-3.907061 -5.86059,-3.907061 -1.302354,0 -2.604707,0.279076 -3.90706,0.744202 -9.023449,3.627985 -14.418914,11.256055 -19.256226,19.256226 -0.279076,0.372101 -2.883783,4.837313 -2.976808,4.930338 -0.09303,-0.09302 1.581429,-7.348994 1.95353,-9.39555 0.558151,-3.162858 1.023278,-8.465297 0.09302,-10.976979 -1.302353,-3.348908 -3.72101,-4.558237 -6.604792,-4.558237 -6.511767,0 -15.163115,6.418742 -16.186393,8.744374 -0.279076,0.651176 0.651177,1.395378 1.488404,0.558151 5.116388,-4.930338 10.604878,-7.814121 14.511938,-7.814121 3.348909,0 5.581515,2.046556 5.581515,6.511768 0,16.651519 -9.674626,37.768249 -22.512109,49.024304 -2.511682,2.232606 -7.348995,6.046641 -10.790929,6.511767 -5.581515,0.744202 -6.511767,-2.790757 -7.62807,-4.372186 -0.372101,-0.465127 -1.581429,-0.186051 -1.023278,1.116303 1.488404,3.069833 3.72101,4.744287 7.348995,4.744287 8.558322,0 19.256226,-12.558408 23.721437,-19.070175 0.279076,-0.372101 3.255884,-5.023363 3.348909,-5.023363 z"
       id="text1"
       style="font-size:37.2101px;font-family:Propysy;-inkscape-font-specification:'Propysy, Normal';fill:#bbbbbb;stroke-width:3.10085"
       aria-label="Х" />
  </g>
</svg>
