<?xml version="1.0" encoding="UTF-8" standalone="no"?>
<!-- Created with Inkscape (http://www.inkscape.org/) -->

<svg
   width="100mm"
   height="100mm"
   viewBox="0 0 100 100"
   version="1.1"
   id="svg1"
   inkscape:version="1.4.2 (f4327f4, 2025-05-13)"
   sodipodi:docname="letter-В.svg"
   xmlns:inkscape="http://www.inkscape.org/namespaces/inkscape"
   xmlns:sodipodi="http://sodipodi.sourceforge.net/DTD/sodipodi-0.dtd"
   xmlns="http://www.w3.org/2000/svg"
   xmlns:svg="http://www.w3.org/2000/svg">
  <sodipodi:namedview
     id="namedview1"
     pagecolor="#ffffff"
     bordercolor="#000000"
     borderopacity="0.25"
     inkscape:showpageshadow="2"
     inkscape:pageopacity="0.0"
     inkscape:pagecheckerboard="0"
     inkscape:deskcolor="#d1d1d1"
     inkscape:document-units="mm"
     inkscape:zoom="0.97386896"
     inkscape:cx="-28.237885"
     inkscape:cy="319.85823"
     inkscape:window-width="1920"
     inkscape:window-height="991"
     inkscape:window-x="-9"
     inkscape:window-y="-9"
     inkscape:window-maximized="1"
     inkscape:current-layer="layer1" />
  <defs
     id="defs1" />
  <g
     inkscape:label="Шар 1"
     inkscape:groupmode="layer"
     id="layer1">
    <path
       d="m 83.010413,22.68384 c -1.101532,-7.009747 -9.012532,-9.012532 -16.222558,-9.012532 -9.31295,0 -19.126596,3.104317 -22.831748,12.317127 -0.300418,0.801114 0.600836,1.40195 1.201671,0.801114 1.502089,-2.703759 2.803899,-5.107101 5.407519,-7.009747 5.006963,-3.404734 9.513229,-4.506266 15.721862,-4.305988 0.801114,0 1.001392,0.500697 1.001392,0.901254 -0.600835,3.705152 -12.617545,28.639824 -14.920747,33.646786 -2.503481,5.40752 -4.406127,9.913786 -6.909608,15.221166 -1.702367,3.605012 -4.205849,8.311557 -6.60919,11.415874 -1.902646,2.403342 -6.809469,5.707937 -10.815039,5.707937 -2.303203,0 -4.205848,-1.001393 -5.30738,-3.705152 l -0.500696,-1.201671 c -0.100139,-0.400557 -0.200279,-0.801114 -0.300418,-1.201671 -0.100139,-0.901254 -1.30181,-1.201671 -1.502089,-0.300418 -0.400557,2.102924 1.702368,5.507658 3.404735,6.60919 1.30181,0.901253 2.803899,1.30181 4.305987,1.30181 4.806684,0 10.414482,-3.805291 12.817824,-7.410304 5.006962,-7.410304 8.411696,-16.022279 12.016709,-24.033419 4.305988,-9.513228 8.611975,-19.026457 12.917963,-28.439546 1.101532,-2.403342 2.102924,-4.806684 3.304595,-7.109886 0.400557,-0.801114 1.101532,-1.101532 1.902646,-1.201671 4.205848,-0.300418 9.413089,2.503481 10.314342,6.809469 1.101532,7.109886 -3.805291,13.018102 -9.112671,17.123811 -3.705152,3.004177 -5.707937,2.703759 -9.813646,3.504873 -0.901254,0.10014 -1.201671,1.101532 -0.400557,1.502089 1.201671,0.600835 2.503481,0.600835 3.705152,1.001392 4.00557,1.101532 8.111279,4.806684 8.411696,9.012533 0.200279,3.104316 -0.100139,5.908215 -0.901253,8.812253 -1.602228,5.908216 -3.004177,8.712115 -7.210026,13.31852 -2.60362,2.904038 -8.311557,6.208633 -12.717684,5.607798 -1.902645,-0.300418 -3.605013,-1.902646 -3.805291,-4.305988 -0.100139,-0.801114 -0.100139,-1.401949 -0.200279,-2.002785 -0.100139,-0.600835 -1.201671,-0.500696 -1.30181,0.200279 -0.100139,0.801114 -0.100139,1.702367 0,2.60362 0.600836,3.705152 3.204456,4.906823 6.108494,4.906823 3.104317,0 6.70933,-1.30181 8.812254,-2.60362 8.111279,-4.706545 13.018102,-15.321305 13.018102,-25.134951 0,-5.006962 -2.603621,-8.111279 -6.108494,-10.514621 l -1.30181,-0.901253 c -0.901254,-0.600836 -0.901254,-0.400557 0.200278,-1.001393 2.102924,-1.101531 4.205848,-2.102924 5.908216,-3.705152 4.806683,-4.305987 9.21281,-10.314342 8.311557,-17.22395 z"
       id="text1"
       style="font-size:40.0557px;font-family:Propysy;-inkscape-font-specification:'Propysy, Normal';fill:#bbbbbb;stroke-width:3.33798"
       aria-label="В&#10;" />
  </g>
</svg>
