<?xml version="1.0" encoding="UTF-8" standalone="no"?>
<!-- Created with Inkscape (http://www.inkscape.org/) -->

<svg
   width="100mm"
   height="100mm"
   viewBox="0 0 100 100"
   version="1.1"
   id="svg1"
   inkscape:version="1.4.2 (f4327f4, 2025-05-13)"
   sodipodi:docname="letter-Ц.svg"
   xmlns:inkscape="http://www.inkscape.org/namespaces/inkscape"
   xmlns:sodipodi="http://sodipodi.sourceforge.net/DTD/sodipodi-0.dtd"
   xmlns="http://www.w3.org/2000/svg"
   xmlns:svg="http://www.w3.org/2000/svg">
  <sodipodi:namedview
     id="namedview1"
     pagecolor="#ffffff"
     bordercolor="#000000"
     borderopacity="0.25"
     inkscape:showpageshadow="2"
     inkscape:pageopacity="0.0"
     inkscape:pagecheckerboard="0"
     inkscape:deskcolor="#d1d1d1"
     inkscape:document-units="mm"
     inkscape:zoom="0.97386896"
     inkscape:cx="187.91029"
     inkscape:cy="161.72607"
     inkscape:window-width="1195"
     inkscape:window-height="981"
     inkscape:window-x="0"
     inkscape:window-y="0"
     inkscape:window-maximized="0"
     inkscape:current-layer="layer1" />
  <defs
     id="defs1" />
  <g
     inkscape:label="Шар 1"
     inkscape:groupmode="layer"
     id="layer1">
    <path
       d="m 48.123365,58.150727 c 1.395378,-1.95353 3.255883,-4.558237 3.627984,-4.558237 0.186051,0 -0.279076,1.209328 -2.046555,4.558237 -0.930253,1.76748 -1.76748,3.814035 -2.418657,5.860591 -0.837227,2.511681 -1.116303,5.395464 -0.18605,7.907146 0.744202,1.860504 2.697732,2.790757 4.558237,2.790757 2.604707,0 5.488489,-2.139581 7.069919,-4.000086 0.744202,-0.930252 1.116303,-1.302353 1.209328,-1.302353 0.18605,0 -0.186051,1.023278 -0.558152,2.883783 -0.279075,1.581429 -0.372101,1.95353 -1.767479,3.255883 -1.674455,1.395379 -4.372187,4.372187 -5.581515,6.046641 -0.651177,0.930253 -0.651177,2.511682 0,3.534959 0.558151,0.744202 1.395379,1.116303 2.325631,1.116303 1.023278,0 2.046555,-0.558151 2.697732,-1.674454 1.209328,-2.418656 1.860505,-5.116389 2.604707,-7.721095 0.186051,-0.744202 0.279076,-1.023278 0.837227,-1.58143 4.000086,-3.721009 8.000171,-7.721095 11.628156,-11.814206 0.558151,-0.651177 -0.279076,-1.95353 -1.209328,-0.930252 -2.418657,2.511681 -4.465212,4.744287 -6.046641,6.418742 -2.418657,2.511681 -3.53496,3.814035 -3.90706,3.814035 -0.279076,0 -0.09303,-0.744202 0.279075,-2.232606 0.372101,-1.488404 1.023278,-3.255884 1.395379,-5.023363 0.09302,-0.558152 -0.651177,-0.930253 -1.116303,-0.465127 -0.651177,0.744202 -1.209328,1.58143 -1.95353,2.418657 -1.76748,2.046555 -5.023363,5.767565 -8.000171,5.767565 -1.023278,0 -1.95353,-0.372101 -2.511682,-1.209328 -1.302353,-1.95353 -1.023278,-5.116389 -0.372101,-7.255969 0.465126,-1.58143 1.023278,-2.976808 1.860505,-4.651263 2.046555,-4.186136 4.186136,-8.837398 6.232691,-13.116559 C 62.356227,35.359542 68.402868,22.336008 73.891358,10.707852 74.449509,9.4985237 73.05413,9.0333975 72.589004,9.9636499 68.774969,16.847518 65.24001,25.03374 61.70505,32.010633 c -3.069833,6.232692 -6.139666,12.093282 -9.76765,17.767822 -3.627985,5.67454 -15.349166,23.349337 -23.070261,23.349337 -2.418657,0 -3.72101,-2.046556 -2.232606,-7.44202 C 33.1463,45.127193 45.239582,29.219876 47.472188,17.033569 48.40244,12.103231 45.797733,9.4985237 42.634875,9.4985237 c -1.023278,0 -2.139581,0.2790757 -3.255883,0.8372273 -4.279162,2.232606 -7.44202,5.67454 -10.790929,9.023449 -0.930252,1.116303 0.279076,1.767479 1.023278,1.023277 3.348909,-3.441934 7.442019,-8.186221 12.000256,-9.302524 0,0 4.093111,-1.023278 4.651263,3.255883 0.279075,1.76748 -0.09303,2.697733 -0.465127,4.372187 -0.558151,2.232606 -1.488403,4.186136 -2.418656,6.232691 -5.302439,11.535131 -17.02362,31.442534 -18.884125,43.25674 -0.558151,4.744287 1.395379,6.418742 4.093111,6.418742 2.697732,0 6.139666,-1.674455 8.465297,-3.627985 4.186136,-3.627984 7.721096,-8.279247 11.070005,-12.837484 z m 6.790843,26.512195 c -1.953531,0.930253 -1.860505,-1.581429 -1.488404,-2.232606 0.651176,-1.395378 1.581429,-2.046555 2.511681,-3.069833 0.186051,-0.18605 1.674455,-1.581429 2.046556,-2.046555 -0.279076,1.488404 -1.860505,6.790843 -3.069833,7.348994 z"
       id="text1"
       style="font-size:37.2101px;font-family:Propysy;-inkscape-font-specification:'Propysy, Normal';fill:#bbbbbb;stroke-width:3.10085"
       aria-label="Ц" />
  </g>
</svg>
