<?xml version="1.0" encoding="UTF-8" standalone="no"?>
<!-- Created with Inkscape (http://www.inkscape.org/) -->

<svg
   width="100mm"
   height="100mm"
   viewBox="0 0 100 100"
   version="1.1"
   id="svg1"
   inkscape:version="1.4.2 (f4327f4, 2025-05-13)"
   sodipodi:docname="letter-И.svg"
   xmlns:inkscape="http://www.inkscape.org/namespaces/inkscape"
   xmlns:sodipodi="http://sodipodi.sourceforge.net/DTD/sodipodi-0.dtd"
   xmlns="http://www.w3.org/2000/svg"
   xmlns:svg="http://www.w3.org/2000/svg">
  <sodipodi:namedview
     id="namedview1"
     pagecolor="#ffffff"
     bordercolor="#000000"
     borderopacity="0.25"
     inkscape:showpageshadow="2"
     inkscape:pageopacity="0.0"
     inkscape:pagecheckerboard="0"
     inkscape:deskcolor="#d1d1d1"
     inkscape:document-units="mm"
     inkscape:zoom="0.97386896"
     inkscape:cx="187.91029"
     inkscape:cy="161.72607"
     inkscape:window-width="1029"
     inkscape:window-height="981"
     inkscape:window-x="0"
     inkscape:window-y="0"
     inkscape:window-maximized="0"
     inkscape:current-layer="layer1" />
  <defs
     id="defs1" />
  <g
     inkscape:label="Шар 1"
     inkscape:groupmode="layer"
     id="layer1">
    <path
       d="m 44.530725,34.671661 c 5.56821,-11.878848 3.990551,-17.075843 -0.464017,-17.075843 -3.897747,0 -10.022778,4.176157 -15.219774,11.41483 -0.928035,1.299249 0.278411,1.670463 0.835232,1.113642 0.928035,-1.020839 1.299249,-1.763267 3.897746,-4.547372 2.598498,-2.691301 7.42428,-6.589048 10.393992,-6.589048 1.948874,0 3.062516,1.577659 2.412891,6.125031 -0.742428,3.248122 -2.041677,6.403441 -3.433729,9.465957 -2.505695,5.382602 -5.011389,10.765205 -7.517084,16.147808 -0.27841,0.556821 -0.556821,1.113642 -0.742428,1.670463 l -1.670462,3.248122 c -0.185607,0.556821 -0.464018,1.113642 -0.742428,1.670463 -2.320088,5.011389 -5.2898,10.672403 -6.496245,16.147809 -0.742428,3.433729 -0.185607,9.094743 4.176157,9.094743 2.412891,0 5.011389,-1.299249 6.867459,-3.248123 7.795494,-8.259511 12.157258,-15.683791 18.189485,-25.242551 0.0928,-0.185607 -2.505694,5.84662 -2.598498,6.032227 -2.598497,5.661014 -6.774655,12.714079 -3.897746,19.024717 1.206445,2.227284 3.248122,3.340926 5.568209,3.340926 5.2898,0 11.786045,-7.42428 15.034167,-11.136419 0.742428,-0.928035 -0.464018,-1.763267 -1.206446,-0.928035 -1.670462,1.763266 -10.208384,12.342865 -15.590987,10.393991 -3.526533,-1.299249 -3.340926,-7.517083 -2.320087,-10.579598 0.742427,-2.227284 1.206445,-3.619337 2.13448,-5.753817 1.670463,-3.990551 3.248122,-7.331477 4.918585,-11.043616 3.526533,-7.702691 7.053066,-15.405381 10.579599,-23.108071 1.577659,-3.340926 3.155319,-6.774656 4.732978,-10.208385 0.371214,-0.649624 0.649625,-1.484856 0.649625,-1.85607 0,-0.649624 -0.835232,-0.835231 -1.206446,-0.464017 -0.649624,0.556821 -1.484856,2.784104 -1.577659,3.062515 -2.598498,5.475406 -5.289799,10.950813 -8.073904,16.240612 -7.053066,13.2709 -16.519023,30.625154 -25.706569,40.462325 -2.227284,2.320087 -4.361764,3.526533 -6.032227,3.526533 -2.320088,0 -3.71214,-2.134481 -3.155319,-6.496245 0.742428,-5.661013 6.681851,-17.261451 9.187546,-22.458446 2.784105,-5.753817 5.475406,-11.600438 8.073904,-17.447058 z"
       id="text1"
       style="font-size:37.1214px;font-family:Propysy;-inkscape-font-specification:'Propysy, Normal';fill:#bbbbbb;stroke-width:3.09345"
       aria-label="И&#10;" />
  </g>
</svg>
