<?xml version="1.0" encoding="UTF-8" standalone="no"?>
<!-- Created with Inkscape (http://www.inkscape.org/) -->

<svg
   width="100mm"
   height="100mm"
   viewBox="0 0 100 100"
   version="1.1"
   id="svg1"
   inkscape:version="1.4.2 (f4327f4, 2025-05-13)"
   sodipodi:docname="letter-Ж.svg"
   xmlns:inkscape="http://www.inkscape.org/namespaces/inkscape"
   xmlns:sodipodi="http://sodipodi.sourceforge.net/DTD/sodipodi-0.dtd"
   xmlns="http://www.w3.org/2000/svg"
   xmlns:svg="http://www.w3.org/2000/svg">
  <sodipodi:namedview
     id="namedview1"
     pagecolor="#ffffff"
     bordercolor="#000000"
     borderopacity="0.25"
     inkscape:showpageshadow="2"
     inkscape:pageopacity="0.0"
     inkscape:pagecheckerboard="0"
     inkscape:deskcolor="#d1d1d1"
     inkscape:document-units="mm"
     inkscape:zoom="0.97386896"
     inkscape:cx="187.91029"
     inkscape:cy="161.72607"
     inkscape:window-width="1029"
     inkscape:window-height="981"
     inkscape:window-x="0"
     inkscape:window-y="0"
     inkscape:window-maximized="0"
     inkscape:current-layer="layer1" />
  <defs
     id="defs1" />
  <g
     inkscape:label="Шар 1"
     inkscape:groupmode="layer"
     id="layer1">
    <path
       d="m 47.258182,67.865732 c -0.411919,0.494302 -2.553896,3.377733 -3.95442,4.943024 -0.906221,0.988605 -1.400524,1.647675 -1.482907,1.647675 -0.164768,0 0.247151,-0.741453 1.070988,-2.63628 2.059594,-4.531106 3.95442,-8.485526 5.93163,-12.76948 4.036804,-8.56791 8.073607,-17.13582 12.110411,-25.703729 1.153372,-2.389129 2.224361,-4.61349 3.29535,-7.002619 0.164767,-0.329535 0.329535,-0.741454 0.329535,-1.070989 0,-0.823837 -0.906221,-0.741453 -1.070989,-0.576686 -0.411919,0.411919 -0.741454,0.906221 -1.070989,1.31814 -5.190176,6.755467 -10.297968,13.593318 -15.488144,20.431169 -0.906221,1.153373 -4.695874,6.096398 -5.519711,7.085003 -1.153373,1.31814 -1.070989,1.235756 -0.494303,-0.65907 0.411919,-1.235757 0.741454,-2.306745 1.153373,-3.460118 1.647675,-4.778257 3.624885,-16.7239 1.070989,-21.172623 -1.565292,-2.801047 -4.366339,-3.872036 -7.332154,-3.872036 -3.29535,0 -6.755467,1.400524 -8.815061,3.29535 -1.730059,1.565291 -3.377733,3.130582 -5.025408,4.778257 -0.329535,0.329535 -0.576687,0.576687 -0.741454,0.988605 -0.247151,0.494303 0.494302,0.906222 0.906221,0.65907 0.411919,-0.247151 0.65907,-0.576686 0.988605,-0.906221 3.29535,-3.460117 7.332154,-7.496921 12.439946,-7.496921 3.377734,0 6.343548,1.482908 7.002618,5.025409 0.906222,3.460117 -0.08238,11.039422 -0.906221,14.499539 -2.224361,9.721282 -7.24977,18.124424 -13.758086,25.538962 -3.460117,3.789652 -9.886049,9.803666 -15.488144,9.803666 -2.224361,0 -4.2015712,-0.988605 -5.6020949,-3.460118 -0.3295349,-0.494302 -0.5766862,-1.153372 -0.8238374,-1.730058 -0.2471513,-0.576687 -1.31814,-0.411919 -1.2357562,0.411918 0.2471512,2.059594 2.3067449,4.448723 4.0368036,5.354944 1.2357559,0.576686 2.5538959,0.906221 3.9544199,0.906221 6.837851,0 15.158609,-8.732677 19.030646,-13.675702 7.661688,-9.968433 15.323376,-19.854483 22.902681,-29.9053 1.070989,-1.400524 2.63628,-3.130583 3.789653,-4.61349 0.741453,-0.906221 1.153372,-1.31814 0.247151,0.65907 -0.08238,0.247151 -0.329535,0.741454 -0.576686,1.235756 L 45.363356,63.005091 c -2.389129,4.943024 -4.531106,9.886049 -6.837851,14.829074 -0.411919,0.823837 -1.235756,2.389129 -1.482908,3.212966 -0.164767,0.576686 0.576687,0.988605 0.988605,0.494303 1.153373,-1.235757 2.306745,-2.718664 3.377734,-4.036804 5.437327,-6.837851 10.874655,-13.428551 16.311982,-20.348786 1.482907,-1.894826 2.141977,-2.718663 2.224361,-2.718663 0.164768,0 -0.576686,1.647675 -1.153372,4.036803 -0.494303,2.059594 -0.988605,4.201572 -1.400524,6.261165 -0.247151,1.31814 -0.411919,2.718664 -0.494303,4.036804 -0.164767,1.812442 -0.08238,3.789652 0.164768,5.602095 0.823837,5.437327 5.025408,7.661688 9.474131,7.661688 7.002618,0 13.263783,-5.354943 17.877273,-9.968433 0.411919,-0.411919 -0.329535,-1.565292 -1.070989,-0.823838 -3.95442,4.119188 -10.545119,9.309364 -16.641517,9.309364 -1.894826,0 -3.707268,-0.411919 -5.27256,-1.565292 -3.789652,-2.553896 -3.377733,-9.803665 -2.636279,-13.593318 0.329535,-1.647675 0.576686,-3.29535 0.988605,-4.943025 2.471512,-10.297968 13.675702,-27.26902 23.561751,-32.623964 1.565291,-0.906221 3.048199,-1.730058 4.860641,-2.059593 4.283955,-0.741454 6.837851,1.565291 7.002619,6.343548 0,1.153373 0.08238,2.553897 0.08238,3.542501 0,0.65907 0.906221,0.65907 1.070988,0.08238 0.329535,-1.400523 0.247151,-4.036803 -0.08238,-5.602095 -0.741453,-4.036803 -3.295349,-5.766862 -6.590699,-5.766862 -9.638899,0 -20.348786,14.417156 -25.703729,21.749309 -4.778258,6.673084 -11.616109,15.488145 -16.723901,21.74931 z"
       id="text1"
       style="font-size:32.9535px;font-family:Propysy;-inkscape-font-specification:'Propysy, Normal';fill:#bbbbbb;stroke-width:2.74613"
       aria-label="Ж" />
  </g>
</svg>
