<?xml version="1.0" encoding="UTF-8" standalone="no"?>
<!-- Created with Inkscape (http://www.inkscape.org/) -->

<svg
   width="100mm"
   height="100mm"
   viewBox="0 0 100 100"
   version="1.1"
   id="svg1"
   inkscape:version="1.4.2 (f4327f4, 2025-05-13)"
   sodipodi:docname="letter-У.svg"
   xmlns:inkscape="http://www.inkscape.org/namespaces/inkscape"
   xmlns:sodipodi="http://sodipodi.sourceforge.net/DTD/sodipodi-0.dtd"
   xmlns="http://www.w3.org/2000/svg"
   xmlns:svg="http://www.w3.org/2000/svg">
  <sodipodi:namedview
     id="namedview1"
     pagecolor="#ffffff"
     bordercolor="#000000"
     borderopacity="0.25"
     inkscape:showpageshadow="2"
     inkscape:pageopacity="0.0"
     inkscape:pagecheckerboard="0"
     inkscape:deskcolor="#d1d1d1"
     inkscape:document-units="mm"
     inkscape:zoom="0.97386896"
     inkscape:cx="187.91029"
     inkscape:cy="161.72607"
     inkscape:window-width="1195"
     inkscape:window-height="981"
     inkscape:window-x="0"
     inkscape:window-y="0"
     inkscape:window-maximized="0"
     inkscape:current-layer="layer1" />
  <defs
     id="defs1" />
  <g
     inkscape:label="Шар 1"
     inkscape:groupmode="layer"
     id="layer1">
    <path
       d="M 50.583295,71.76752 C 61.188173,53.813647 67.234814,37.627255 73.37448,23.952544 l 1.860505,-4.372187 c 0.372101,-0.930252 -0.837227,-1.674454 -1.488404,-0.558151 -0.465126,0.837227 -2.790757,5.488489 -3.348908,6.511767 -3.162859,5.767565 -8.372273,14.325888 -10.511853,16.837569 -0.186051,0.279076 -11.16303,13.30261 -16.651519,13.30261 -1.116303,0 -1.95353,-0.558151 -2.511682,-1.860505 -1.488404,-3.814035 1.95353,-9.674625 2.604707,-10.976979 2.418656,-5.116388 4.930338,-9.5816 6.790843,-14.977064 1.860505,-5.302439 -0.651177,-9.39555 -4.930338,-9.39555 -1.302353,0 -2.697732,0.372101 -4.279161,1.209328 -4.372187,2.418657 -7.44202,6.604793 -10.418828,10.325803 -0.558151,0.651176 -0.09303,1.581429 0.558152,1.581429 0.18605,0 0.372101,-0.09303 0.558151,-0.372101 2.790758,-3.255884 5.67454,-7.348995 9.674626,-9.860676 1.395378,-0.837227 2.697732,-1.302354 3.814035,-1.302354 2.976808,0 4.744287,2.604707 3.441934,6.790843 -2.046556,6.697818 -5.209414,12.186307 -8.279247,18.7911 -2.790757,5.953616 -1.674454,11.442105 2.790757,11.442105 5.395465,0 13.023535,-7.814121 16.372444,-11.442105 3.534959,-3.814035 4.837312,-5.767565 4.930338,-5.767565 0.09302,0 -0.465127,1.116303 -1.395379,3.627984 -4.279161,9.674626 -14.604964,33.86119 -22.977236,37.76825 -1.023277,0.465126 -2.418656,0.744202 -3.814035,0.744202 -3.534959,0 -7.442019,-1.76748 -7.535045,-5.860591 -0.18605,-1.302353 -1.581429,-0.930252 -1.581429,-0.09302 0,5.302439 4.744288,7.535045 9.023449,7.535045 7.069919,0 11.256055,-6.418742 14.511938,-11.814206 z"
       id="text1"
       style="font-size:37.2101px;font-family:Propysy;-inkscape-font-specification:'Propysy, Normal';fill:#bbbbbb;stroke-width:3.10085"
       aria-label="У" />
  </g>
</svg>
