<?xml version="1.0" encoding="UTF-8" standalone="no"?>
<!-- Created with Inkscape (http://www.inkscape.org/) -->

<svg
   width="100mm"
   height="100mm"
   viewBox="0 0 100 100"
   version="1.1"
   id="svg1"
   inkscape:version="1.4.2 (f4327f4, 2025-05-13)"
   sodipodi:docname="letter-A.svg"
   xmlns:inkscape="http://www.inkscape.org/namespaces/inkscape"
   xmlns:sodipodi="http://sodipodi.sourceforge.net/DTD/sodipodi-0.dtd"
   xmlns="http://www.w3.org/2000/svg"
   xmlns:svg="http://www.w3.org/2000/svg">
  <sodipodi:namedview
     id="namedview1"
     pagecolor="#ffffff"
     bordercolor="#000000"
     borderopacity="0.25"
     inkscape:showpageshadow="2"
     inkscape:pageopacity="0.0"
     inkscape:pagecheckerboard="0"
     inkscape:deskcolor="#d1d1d1"
     inkscape:document-units="mm"
     inkscape:zoom="1.3772587"
     inkscape:cx="159.37456"
     inkscape:cy="112.17936"
     inkscape:window-width="1196"
     inkscape:window-height="981"
     inkscape:window-x="-8"
     inkscape:window-y="0"
     inkscape:window-maximized="0"
     inkscape:current-layer="layer1" />
  <defs
     id="defs1" />
  <g
     inkscape:label="Шар 1"
     inkscape:groupmode="layer"
     id="layer1">
    <path
       d="m 81.145776,56.197993 c -0.310272,-0.310272 -0.723968,-0.620544 -1.03424,-0.930816 -0.723968,-0.310272 -1.447936,-0.620544 -2.275328,-0.620544 -0.103424,-8.377344 0,-16.651264 0.413696,-24.925185 0.206848,-4.757504 0.413696,-9.515008 0.827392,-14.272512 0.103424,-1.344512 -0.723968,-2.999296 -1.654784,-3.930112 -0.930816,-0.930816 -2.482176,-1.6547843 -3.826688,-1.5513603 -1.344512,0.1034243 -2.792448,0.5171203 -3.826688,1.5513603 -1.03424,1.137664 -1.447936,2.378752 -1.55136,3.930112 -0.620544,8.377344 -1.03424,16.858113 -1.137664,25.442305 -0.103424,4.240384 -0.103424,8.480768 -0.103424,12.721152 -7.549953,-0.51712 -14.996481,-0.413696 -22.546433,0.103424 -0.103424,-7.963648 0.103424,-15.927296 0.413696,-23.994369 0.206848,-4.757504 0.51712,-9.515008 0.827392,-14.272512 0.103424,-1.344512 -0.723968,-2.999296 -1.55136,-3.930112 -1.03424,-0.930816 -2.482176,-1.6547843 -3.930112,-1.5513603 -1.344512,0.1034243 -2.792448,0.5171203 -3.826688,1.5513603 -1.034241,1.137664 -1.447937,2.378752 -1.551361,3.930112 -0.620544,8.377344 -1.03424,16.858113 -1.137664,25.442305 -0.103424,4.65408 -0.103424,9.411584 -0.103424,14.065664 -1.137664,0.206848 -2.378752,0.413696 -3.61984,0.620544 -1.241088,0.206848 -2.5856,1.447936 -3.206144,2.482176 -0.723968,1.137664 -1.03424,2.895873 -0.51712,4.136961 0.413696,1.344512 1.241088,2.5856 2.482176,3.309568 0.413696,0.206848 0.827392,0.310272 1.241088,0.51712 1.03424,0.310272 1.965056,0.310272 2.895872,0 0.310272,0 0.620544,-0.103424 1.03424,-0.103424 0,0.103424 0,0.206848 0,0.413696 0.103424,4.757504 0.413696,9.515008 0.723968,14.375936 0.103424,1.447936 0.51712,2.792448 1.55136,3.826688 0.930817,0.930816 2.482177,1.654784 3.826689,1.55136 1.447936,0 2.895872,-0.51712 3.826688,-1.55136 0.930816,-1.03424 1.758208,-2.378752 1.654784,-3.826688 -0.413696,-5.378048 -0.620544,-10.756096 -0.827392,-16.134144 7.549952,-0.51712 14.99648,-0.620544 22.546433,-0.103424 0.206848,5.584896 -0.51712,19.443712 3.10272,23.063552 0.930816,0.930816 2.482176,1.654785 3.826688,1.55136 1.447936,0 2.895872,-0.51712 3.826688,-1.55136 0.930816,-1.03424 1.758208,-2.378752 1.654784,-3.826688 -0.51712,-5.584896 -1.03424,-11.066368 -1.447936,-16.651264 0,-0.51712 -0.103424,-1.137664 -0.103424,-1.654784 1.137664,-0.103424 2.378752,-0.827392 3.10272,-1.55136 0.930816,-0.930816 1.654784,-2.482176 1.654784,-3.826689 -0.103424,-1.447936 -0.620544,-2.895872 -1.654784,-3.826688 z"
       id="text1"
       style="font-size:103.424px;font-family:'Child Hood';-inkscape-font-specification:'Child Hood, Normal';fill:#bbbbbb;stroke-width:0.30439"
       aria-label="H" />
  </g>
</svg>
