<?xml version="1.0" encoding="UTF-8" standalone="no"?>
<!-- Created with Inkscape (http://www.inkscape.org/) -->

<svg
   width="100mm"
   height="100mm"
   viewBox="0 0 100 100"
   version="1.1"
   id="svg1"
   inkscape:version="1.4.2 (f4327f4, 2025-05-13)"
   sodipodi:docname="letter-M.svg"
   xmlns:inkscape="http://www.inkscape.org/namespaces/inkscape"
   xmlns:sodipodi="http://sodipodi.sourceforge.net/DTD/sodipodi-0.dtd"
   xmlns="http://www.w3.org/2000/svg"
   xmlns:svg="http://www.w3.org/2000/svg">
  <sodipodi:namedview
     id="namedview1"
     pagecolor="#ffffff"
     bordercolor="#000000"
     borderopacity="0.25"
     inkscape:showpageshadow="2"
     inkscape:pageopacity="0.0"
     inkscape:pagecheckerboard="0"
     inkscape:deskcolor="#d1d1d1"
     inkscape:document-units="mm"
     inkscape:zoom="0.97386896"
     inkscape:cx="96.00881"
     inkscape:cy="102.1698"
     inkscape:window-width="1196"
     inkscape:window-height="981"
     inkscape:window-x="-8"
     inkscape:window-y="0"
     inkscape:window-maximized="0"
     inkscape:current-layer="layer1" />
  <defs
     id="defs1" />
  <g
     inkscape:label="Шар 1"
     inkscape:groupmode="layer"
     id="layer1">
    <path
       d="m 24.79718,59.136871 c 0.604596,1.813788 1.309958,3.627576 2.216851,5.441364 0.50383,1.108426 1.914554,2.01532 3.123746,2.418384 0.604596,0.100766 1.309958,0.201532 2.01532,0.100766 0.100766,0.806128 0.201532,1.612256 0.403064,2.418384 0.201532,1.309958 0.604596,2.51915 1.108426,3.829108 0.705362,1.612256 1.410724,3.224512 2.418384,4.635236 2.01532,2.720682 4.433704,5.340598 7.658216,6.650556 0.906894,0.403064 1.914554,0.906894 2.922214,1.108426 1.108426,0.302298 2.317618,0.50383 3.426044,0.50383 1.914554,0.201532 3.929874,-0.100766 5.844428,-0.604596 1.51149,-0.403064 3.123746,-1.108426 4.53447,-1.813788 1.612256,0.906894 3.426044,1.612256 5.340598,2.116086 2.01532,0.604596 4.332938,0.806128 6.449024,0.705362 1.410724,-0.100766 2.720682,-0.50383 3.829108,-1.51149 0.906894,-1.00766 1.612256,-2.51915 1.51149,-3.829108 -0.100766,-1.309958 -0.50383,-2.720682 -1.51149,-3.728342 -1.00766,-0.906894 -2.418384,-1.612256 -3.829108,-1.51149 -0.806128,0 -1.612256,0 -2.418384,0 -0.201532,-0.100766 -0.50383,-0.100766 -0.705362,-0.201532 1.108426,-1.51149 2.01532,-3.02298 2.922214,-4.635236 1.713022,-3.325278 3.224512,-6.852088 4.332938,-10.378898 1.108426,-3.224512 1.813788,-6.54979 2.317618,-9.875068 0.50383,-3.627576 0.806128,-7.255152 0.705362,-10.882728 -0.201532,-3.123746 -0.604596,-6.348258 -1.51149,-9.270472 -0.806128,-2.922214 -2.116086,-5.844428 -3.929874,-8.262812 -1.108426,-1.410724 -2.116086,-2.619916 -3.426044,-3.728342 -1.410724,-1.209192 -2.922214,-2.216852 -4.635236,-2.922214 -1.713022,-0.806128 -3.52681,-1.410724 -5.441364,-1.713022 -1.914554,-0.302298 -3.829108,-0.50383 -5.743662,-0.302298 -1.914554,0.100766 -3.929874,0.403064 -5.743662,0.906894 -1.914554,0.50383 -3.627576,1.209192 -5.340598,1.914554 -2.922214,1.309958 -5.54213,3.123746 -8.06128,5.139066 -5.0383,4.232172 -8.766642,9.875068 -10.781961,16.021794 -1.00766,3.426044 -1.612256,7.05362 -1.612256,10.58043 0,2.01532 0.201532,4.03064 0.50383,6.04596 0.302298,1.612256 0.604596,3.123746 1.108426,4.635236 z m 9.169705,-13.905708 c 0.302298,-2.116086 0.906894,-4.131406 1.713022,-6.146726 0.806128,-1.914554 1.914554,-3.728342 3.123746,-5.340598 1.309958,-1.713022 2.821448,-3.224512 4.53447,-4.635236 1.713022,-1.209192 3.52681,-2.317618 5.441364,-3.123746 1.713022,-0.705362 3.426044,-1.209192 5.239832,-1.51149 1.410724,-0.100766 2.821448,-0.100766 4.232172,0 1.00766,0.201532 1.914554,0.403064 2.922214,0.806128 0.705362,0.302298 1.410724,0.705362 2.116086,1.209192 0.705362,0.604596 1.309958,1.209192 1.914554,1.914554 0.705362,1.00766 1.309958,2.116086 1.813788,3.224512 0.705362,1.914554 1.209192,3.929874 1.612256,5.945194 0.403064,3.728342 0.201532,7.355918 -0.201532,10.983494 -0.705362,4.635236 -1.914554,9.169706 -3.627576,13.401878 -1.209192,2.619916 -2.51915,5.239832 -4.131406,7.55745 -0.201532,-0.201532 -0.302298,-0.50383 -0.403064,-0.806128 -0.201532,-0.403064 -0.403064,-0.906894 -0.50383,-1.309958 -0.302298,-1.309958 -1.309958,-2.51915 -2.418384,-3.224512 -1.108426,-0.604596 -2.821448,-0.906894 -4.03064,-0.50383 -1.309958,0.403064 -2.51915,1.209192 -3.224512,2.418384 -0.604596,1.309958 -0.906894,2.720682 -0.50383,4.131406 0.50383,1.914554 1.309958,3.728342 2.418384,5.441364 0,0 0,0 0,0 -0.705362,0.100766 -1.309958,0.100766 -1.914554,0 -0.604596,-0.100766 -1.108426,-0.201532 -1.612256,-0.403064 -0.50383,-0.302298 -1.00766,-0.604596 -1.51149,-0.906894 -0.604596,-0.50383 -1.209192,-1.108426 -1.713022,-1.713022 -0.604596,-0.906894 -1.108426,-1.813788 -1.612256,-2.821448 -0.403064,-1.108426 -0.806128,-2.317618 -1.00766,-3.52681 -0.201532,-1.914554 -0.100766,-3.829108 0.100766,-5.844428 0.604596,-3.728342 1.713022,-7.456684 2.922214,-11.185026 0.403064,-1.209192 0.100766,-2.922214 -0.604596,-4.03064 -0.604596,-1.108426 -1.813788,-2.116086 -3.123746,-2.418384 -1.309958,-0.302298 -2.922214,-0.302298 -4.03064,0.50383 -1.209192,0.806128 -2.01532,1.813788 -2.51915,3.123746 -0.50383,1.713022 -1.00766,3.325278 -1.410724,5.0383 -0.201532,-2.116086 -0.201532,-4.131406 0,-6.247492 z"
       id="text1"
       style="font-size:100.766px;font-family:'Child Hood';-inkscape-font-specification:'Child Hood, Normal';fill:#bbbbbb;stroke-width:0.296567"
       aria-label="Q" />
  </g>
</svg>
