<?xml version="1.0" encoding="UTF-8" standalone="no"?>
<!-- Created with Inkscape (http://www.inkscape.org/) -->

<svg
   width="100mm"
   height="100mm"
   viewBox="0 0 100 100"
   version="1.1"
   id="svg1"
   inkscape:version="1.4.2 (f4327f4, 2025-05-13)"
   sodipodi:docname="letter-A.svg"
   xmlns:inkscape="http://www.inkscape.org/namespaces/inkscape"
   xmlns:sodipodi="http://sodipodi.sourceforge.net/DTD/sodipodi-0.dtd"
   xmlns="http://www.w3.org/2000/svg"
   xmlns:svg="http://www.w3.org/2000/svg">
  <sodipodi:namedview
     id="namedview1"
     pagecolor="#ffffff"
     bordercolor="#000000"
     borderopacity="0.25"
     inkscape:showpageshadow="2"
     inkscape:pageopacity="0.0"
     inkscape:pagecheckerboard="0"
     inkscape:deskcolor="#d1d1d1"
     inkscape:document-units="mm"
     inkscape:zoom="1.3772587"
     inkscape:cx="159.37456"
     inkscape:cy="112.17936"
     inkscape:window-width="1920"
     inkscape:window-height="991"
     inkscape:window-x="-9"
     inkscape:window-y="-9"
     inkscape:window-maximized="1"
     inkscape:current-layer="layer1" />
  <defs
     id="defs1" />
  <g
     inkscape:label="Шар 1"
     inkscape:groupmode="layer"
     id="layer1">
    <path
       d="m 79.153347,13.968802 c -0.40498,-0.303735 -0.708715,-0.60747 -1.113695,-0.80996 -0.80996,-0.506225 -1.721165,-0.80996 -2.63237,-0.80996 -10.630725,-0.911205 -21.160206,-0.80996 -31.689686,0.20249 -0.60747,-0.20249 -1.113695,-0.303735 -1.721165,-0.303735 -0.911205,0 -1.923655,0.303735 -2.733615,0.80996 -0.708715,0.101245 -1.41743,0.101245 -2.0249,0.20249 -3.543575,0.506225 -6.985905,1.113695 -10.428236,1.721165 -1.21494,0.303735 -2.531125,1.41743 -3.138595,2.531125 -0.60747,1.113695 -0.911205,2.733615 -0.506225,4.0498 0.40498,1.316185 1.21494,2.531125 2.42988,3.138595 1.316185,0.708715 2.632371,0.911205 4.049801,0.60747 2.22739,-0.506225 4.45478,-0.911205 6.68217,-1.21494 -0.40498,6.0747 -0.60747,12.250646 -0.708715,18.426591 -0.101245,2.83486 -0.101245,5.66972 -0.101245,8.605825 -1.21494,0 -2.42988,0.101245 -3.543575,0.101245 -1.41743,0 -2.83486,0.506225 -3.84731,1.518675 -0.911206,0.911205 -1.619921,2.42988 -1.518676,3.746065 0.101245,1.41743 0.506225,2.83486 1.518676,3.84731 1.01245,0.911205 2.328635,1.518675 3.84731,1.518675 1.21494,0 2.42988,-0.101245 3.64482,-0.101245 0,1.82241 0.101245,3.746065 0.101245,5.66972 0.20249,4.657271 0.40498,9.314541 0.708715,14.073056 0.101245,1.41743 0.60747,2.733615 1.61992,3.746065 0.911205,0.911205 2.42988,1.61992 3.746065,1.518675 1.41743,0 2.83486,-0.506225 3.746065,-1.518675 0.911205,-1.01245 1.61992,-2.328635 1.518675,-3.746065 -0.40498,-6.68217 -0.708715,-13.465586 -0.80996,-20.147756 4.758515,-0.101245 9.618275,-0.303735 14.37679,-0.506225 2.733615,-0.101245 5.365986,-0.101245 8.099601,-0.20249 1.41743,-0.101245 2.733615,-0.60747 3.746065,-1.61992 0.911205,-0.911205 1.61992,-2.42988 1.518675,-3.746065 0,-1.316185 -0.506225,-2.733615 -1.518675,-3.746065 -1.01245,-0.911205 -2.328635,-1.61992 -3.746065,-1.518675 -7.593376,0.20249 -15.085506,0.506225 -22.577636,0.708715 0,-6.378435 0.101245,-12.75687 0.40498,-19.135306 0.101245,-2.936105 0.20249,-5.87221 0.40498,-8.70707 6.783415,-0.60747 13.56683,-0.708715 20.350246,-0.40498 2.733615,0.101245 5.365985,0.303735 8.0996,0.506225 1.21494,0.20249 2.83486,-0.60747 3.746065,-1.518675 0.911205,-0.911205 1.61992,-2.42988 1.518675,-3.746065 0,-1.41743 -0.506225,-2.83486 -1.518675,-3.746065 z"
       id="text1"
       style="font-size:101.245px;font-family:'Child Hood';-inkscape-font-specification:'Child Hood, Normal';fill:#bbbbbb;stroke-width:0.297976"
       aria-label="F" />
  </g>
</svg>
