<?xml version="1.0" encoding="UTF-8" standalone="no"?>
<!-- Created with Inkscape (http://www.inkscape.org/) -->

<svg
   width="100mm"
   height="100mm"
   viewBox="0 0 100 100"
   version="1.1"
   id="svg1"
   inkscape:version="1.4.2 (f4327f4, 2025-05-13)"
   sodipodi:docname="letter-J.svg"
   xmlns:inkscape="http://www.inkscape.org/namespaces/inkscape"
   xmlns:sodipodi="http://sodipodi.sourceforge.net/DTD/sodipodi-0.dtd"
   xmlns="http://www.w3.org/2000/svg"
   xmlns:svg="http://www.w3.org/2000/svg">
  <sodipodi:namedview
     id="namedview1"
     pagecolor="#ffffff"
     bordercolor="#000000"
     borderopacity="0.25"
     inkscape:showpageshadow="2"
     inkscape:pageopacity="0.0"
     inkscape:pagecheckerboard="0"
     inkscape:deskcolor="#d1d1d1"
     inkscape:document-units="mm"
     inkscape:zoom="1.3772587"
     inkscape:cx="159.37456"
     inkscape:cy="112.17936"
     inkscape:window-width="1196"
     inkscape:window-height="981"
     inkscape:window-x="-8"
     inkscape:window-y="0"
     inkscape:window-maximized="0"
     inkscape:current-layer="layer1" />
  <defs
     id="defs1" />
  <g
     inkscape:label="Шар 1"
     inkscape:groupmode="layer"
     id="layer1">
    <path
       d="m 32.80029,76.416461 c 1.732378,3.079782 4.427188,5.870835 7.603213,7.50697 3.272269,1.636134 7.025754,2.40608 10.682996,2.11735 3.657241,-0.384973 7.314483,-1.443648 10.394266,-3.657242 0.866188,-0.577459 1.732377,-1.251161 2.502323,-2.021107 0.866189,-0.769946 1.539891,-1.732378 2.213593,-2.598566 1.251162,-1.636135 2.117351,-3.560999 2.791053,-5.582106 1.443648,-3.560999 1.828621,-7.603213 2.021108,-11.452941 0.192486,-4.042215 0.288729,-7.988186 0.384972,-12.0304 0.28873,-8.373159 0.481216,-16.746318 0.769946,-25.119476 0,0 0,0 0,0 0.577459,-0.192487 1.154918,-0.577459 1.636134,-1.058675 0.866189,-0.866189 1.539892,-2.309837 1.443649,-3.560999 -0.09624,-1.347405 -0.481217,-2.69481 -1.443649,-3.560998 -0.962432,-0.866189 -2.309836,-1.732378 -3.560998,-1.539892 -4.81216,0.673703 -9.720563,0.769946 -14.532724,0.481216 -4.81216,-0.192486 -9.816806,-0.866188 -14.340237,0.962432 -1.347405,0.57746 -2.694809,1.154919 -3.849728,2.021108 -0.769945,0.481216 -1.443648,1.058675 -2.11735,1.732377 -0.577459,0.673703 -1.154919,1.443648 -1.732378,2.213594 -0.673702,1.058675 -0.769945,2.69481 -0.481216,3.849728 0.28873,1.154918 1.251162,2.502323 2.309837,3.079782 1.154918,0.57746 2.598566,0.866189 3.945971,0.481216 1.251162,-0.384972 2.213594,-1.154918 2.98354,-2.309836 0.192486,-0.28873 0.481216,-0.481216 0.769945,-0.769946 0.384973,-0.28873 0.866189,-0.481216 1.347405,-0.769946 0.769946,-0.288729 1.539891,-0.481216 2.40608,-0.577459 3.657242,-0.384973 7.410727,0.28873 11.164212,0.384973 1.251161,0 2.598566,0 3.849728,0 -0.28873,10.586752 -0.57746,21.077261 -0.866189,31.664014 -0.09624,2.598566 -0.192487,5.293376 -0.481216,7.891942 -0.28873,1.828621 -0.673703,3.657242 -1.347405,5.485863 -0.481216,0.866188 -0.962432,1.732377 -1.539891,2.598566 -0.481216,0.577459 -1.058676,1.058675 -1.539892,1.539891 -0.769945,0.481216 -1.443648,0.962432 -2.213593,1.347405 -0.962432,0.28873 -1.924864,0.577459 -2.887296,0.769946 -0.962432,0.09624 -1.924864,0.09624 -2.887296,0 -0.866189,-0.192487 -1.732378,-0.384973 -2.502324,-0.673703 -0.577459,-0.288729 -1.251161,-0.673702 -1.82862,-1.058675 -0.481216,-0.481216 -0.962432,-0.962432 -1.443648,-1.539891 -0.481216,-0.673703 -0.962432,-1.347405 -1.251162,-2.117351 -0.384973,-0.962432 -0.577459,-1.82862 -0.769946,-2.791052 -0.09624,-0.962432 -0.09624,-1.924864 0,-2.791053 0.09624,-0.866189 0.384973,-1.636135 0.57746,-2.40608 0.384972,-0.673703 0.769945,-1.347405 1.154918,-1.924864 0.769946,-1.058676 0.866189,-2.791053 0.577459,-3.849728 -0.384973,-1.251162 -1.251161,-2.502324 -2.309837,-3.079783 -1.251161,-0.577459 -2.598566,-0.962432 -3.945971,-0.481216 -0.384973,0.192486 -0.769946,0.28873 -1.154918,0.481216 -0.769946,0.481216 -1.443648,1.058675 -1.828621,1.828621 -2.117351,2.983539 -3.176026,6.737024 -3.272269,10.298023 0,1.82862 0.192486,3.657241 0.577459,5.485862 0.481216,1.732378 1.154919,3.464755 2.021107,5.10089 z"
       id="text1"
       style="font-size:96.2432px;font-family:'Child Hood';-inkscape-font-specification:'Child Hood, Normal';fill:#bbbbbb;stroke-width:0.283255"
       aria-label="J" />
  </g>
</svg>
