<?xml version="1.0" encoding="UTF-8" standalone="no"?>
<!-- Created with Inkscape (http://www.inkscape.org/) -->

<svg
   width="100mm"
   height="100mm"
   viewBox="0 0 100 100"
   version="1.1"
   id="svg1"
   inkscape:version="1.4.2 (f4327f4, 2025-05-13)"
   sodipodi:docname="letter-M.svg"
   xmlns:inkscape="http://www.inkscape.org/namespaces/inkscape"
   xmlns:sodipodi="http://sodipodi.sourceforge.net/DTD/sodipodi-0.dtd"
   xmlns="http://www.w3.org/2000/svg"
   xmlns:svg="http://www.w3.org/2000/svg">
  <sodipodi:namedview
     id="namedview1"
     pagecolor="#ffffff"
     bordercolor="#000000"
     borderopacity="0.25"
     inkscape:showpageshadow="2"
     inkscape:pageopacity="0.0"
     inkscape:pagecheckerboard="0"
     inkscape:deskcolor="#d1d1d1"
     inkscape:document-units="mm"
     inkscape:zoom="0.97386896"
     inkscape:cx="96.522226"
     inkscape:cy="102.1698"
     inkscape:window-width="1253"
     inkscape:window-height="981"
     inkscape:window-x="-8"
     inkscape:window-y="0"
     inkscape:window-maximized="0"
     inkscape:current-layer="layer1" />
  <defs
     id="defs1" />
  <g
     inkscape:label="Шар 1"
     inkscape:groupmode="layer"
     id="layer1">
    <path
       d="m 58.943818,81.700138 c 1.624215,-2.16562 2.598744,-4.764364 3.464992,-7.254827 0.866248,-2.382182 1.732496,-4.656083 2.490463,-7.038265 0,-1.191091 0.216562,1.191091 0.324843,1.624215 0.541405,5.41405 1.191091,10.936381 1.949057,16.350431 0.216562,1.299372 1.624215,2.707024 2.707025,3.35671 1.191091,0.757967 2.923587,1.08281 4.33124,0.649686 1.407653,-0.541405 2.707025,-1.299372 3.356711,-2.707024 0.216562,-0.433124 0.433124,-0.866248 0.649686,-1.299372 0.216562,-0.974529 0.216562,-2.057339 0,-3.031868 C 78.109554,81.591857 78.001273,80.725609 77.892992,79.967642 76.810182,71.738286 75.943934,63.617211 75.51081,55.387855 74.969405,46.941937 74.752843,38.387738 74.752843,29.94182 c 0.108281,-4.872644 0.216562,-9.637008 0.433124,-14.401372 0.108281,-1.407653 -0.649686,-3.031868 -1.624215,-4.006397 -1.08281,-0.974529 -2.707025,-1.7324962 -4.114678,-1.7324962 -1.407653,0.108281 -2.923586,0.5414052 -4.006396,1.7324962 -1.515934,1.732496 -2.16562,4.006397 -2.273901,5.630612 -0.216562,3.789835 -0.649686,7.57967 -1.191091,11.369504 -1.624215,11.91091 -4.222959,23.713539 -7.904513,35.191325 -0.974529,3.031868 -1.840777,5.955455 -3.031868,8.879042 -0.541405,1.191091 -1.191091,2.382182 -1.949058,3.464992 -0.324843,0.433124 -0.757967,0.757967 -1.191091,1.191091 -2.815306,1.840777 -4.547802,-0.541405 -5.630612,-3.140149 -0.757967,-1.949058 -1.299372,-4.006397 -1.732496,-6.063736 -0.649686,-2.382182 -1.08281,-4.872645 -1.407653,-7.363108 -1.407653,-11.152943 -0.757967,-22.522448 0.433124,-33.675391 0.324843,-3.248429 0.649686,-6.496859 0.974529,-9.745289 0.216562,-1.407653 -0.757967,-3.140149 -1.624215,-4.006397 -3.464992,-3.4649922 -9.74529,-0.757967 -9.74529,4.006397 -1.08281,10.178413 -2.273901,20.356827 -2.16562,30.535241 0,5.522331 0.433124,10.936381 1.191091,16.350431 0.433124,2.490463 0.866248,4.980926 1.515934,7.363108 0.433124,2.16562 1.08281,4.222959 1.840777,6.280298 0.541405,1.299372 1.08281,2.598744 1.840777,3.789835 0.649686,1.191091 1.515934,2.273901 2.382182,3.24843 1.732496,2.057339 4.114678,3.573272 6.713422,4.222958 1.624215,0.433124 3.356711,0.541405 4.980926,0.324843 1.732496,-0.324843 3.24843,-0.757967 4.872645,-1.515933 1.299372,-0.649686 2.598744,-1.624215 3.681554,-2.598744 1.191091,-0.974529 2.057339,-2.273901 2.923587,-3.573273 z"
       id="text1"
       style="font-size:108.281px;font-family:'Child Hood';-inkscape-font-specification:'Child Hood, Normal';fill:#bbbbbb;stroke-width:0.318683"
       aria-label="U" />
  </g>
</svg>
