<?xml version="1.0" encoding="UTF-8" standalone="no"?>
<!-- Created with Inkscape (http://www.inkscape.org/) -->

<svg
   width="100mm"
   height="100mm"
   viewBox="0 0 100 100"
   version="1.1"
   id="svg1"
   inkscape:version="1.4.2 (f4327f4, 2025-05-13)"
   sodipodi:docname="letter-A.svg"
   xmlns:inkscape="http://www.inkscape.org/namespaces/inkscape"
   xmlns:sodipodi="http://sodipodi.sourceforge.net/DTD/sodipodi-0.dtd"
   xmlns="http://www.w3.org/2000/svg"
   xmlns:svg="http://www.w3.org/2000/svg">
  <sodipodi:namedview
     id="namedview1"
     pagecolor="#ffffff"
     bordercolor="#000000"
     borderopacity="0.25"
     inkscape:showpageshadow="2"
     inkscape:pageopacity="0.0"
     inkscape:pagecheckerboard="0"
     inkscape:deskcolor="#d1d1d1"
     inkscape:document-units="mm"
     inkscape:zoom="1.3772587"
     inkscape:cx="245.77808"
     inkscape:cy="182.60912"
     inkscape:window-width="1920"
     inkscape:window-height="991"
     inkscape:window-x="-9"
     inkscape:window-y="-9"
     inkscape:window-maximized="1"
     inkscape:current-layer="layer1" />
  <defs
     id="defs1" />
  <g
     inkscape:label="Шар 1"
     inkscape:groupmode="layer"
     id="layer1">
    <path
       d="m 73.459132,56.446664 c -0.71652,-0.10236 -1.43304,-0.20472 -2.0472,-0.30708 -0.10236,-2.763721 -0.10236,-5.527441 -0.20472,-8.291161 -0.10236,-5.22036 -0.10236,-10.44072 -0.30708,-15.66108 -0.10236,-2.86608 -0.30708,-5.83452 -1.0236,-8.7006 -0.40944,-1.43304 -0.92124,-2.86608 -1.5354,-4.19676 -0.40944,-0.92124 -0.92124,-1.84248 -1.5354,-2.66136 -0.81888,-1.12596 -1.63776,-2.14956 -2.76372,-3.0708 -0.61416,-0.5118 -1.33068,-1.12596 -2.14956,-1.5354 -0.71652,-0.5118 -1.63776,-0.81888 -2.45664,-1.12596 -0.40944,-0.20472 -0.92124,-0.30708 -1.33068,-0.40944 -0.92124,-0.10236 -1.84248,-0.30708 -2.76372,-0.30708 -1.43304,0 -2.86608,0.20472 -4.19676,0.61416 -5.32272,1.63776 -9.2124,5.6298 -12.2832,10.03128 -2.559,3.68496 -4.40148,8.08644 -5.6298,12.38556 -1.33068,4.29912 -2.0472,8.7006 -2.66136,13.20444 -0.40944,3.17316 -0.81888,6.24396 -1.12596,9.417121 -1.12596,0.20472 -2.251921,0.40944 -3.480241,0.5118 -1.22832,0.20472 -2.559,1.43304 -3.17316,2.45664 -0.61416,1.22832 -0.92124,2.86608 -0.5118,4.19676 0.40944,1.33068 1.22832,2.559 2.45664,3.17316 l 1.22832,0.61416 c 0.81888,0.20472 1.637761,0.20472 2.456641,0.10236 -0.40944,3.27552 -0.71652,6.44868 -1.0236,9.7242 -0.102361,1.33068 -0.307081,2.559 -0.409441,3.88968 -0.10236,1.33068 0.716521,2.86608 1.637761,3.78732 0.92124,0.92124 2.45664,1.63776 3.78732,1.5354 1.33068,0 2.76372,-0.5118 3.78732,-1.5354 0.30708,-0.30708 0.5118,-0.71652 0.81888,-1.12596 0.5118,-0.81888 0.71652,-1.74012 0.71652,-2.66136 0.5118,-5.01564 1.0236,-9.92892 1.5354,-14.94456 6.75576,-0.5118 13.71624,-0.5118 20.472,0 0.40944,0 0.71652,0 1.0236,0.10236 0,0.81888 0.10236,1.63776 0.10236,2.35428 0,3.88968 0.10236,7.677 0.20472,11.56668 0,1.43304 0.61416,2.76372 1.5354,3.78732 0.92124,0.92124 2.45664,1.63776 3.78732,1.5354 1.43304,0 2.86608,-0.5118 3.88968,-1.5354 0.92124,-1.0236 1.5354,-2.35428 1.5354,-3.78732 -0.10236,-4.19676 -0.20472,-8.39352 -0.20472,-12.59028 0.30708,0 0.71652,0 1.12596,-0.10236 0.71652,0 1.33068,-0.20472 1.94484,-0.61416 1.12596,-0.61416 2.25192,-1.94484 2.559,-3.17316 0.30708,-1.43304 0.20472,-2.96844 -0.61416,-4.19676 -0.71652,-1.12596 -1.84248,-2.25192 -3.17316,-2.45664 z m -33.16464,-1.74012 c 0.10236,-0.40944 0.10236,-0.818881 0.20472,-1.228321 l 0.61416,-5.83452 c 0.81888,-5.32272 1.84248,-10.7478 3.88968,-15.76344 1.0236,-2.25192 2.14956,-4.40148 3.68496,-6.34632 0.81888,-1.12596 1.74012,-2.0472 2.76372,-2.96844 0.71652,-0.40944 1.33068,-0.81888 2.14956,-1.22832 0.40944,-0.10236 0.81888,-0.30708 1.22832,-0.30708 0.30708,-0.10236 0.5118,-0.10236 0.81888,-0.10236 0.20472,0.10236 0.40944,0.10236 0.61416,0.20472 0.20472,0.10236 0.40944,0.30708 0.61416,0.40944 l 0.92124,0.92124 c 0.40944,0.61416 0.81888,1.22832 1.12596,1.94484 0.40944,1.33068 0.71652,2.559 1.0236,3.88968 0.30708,3.0708 0.30708,6.03924 0.30708,9.11004 0.10236,3.37788 0.10236,6.75576 0.20472,10.13364 0,2.45664 0.10236,4.91328 0.10236,7.369921 -6.6534,-0.5118 -13.51152,-0.61416 -20.26728,-0.20472 z"
       id="text1"
       style="font-size:102.36px;font-family:'Child Hood';-inkscape-font-specification:'Child Hood, Normal';fill:#bbbbbb;stroke-width:0.301258"
       aria-label="A"
       sodipodi:nodetypes="cccccccccccssccccccsscccsscscccccsccccccccccccccccccccscccccccc" />
  </g>
</svg>
