<?xml version="1.0" encoding="UTF-8" standalone="no"?>
<!-- Created with Inkscape (http://www.inkscape.org/) -->

<svg
   width="100mm"
   height="100mm"
   viewBox="0 0 100 100"
   version="1.1"
   id="svg1"
   inkscape:version="1.4.2 (f4327f4, 2025-05-13)"
   sodipodi:docname="letter-K.svg"
   xmlns:inkscape="http://www.inkscape.org/namespaces/inkscape"
   xmlns:sodipodi="http://sodipodi.sourceforge.net/DTD/sodipodi-0.dtd"
   xmlns="http://www.w3.org/2000/svg"
   xmlns:svg="http://www.w3.org/2000/svg">
  <sodipodi:namedview
     id="namedview1"
     pagecolor="#ffffff"
     bordercolor="#000000"
     borderopacity="0.25"
     inkscape:showpageshadow="2"
     inkscape:pageopacity="0.0"
     inkscape:pagecheckerboard="0"
     inkscape:deskcolor="#d1d1d1"
     inkscape:document-units="mm"
     inkscape:zoom="1.3772587"
     inkscape:cx="159.37456"
     inkscape:cy="112.17936"
     inkscape:window-width="1196"
     inkscape:window-height="981"
     inkscape:window-x="-8"
     inkscape:window-y="0"
     inkscape:window-maximized="0"
     inkscape:current-layer="layer1" />
  <defs
     id="defs1" />
  <g
     inkscape:label="Шар 1"
     inkscape:groupmode="layer"
     id="layer1">
    <path
       d="m 72.469411,85.278431 c 1.097697,-0.698534 2.095603,-1.896021 2.394974,-3.193299 0.299372,-1.297278 0.299372,-2.794137 -0.498953,-3.991624 -0.798324,-1.197487 -1.79623,-2.095603 -3.193299,-2.394975 -3.39288,-0.997906 -6.885552,-2.095602 -10.178641,-3.492671 -6.187018,-2.594556 -11.974873,-5.987436 -17.363565,-10.078851 4.191205,-2.394974 8.38241,-4.889739 12.174453,-7.783667 3.592462,-2.694346 6.985342,-5.588274 9.87927,-8.981154 2.893927,-3.29309 5.388693,-6.885552 7.284714,-10.777385 1.097697,-2.295184 2.095603,-4.690159 2.694346,-7.085133 0.698535,-2.594556 1.097697,-5.189112 1.297278,-7.783667 0.09979,-1.297278 -0.598743,-2.794137 -1.496859,-3.692253 -0.898115,-0.898115 -2.394974,-1.596649 -3.692252,-1.496859 -1.397069,0 -2.794137,0.498953 -3.692253,1.496859 -0.997906,1.097697 -1.496859,2.295184 -1.596649,3.692253 0,3.193299 -1.197487,6.187017 -2.095603,8.581992 -1.297278,2.893927 -2.893927,5.588273 -4.789949,8.083038 -2.694346,3.29309 -5.688064,6.286808 -9.080945,8.881364 -3.792043,2.893928 -7.783667,5.388693 -11.974872,7.683877 0,-6.885552 0.09979,-13.771104 0.399162,-20.656655 0.199581,-4.590368 0.498953,-9.180736 0.798325,-13.771104 0.09979,-1.297277 -0.598744,-2.893927 -1.496859,-3.792043 -0.898115,-0.898115 -2.394975,-1.596649 -3.692252,-1.496859 -1.397069,0.09979 -2.794137,0.498953 -3.792043,1.496859 -0.898116,1.097697 -1.397069,2.295184 -1.496859,3.792043 -0.598744,8.083039 -0.997906,16.265869 -1.097697,24.548489 -0.09979,5.089321 -0.09979,10.178641 0,15.367753 -0.09979,0 -0.09979,0 -0.09979,0 -1.197487,0.598743 -2.095602,1.995812 -2.394974,3.193299 -0.399163,1.197487 -0.199581,2.893928 0.498953,3.991624 0.498953,0.798325 1.297278,1.59665 2.195393,2.095603 0.09979,4.590368 0.399163,9.180736 0.698534,13.771103 0.09979,1.397069 0.498953,2.694347 1.496859,3.692253 0.898116,0.898115 2.394975,1.596649 3.692253,1.496859 1.397068,0 2.794137,-0.498953 3.692252,-1.496859 0.898116,-0.997906 1.69644,-2.295184 1.59665,-3.692253 -0.199581,-3.29309 -0.399163,-6.58618 -0.598744,-9.879269 2.494765,1.896021 5.089321,3.592461 7.683877,5.08932 4.490577,2.694347 9.280526,4.789949 14.170265,6.685971 2.494765,0.898115 5.089321,1.69644 7.683877,2.394974 1.297278,0.299372 2.794137,0.199581 3.991624,-0.498953 z"
       id="text1"
       style="font-size:99.7906px;font-family:'Child Hood';-inkscape-font-specification:'Child Hood, Normal';fill:#bbbbbb;stroke-width:0.293696"
       aria-label="K" />
  </g>
</svg>
