<?xml version="1.0" encoding="UTF-8" standalone="no"?>
<!-- Created with Inkscape (http://www.inkscape.org/) -->

<svg
   width="100mm"
   height="100mm"
   viewBox="0 0 100 100"
   version="1.1"
   id="svg1"
   inkscape:version="1.4.2 (f4327f4, 2025-05-13)"
   sodipodi:docname="letter-M.svg"
   xmlns:inkscape="http://www.inkscape.org/namespaces/inkscape"
   xmlns:sodipodi="http://sodipodi.sourceforge.net/DTD/sodipodi-0.dtd"
   xmlns="http://www.w3.org/2000/svg"
   xmlns:svg="http://www.w3.org/2000/svg">
  <sodipodi:namedview
     id="namedview1"
     pagecolor="#ffffff"
     bordercolor="#000000"
     borderopacity="0.25"
     inkscape:showpageshadow="2"
     inkscape:pageopacity="0.0"
     inkscape:pagecheckerboard="0"
     inkscape:deskcolor="#d1d1d1"
     inkscape:document-units="mm"
     inkscape:zoom="0.97386896"
     inkscape:cx="96.522226"
     inkscape:cy="102.1698"
     inkscape:window-width="1253"
     inkscape:window-height="981"
     inkscape:window-x="-8"
     inkscape:window-y="0"
     inkscape:window-maximized="0"
     inkscape:current-layer="layer1" />
  <defs
     id="defs1" />
  <g
     inkscape:label="Шар 1"
     inkscape:groupmode="layer"
     id="layer1">
    <path
       d="m 31.933949,47.948464 c 2.263432,10.72152 4.76512,21.323911 7.624192,31.926303 0.714768,2.620816 1.429536,5.36076 2.620816,7.862448 0.59564,1.310408 1.429536,2.501688 2.382559,3.454712 1.310408,1.310408 2.9782,2.263432 4.76512,2.620816 1.78692,0.357384 2.620816,0.357384 4.288608,0 0.953024,-0.119128 1.78692,-0.476512 2.620816,-0.953024 1.19128,-0.476512 2.263432,-1.429536 3.097328,-2.501688 0.953024,-1.072152 1.78692,-2.263432 2.38256,-3.454712 0.59564,-1.310408 1.19128,-2.739944 1.667792,-4.16948 3.216456,-10.245008 6.313784,-20.728271 9.172856,-31.092407 2.859072,-10.483264 5.479888,-21.085656 7.862448,-31.688048 0.357384,-1.310408 0.59564,-2.620816 0.833896,-3.812096 0.357384,-1.667792 0.238256,-3.335584 -0.59564,-4.884248 -0.714768,-1.3104077 -2.263432,-2.5016877 -3.692968,-2.8590717 -1.667792,-0.357384 -3.454712,-0.238256 -4.884248,0.59564 -1.310408,0.953024 -2.501688,2.1443037 -2.859072,3.8120957 -2.025176,9.053728 -4.16948,18.107456 -6.55204,27.161184 -2.263432,9.053728 -4.76512,17.988328 -7.505064,26.922927 -0.714768,2.501688 -1.548664,5.003376 -2.263432,7.624192 -0.357384,0.953024 -0.714768,2.025176 -0.953024,3.097328 -0.119128,-0.357384 -0.238256,-0.59564 -0.238256,-0.953024 -0.59564,-2.263432 -1.19128,-4.526864 -1.78692,-6.790296 C 48.730996,65.222024 47.539716,60.69516 46.467564,56.049168 44.442388,46.876312 42.417213,37.584328 40.749421,28.292344 39.796397,23.16984 38.843373,17.928208 38.009477,12.686576 37.890349,11.137912 36.341685,9.5892483 35.150405,8.8744803 c -1.310408,-0.714768 -3.335584,-1.072152 -4.76512,-0.59564 -1.548664,0.476512 -2.9782,1.429536 -3.812096,2.8590717 -0.59564,1.667792 -0.953024,2.9782 -0.59564,4.76512 1.78692,10.840648 3.692968,21.44304 5.9564,32.045432 z"
       id="text1"
       style="font-size:119.128px;font-family:'Child Hood';-inkscape-font-specification:'Child Hood, Normal';fill:#bbbbbb;stroke-width:0.350609"
       aria-label="V" />
  </g>
</svg>
