<?xml version="1.0" encoding="UTF-8" standalone="no"?>
<!-- Created with Inkscape (http://www.inkscape.org/) -->

<svg
   width="100mm"
   height="100mm"
   viewBox="0 0 100 100"
   version="1.1"
   id="svg1"
   inkscape:version="1.4.2 (f4327f4, 2025-05-13)"
   sodipodi:docname="letter-X.svg"
   xmlns:inkscape="http://www.inkscape.org/namespaces/inkscape"
   xmlns:sodipodi="http://sodipodi.sourceforge.net/DTD/sodipodi-0.dtd"
   xmlns="http://www.w3.org/2000/svg"
   xmlns:svg="http://www.w3.org/2000/svg">
  <sodipodi:namedview
     id="namedview1"
     pagecolor="#ffffff"
     bordercolor="#000000"
     borderopacity="0.25"
     inkscape:showpageshadow="2"
     inkscape:pageopacity="0.0"
     inkscape:pagecheckerboard="0"
     inkscape:deskcolor="#d1d1d1"
     inkscape:document-units="mm"
     inkscape:zoom="0.97386896"
     inkscape:cx="96.522226"
     inkscape:cy="102.1698"
     inkscape:window-width="1253"
     inkscape:window-height="981"
     inkscape:window-x="-8"
     inkscape:window-y="0"
     inkscape:window-maximized="0"
     inkscape:current-layer="layer1" />
  <defs
     id="defs1" />
  <g
     inkscape:label="Шар 1"
     inkscape:groupmode="layer"
     id="layer1">
    <path
       d="m 24.249946,80.157659 c 0.431744,1.726975 1.295232,3.238079 2.482528,4.641247 0.53968,0.53968 1.187296,1.07936 1.834912,1.511104 0.431744,0.323808 0.755552,0.53968 1.187296,0.647616 0.755552,0.431744 1.511104,0.755552 2.374592,0.971424 0.863488,0.215872 1.726976,0.323808 2.6984,0.431744 0.755552,0.107936 1.61904,0.107936 2.482528,0.107936 2.266655,0 4.533311,-0.107936 6.799967,-0.107936 9.282496,-0.215872 18.564992,-0.431744 27.847488,-0.647616 1.187296,0 2.266656,0 3.453951,0 1.511104,-0.107936 2.914272,-0.647616 3.993632,-1.726976 0.971424,-0.971424 1.726976,-2.590464 1.61904,-3.993632 0,-1.511103 -0.53968,-3.022207 -1.61904,-3.993631 -1.07936,-0.971424 -2.482528,-1.726976 -3.993632,-1.61904 -10.793599,0.215872 -21.587199,0.431744 -32.488735,0.647616 -1.403168,0 -2.914272,0 -4.425375,0.107936 -2.050784,0 -3.77776,0.215872 -3.022208,-1.403168 1.187296,-2.482528 3.022208,-4.641248 4.641247,-6.907904 1.61904,-2.266656 3.346016,-4.533312 5.072992,-6.692032 0.971424,-1.295232 1.942848,-2.590464 2.914272,-3.77776 3.77776,0 7.447584,0 11.225344,0 2.15872,-0.107936 4.31744,-0.107936 6.584096,-0.107936 1.403168,0 2.914272,-0.53968 3.993632,-1.61904 0.971424,-0.971424 1.726976,-2.590464 1.61904,-3.993632 0,-1.511104 -0.53968,-3.022208 -1.61904,-3.993632 -1.07936,-1.07936 -2.482528,-1.726976 -3.993632,-1.726976 -2.806336,0 -5.612672,0.107936 -8.311072,0.107936 0.53968,-0.647616 0.971424,-1.187296 1.511104,-1.834911 4.965056,-5.612672 10.038048,-11.009472 15.326912,-16.298336 2.266655,-2.266656 10.145983,-8.850752 10.685663,-11.117408 0.323808,-1.403168 0.215872,-3.23808 -0.53968,-4.425376 -0.647616,-0.971424 -1.61904,-1.942848 -2.806336,-2.374592 -0.755552,-0.323808 -1.511104,-0.53968 -2.266656,-0.53968 -1.403168,0.107936 -2.6984,0.53968 -3.669824,1.403168 -0.539679,0.215872 -0.971423,0.431744 -1.403167,0.647616 -3.669824,1.403168 -7.447584,2.482528 -11.33328,3.022208 -3.993632,0.53968 -8.0952,0.53968 -12.196768,0 -4.31744,-0.647616 -11.441216,-3.77776 -13.491999,-3.77776 -0.755552,-0.215872 -1.511104,-0.107936 -2.266656,0.107936 -1.295232,0.323808 -2.6984,1.403168 -3.346016,2.590464 -0.755552,1.295232 -1.07936,2.914272 -0.53968,4.31744 0.431744,1.403168 1.187296,2.806336 2.590464,3.453952 3.022208,1.403168 6.260287,2.590464 9.498367,3.346016 3.23808,0.755552 6.584096,1.295232 9.930112,1.511104 2.374592,0.215872 4.641248,0.215872 7.01584,0.107936 -0.971424,0.971424 -1.942848,2.050784 -2.914272,3.022208 -4.965056,5.504736 -9.930112,11.117408 -14.57136,16.838015 0,0 -0.107936,0 -0.107936,0 -2.15872,0 -4.317439,0 -6.584095,0 -1.403168,0 -2.914272,0.647616 -3.993632,1.726976 -0.971424,0.971424 -1.726976,2.590464 -1.61904,3.993632 0.215872,2.6984 1.61904,4.533312 3.669824,5.288864 -0.647616,0.863488 -1.295232,1.726976 -1.942848,2.590464 -1.295232,1.726976 -2.590464,3.453952 -3.77776,5.180928 -0.647616,0.863488 -1.295232,1.61904 -1.834912,2.482528 -0.755552,1.295232 -1.403168,2.590464 -1.942848,3.993632 -0.431744,1.295232 -0.647616,2.590464 -0.755552,3.993632 -0.107936,0.431744 -0.107936,0.863488 0,1.295232 0,0.863488 0.107936,1.834912 0.323808,2.590464 z"
       id="text1"
       style="font-size:107.936px;font-family:'Child Hood';-inkscape-font-specification:'Child Hood, Normal';fill:#bbbbbb;stroke-width:0.317668"
       aria-label="Z" />
  </g>
</svg>
