<?xml version="1.0" encoding="UTF-8" standalone="no"?>
<!-- Created with Inkscape (http://www.inkscape.org/) -->

<svg
   width="100mm"
   height="100mm"
   viewBox="0 0 100 100"
   version="1.1"
   id="svg1"
   inkscape:version="1.4.2 (f4327f4, 2025-05-13)"
   sodipodi:docname="letter-X.svg"
   xmlns:inkscape="http://www.inkscape.org/namespaces/inkscape"
   xmlns:sodipodi="http://sodipodi.sourceforge.net/DTD/sodipodi-0.dtd"
   xmlns="http://www.w3.org/2000/svg"
   xmlns:svg="http://www.w3.org/2000/svg">
  <sodipodi:namedview
     id="namedview1"
     pagecolor="#ffffff"
     bordercolor="#000000"
     borderopacity="0.25"
     inkscape:showpageshadow="2"
     inkscape:pageopacity="0.0"
     inkscape:pagecheckerboard="0"
     inkscape:deskcolor="#d1d1d1"
     inkscape:document-units="mm"
     inkscape:zoom="0.97386896"
     inkscape:cx="96.522226"
     inkscape:cy="102.1698"
     inkscape:window-width="1253"
     inkscape:window-height="981"
     inkscape:window-x="-8"
     inkscape:window-y="0"
     inkscape:window-maximized="0"
     inkscape:current-layer="layer1" />
  <defs
     id="defs1" />
  <g
     inkscape:label="Шар 1"
     inkscape:groupmode="layer"
     id="layer1">
    <path
       d="m 31.085225,76.063248 c 0.509825,0.81572 1.22358,1.63144 1.83537,2.44716 1.01965,1.325545 2.44716,2.44716 3.772705,3.364845 1.42751,1.01965 3.05895,1.733405 4.588425,2.345195 1.529475,0.509825 3.05895,0.81572 4.588425,1.01965 3.364844,0.509825 6.933619,0.20393 10.196499,-0.917685 3.568775,-1.22358 6.627725,-3.05895 9.58471,-5.50611 2.549125,-2.24323 4.69039,-4.996285 6.423795,-7.95327 1.83537,-3.05895 3.160914,-6.423795 4.078599,-9.78864 1.121615,-3.670739 1.733405,-7.443444 2.141265,-11.114184 0.509825,-3.568775 0.61179,-7.035585 0.713755,-10.60436 0,-7.13755 -0.61179,-14.275099 -1.325545,-21.310684 -0.509825,-3.976635 -1.01965,-8.0552347 -5.608074,-8.0552347 -1.42751,0.1019647 -2.85502,0.5098247 -3.772705,1.6314397 -0.40786,0.40786 -0.81572,1.01965 -1.121615,1.529475 -0.509825,0.81572 -0.81572,1.733405 -0.81572,2.753055 0,2.141265 -0.101965,4.180565 -0.40786,6.32183 -0.61179,4.69039 -1.937335,9.38078 -3.772705,13.765274 -1.733405,3.976635 -3.87467,7.851305 -6.52576,11.42008 -0.81572,1.01965 -1.83537,2.141265 -2.85502,3.05895 -0.713755,0.40786 -1.325545,0.81572 -2.0393,1.121615 -0.61179,0.305895 -1.325545,0.40786 -1.937335,0.61179 -0.509825,0 -1.01965,0 -1.42751,0 -0.40786,-0.101965 -0.713754,-0.20393 -1.019649,-0.305895 -0.305895,-0.101965 -0.509825,-0.305895 -0.81572,-0.509825 -0.305895,-0.20393 -0.61179,-0.509825 -0.917685,-0.917685 -0.40786,-0.61179 -0.81572,-1.325545 -1.22358,-2.0393 -0.713755,-1.83537 -1.121615,-3.772705 -1.42751,-5.71004 -0.40786,-3.772705 -0.305895,-7.54541 0.20393,-11.318114 0.713755,-4.89432 1.83537,-9.58471 3.05895,-14.377065 0.305895,-1.325545 0.20393,-2.85502 -0.61179,-4.0786 -0.61179,-1.121615 -1.83537,-2.141265 -3.160915,-2.44716 -1.325545,-0.305895 -2.85502,-0.305895 -4.0786,0.509825 -1.22358,0.713755 -2.141265,1.83537 -2.44716,3.26288 -1.937335,7.443445 -3.772705,15.09082 -3.87467,22.840159 -0.101965,4.0786 0.305895,8.1572 1.42751,12.133835 0.917685,3.364845 2.44716,6.627725 4.89432,9.17685 1.42751,1.529475 3.05895,2.549124 4.89432,3.364844 2.0393,0.81572 4.28253,1.22358 6.423794,1.121615 1.22358,-0.101965 2.44716,-0.305895 3.568775,-0.509825 1.22358,-0.305895 2.345195,-0.81572 3.46681,-1.325545 1.83537,-0.81572 3.46681,-2.039299 4.89432,-3.364844 1.529475,-1.325545 2.753055,-2.956985 3.976635,-4.48646 1.01965,-1.325545 1.937335,-2.65109 2.753055,-4.0786 0.101965,-0.20393 0.305895,-0.40786 0.40786,-0.61179 -0.101965,0.40786 -0.101965,0.917685 -0.20393,1.325545 -0.61179,4.28253 -1.529475,8.463095 -3.160915,12.439729 -0.81572,2.0393 -1.937335,3.976635 -3.26288,5.71004 -1.01965,1.325545 -2.24323,2.44716 -3.46681,3.46681 -1.22358,0.917685 -2.44716,1.63144 -3.772705,2.24323 -1.22358,0.509825 -2.345195,0.81572 -3.568775,1.01965 -1.01965,0.101965 -2.0393,0.101965 -3.05895,0 -1.019649,-0.20393 -1.937334,-0.40786 -2.855019,-0.81572 -0.81572,-0.305895 -1.63144,-0.81572 -2.345195,-1.325545 -0.509825,-0.40786 -0.917685,-0.917685 -1.42751,-1.42751 -0.20393,-0.305895 -0.509825,-0.713755 -0.713755,-1.121615 -0.20393,-0.61179 -0.40786,-1.121615 -0.81572,-1.529475 -0.40786,-0.61179 -0.917685,-1.01965 -1.529475,-1.42751 -1.121615,-0.61179 -2.85502,-0.917685 -4.180565,-0.509825 -1.22358,0.40786 -2.44716,1.22358 -3.160915,2.44716 -0.61179,1.22358 -1.01965,2.85502 -0.509825,4.180565 0.40786,0.917685 0.81572,1.937335 1.325545,2.85502 z"
       id="text1"
       style="font-size:101.965px;font-family:'Child Hood';-inkscape-font-specification:'Child Hood, Normal';fill:#bbbbbb;stroke-width:0.300097"
       aria-label="Y" />
  </g>
</svg>
