<?xml version="1.0" encoding="UTF-8" standalone="no"?>
<!-- Created with Inkscape (http://www.inkscape.org/) -->

<svg
   width="100mm"
   height="100mm"
   viewBox="0 0 100 100"
   version="1.1"
   id="svg1"
   inkscape:version="1.4.2 (f4327f4, 2025-05-13)"
   sodipodi:docname="letter-M.svg"
   xmlns:inkscape="http://www.inkscape.org/namespaces/inkscape"
   xmlns:sodipodi="http://sodipodi.sourceforge.net/DTD/sodipodi-0.dtd"
   xmlns="http://www.w3.org/2000/svg"
   xmlns:svg="http://www.w3.org/2000/svg">
  <sodipodi:namedview
     id="namedview1"
     pagecolor="#ffffff"
     bordercolor="#000000"
     borderopacity="0.25"
     inkscape:showpageshadow="2"
     inkscape:pageopacity="0.0"
     inkscape:pagecheckerboard="0"
     inkscape:deskcolor="#d1d1d1"
     inkscape:document-units="mm"
     inkscape:zoom="0.97386896"
     inkscape:cx="96.00881"
     inkscape:cy="102.1698"
     inkscape:window-width="1196"
     inkscape:window-height="981"
     inkscape:window-x="-8"
     inkscape:window-y="0"
     inkscape:window-maximized="0"
     inkscape:current-layer="layer1" />
  <defs
     id="defs1" />
  <g
     inkscape:label="Шар 1"
     inkscape:groupmode="layer"
     id="layer1">
    <path
       d="m 27.379711,79.994963 c 0.104725,1.46615 0.523625,2.827575 1.570875,3.874825 0.942525,0.942525 2.5134,1.6756 3.874825,1.570875 1.46615,0 2.9323,-0.523625 3.874825,-1.570875 0.942525,-1.04725 1.780325,-2.408675 1.6756,-3.874825 -0.62835,-8.063824 -0.8378,-16.127649 -0.733075,-24.296199 0,-2.0945 0,-4.293725 0.104725,-6.388225 2.5134,6.7024 5.759875,13.300075 9.529975,19.374125 2.5134,4.189 5.340975,8.16855 8.482725,11.938649 0.733075,0.8378 1.361425,1.570875 2.199225,2.30395 1.46615,1.2567 2.9323,2.0945 4.712625,2.827575 1.780325,0.62835 3.665375,0.62835 5.550425,0.20945 1.780325,-0.314175 3.3512,-1.2567 4.712625,-2.408675 2.199225,-1.88505 3.665375,-4.817349 4.189,-7.540199 0.62835,-2.9323 0.733075,-5.8646 0.942525,-8.7969 0.4189,-5.23625 0.733075,-10.577225 0.942525,-15.813475 0.62835,-10.577225 0.942525,-21.15445 1.04725,-31.731675 0,-1.2567 0.104725,-2.618125 0.104725,-3.97955 0,-1.361425 -0.62835,-2.827575 -1.6756,-3.874825 -0.942525,-0.942524 -2.5134,-1.675599 -3.874825,-1.570874 -1.361425,0 -2.827575,0.523625 -3.874825,1.570874 -0.942525,1.04725 -1.570875,2.408675 -1.570875,3.874825 -0.104725,7.5402 -0.20945,15.0804 -0.523625,22.725325 -0.314175,7.5402 -0.62835,15.0804 -1.151975,22.6206 -0.104725,1.989775 -0.314175,4.084275 -0.4189,6.178775 -0.104725,1.780325 -0.20945,3.56065 -0.4189,5.340975 -0.104725,0.733075 -0.314175,1.361425 -0.523625,2.0945 -0.104725,0.104725 -0.20945,0.314175 -0.314175,0.4189 -0.104725,0 -0.20945,-0.104725 -0.314175,-0.104725 -1.04725,-0.942525 -1.88505,-2.0945 -2.72285,-3.14175 -4.293725,-5.550425 -8.063825,-11.624475 -11.10085,-17.907975 -0.8378,-1.570875 -1.570875,-3.246475 -2.30395,-4.922075 -2.72285,-6.597675 -4.81735,-13.509525 -6.178775,-20.630825 -0.314175,-1.780325 -0.62835,-3.665375 -0.942525,-5.550425 -0.314175,-2.5134 -0.523625,-5.131525 -0.62835,-7.644925 -0.104725,-1.46615 -0.62835,-2.827575 -1.6756,-3.874825 -0.942525,-0.942524 -2.5134,-1.6755995 -3.874825,-1.6755995 -1.46615,0.104725 -2.9323,0.6283505 -3.874825,1.6755995 -5.65515,5.65515 -4.712625,23.0395 -5.131525,30.474975 -0.4189,8.16855 -0.62835,16.3371 -0.4189,24.50565 0.20945,4.6079 0.4189,9.111075 0.733075,13.718974 z"
       id="text1"
       style="font-size:104.725px;font-family:'Child Hood';-inkscape-font-specification:'Child Hood, Normal';fill:#bbbbbb;stroke-width:0.308217"
       aria-label="N" />
  </g>
</svg>
