<?xml version="1.0" encoding="UTF-8" standalone="no"?>
<!-- Created with Inkscape (http://www.inkscape.org/) -->

<svg
   width="100mm"
   height="100mm"
   viewBox="0 0 100 100"
   version="1.1"
   id="svg1"
   inkscape:version="1.4.2 (f4327f4, 2025-05-13)"
   sodipodi:docname="letter-A.svg"
   xmlns:inkscape="http://www.inkscape.org/namespaces/inkscape"
   xmlns:sodipodi="http://sodipodi.sourceforge.net/DTD/sodipodi-0.dtd"
   xmlns="http://www.w3.org/2000/svg"
   xmlns:svg="http://www.w3.org/2000/svg">
  <sodipodi:namedview
     id="namedview1"
     pagecolor="#ffffff"
     bordercolor="#000000"
     borderopacity="0.25"
     inkscape:showpageshadow="2"
     inkscape:pageopacity="0.0"
     inkscape:pagecheckerboard="0"
     inkscape:deskcolor="#d1d1d1"
     inkscape:document-units="mm"
     inkscape:zoom="1.3772587"
     inkscape:cx="159.37456"
     inkscape:cy="187.69168"
     inkscape:window-width="1920"
     inkscape:window-height="991"
     inkscape:window-x="-9"
     inkscape:window-y="-9"
     inkscape:window-maximized="1"
     inkscape:current-layer="layer1" />
  <defs
     id="defs1" />
  <g
     inkscape:label="Шар 1"
     inkscape:groupmode="layer"
     id="layer1">
    <path
       d="m 73.69656,25.24863 c -0.831896,-2.287714 -1.871766,-4.471441 -3.327584,-6.447194 -1.663792,-2.183727 -3.639545,-4.263467 -6.135233,-5.511311 -2.495688,-1.247844 -5.19935,-1.975753 -8.006999,-1.871766 -2.911636,0.103987 -5.511311,0.831896 -8.110986,2.07974 -1.767779,0.727909 -3.431571,1.871766 -4.887389,3.11961 0,-0.207974 -0.103987,-0.415948 -0.103987,-0.623922 -0.103987,-0.727909 -0.311961,-1.455818 -0.623922,-2.07974 -0.727909,-1.143857 -1.975753,-2.183727 -3.327584,-2.495688 -1.351831,-0.311961 -2.911636,-0.207974 -4.15948,0.519935 -1.143857,0.727909 -2.287714,1.871766 -2.495688,3.327584 -1.455818,8.838895 -2.495688,17.67779 -3.223597,26.620672 -0.623922,8.526934 -0.935883,17.053868 -0.831896,25.684789 0,4.783402 0.207974,9.566804 0.415948,14.350206 0.103987,1.455818 0.623922,2.807649 1.663792,3.847519 0.935883,0.935883 2.495688,1.663792 3.847519,1.663792 1.03987,-0.103987 2.183727,-0.415948 3.015623,-0.935883 8.006999,2.599675 17.365829,0.935883 24.020997,-4.055493 1.975753,-1.559805 3.951506,-3.223597 5.511311,-5.095363 1.663792,-1.975753 3.223597,-4.055493 4.471441,-6.343207 2.391701,-4.263467 4.055493,-9.046869 4.887389,-13.934258 C 77.232118,51.453354 77.440092,45.838056 76.81617,40.118771 76.296235,35.127395 75.568326,30.032032 73.69656,25.24863 Z m -7.799025,28.07649 c -0.519935,3.223597 -1.351831,6.343207 -2.495688,9.254843 -1.03987,2.287714 -2.287714,4.471441 -3.743532,6.551181 -1.247844,1.455818 -2.599675,2.807649 -4.055493,4.055493 -1.247844,0.935883 -2.495688,1.663792 -3.951506,2.287714 -1.351831,0.519935 -2.807649,0.935883 -4.263467,1.143857 -1.351831,0.207974 -2.703662,0.207974 -4.055493,0.103987 -1.143857,-0.207974 -2.287714,-0.519935 -3.431571,-0.935883 -0.727909,-5.19935 -0.519935,-11.126609 -0.415948,-16.533933 0,-9.774778 1.871766,-16.741907 5.407324,-26.516685 0.935883,-1.975753 1.975753,-3.847519 3.223597,-5.615298 0.727909,-0.935883 1.559805,-1.767779 2.391701,-2.495688 0.935883,-0.623922 1.871766,-1.143857 2.807649,-1.559805 0.727909,-0.311961 1.559805,-0.519935 2.391701,-0.727909 0.519935,0 1.143857,0 1.663792,0 0.519935,0.103987 0.935883,0.207974 1.351831,0.415948 0.415948,0.207974 0.831896,0.415948 1.247844,0.727909 0.519935,0.415948 0.935883,0.831896 1.351831,1.351831 0.727909,1.03987 1.351831,2.07974 1.767779,3.223597 1.351831,3.327584 2.07974,7.071116 2.599675,10.710661 0.623922,4.783402 0.727909,9.774778 0.207974,14.55818 z"
       id="text1"
       style="font-size:103.987px;font-family:'Child Hood';-inkscape-font-specification:'Child Hood, Normal';fill:#bbbbbb;stroke-width:0.306046"
       aria-label="D" />
  </g>
</svg>
