<?xml version="1.0" encoding="UTF-8" standalone="no"?>
<!-- Created with Inkscape (http://www.inkscape.org/) -->

<svg
   width="100mm"
   height="100mm"
   viewBox="0 0 100 100"
   version="1.1"
   id="svg1"
   inkscape:version="1.4.2 (f4327f4, 2025-05-13)"
   sodipodi:docname="letter-M.svg"
   xmlns:inkscape="http://www.inkscape.org/namespaces/inkscape"
   xmlns:sodipodi="http://sodipodi.sourceforge.net/DTD/sodipodi-0.dtd"
   xmlns="http://www.w3.org/2000/svg"
   xmlns:svg="http://www.w3.org/2000/svg">
  <sodipodi:namedview
     id="namedview1"
     pagecolor="#ffffff"
     bordercolor="#000000"
     borderopacity="0.25"
     inkscape:showpageshadow="2"
     inkscape:pageopacity="0.0"
     inkscape:pagecheckerboard="0"
     inkscape:deskcolor="#d1d1d1"
     inkscape:document-units="mm"
     inkscape:zoom="0.97386896"
     inkscape:cx="96.00881"
     inkscape:cy="102.1698"
     inkscape:window-width="1196"
     inkscape:window-height="981"
     inkscape:window-x="-8"
     inkscape:window-y="0"
     inkscape:window-maximized="0"
     inkscape:current-layer="layer1" />
  <defs
     id="defs1" />
  <g
     inkscape:label="Шар 1"
     inkscape:groupmode="layer"
     id="layer1">
    <path
       d="m 24.888089,81.588275 c 0.100446,1.406244 0.50223,2.712042 1.607136,3.716502 1.00446,0.904014 2.51115,1.607136 3.917394,1.50669 1.406244,0 2.912934,-0.50223 3.917394,-1.50669 0.904014,-1.00446 1.707582,-2.310258 1.607136,-3.716502 -0.602676,-7.734342 -0.803568,-15.468684 -0.803568,-23.303472 0.100446,-4.52007 0.200892,-9.04014 0.50223,-13.56021 0.602676,1.305798 1.205352,2.51115 1.908474,3.816948 1.50669,2.912934 3.214272,5.624976 5.323638,8.136126 1.104906,1.305798 2.410704,2.310258 3.816948,3.314718 0.50223,0.301338 1.00446,0.703122 1.607136,0.904014 0.904014,0.401784 1.908474,0.803568 2.912934,1.00446 2.209812,0.401784 4.419624,0.50223 6.52899,-0.200892 2.109366,-0.602676 3.816948,-1.607136 5.424084,-3.01338 1.305798,-1.104906 2.410704,-2.410704 3.314718,-3.716502 0.803568,-1.104906 1.50669,-2.310258 2.209812,-3.51561 0.100446,-0.301338 0.301338,-0.602676 0.50223,-1.00446 0.200892,6.328098 0.301338,12.656196 0.50223,18.984294 0.100446,4.620516 0.200892,9.341478 0.301338,14.06244 0.100446,1.406244 0.602676,2.812488 1.607136,3.716502 1.00446,0.904014 2.51115,1.607136 3.917394,1.607136 1.406244,-0.100446 2.912934,-0.50223 3.917394,-1.607136 1.00446,-1.00446 1.607136,-2.310258 1.607136,-3.716502 -0.200892,-8.337018 -0.401784,-16.674036 -0.602676,-25.011054 -0.200892,-8.337018 -0.50223,-16.674036 -0.703122,-25.011054 -0.100446,-4.620516 -0.200892,-9.341478 -0.301338,-14.06244 -0.100446,-1.406244 -0.602676,-2.812488 -1.607136,-3.716502 -1.00446,-0.904014 -2.51115,-1.607136 -3.917394,-1.607136 -3.415164,0.200892 -6.629436,2.912934 -6.629436,6.127206 -0.100446,0.904014 -0.200892,1.707582 -0.301338,2.611596 -1.00446,6.227652 -2.712042,12.254412 -5.223192,18.08028 -0.703122,1.607136 -1.607136,3.314718 -2.410704,4.921854 -0.803568,1.305798 -1.50669,2.712042 -2.51115,3.917394 -0.401784,0.50223 -0.904014,1.00446 -1.406244,1.406244 -0.200892,0.200892 -0.50223,0.301338 -0.703122,0.401784 -0.200892,0.100446 -0.301338,0.100446 -0.50223,0.100446 -0.100446,0 -0.200892,0 -0.401784,0 -0.100446,0 -0.301338,0 -0.401784,-0.100446 -0.301338,-0.100446 -0.602676,-0.301338 -0.904014,-0.50223 -0.602676,-0.50223 -1.205352,-1.104906 -1.707582,-1.607136 -1.305798,-1.808028 -2.310258,-3.616056 -3.314718,-5.52453 -1.205352,-2.109366 -2.209812,-4.218732 -3.214272,-6.428544 -2.712042,-6.328098 -4.821408,-12.857088 -6.127206,-19.58697 -0.200892,-1.205352 -1.406244,-2.51115 -2.51115,-3.214272 -1.205352,-0.602676 -2.912934,-0.904014 -4.218732,-0.50223 -1.305798,0.401784 -2.611596,1.205352 -3.314718,2.410704 -0.200892,0.401784 -0.401784,0.904014 -0.50223,1.305798 -0.301338,0.703122 -0.50223,1.908474 -0.50223,2.51115 -1.205352,8.136126 -2.00892,16.372698 -2.51115,24.508824 -0.401784,7.834788 -0.602676,15.669576 -0.401784,23.504364 0.200892,4.419624 0.401784,8.738802 0.703122,13.158426 z"
       id="text1"
       style="font-size:100.446px;font-family:'Child Hood';-inkscape-font-specification:'Child Hood, Normal';fill:#bbbbbb;stroke-width:0.295625"
       aria-label="M" />
  </g>
</svg>
