<?xml version="1.0" encoding="UTF-8" standalone="no"?>
<!-- Created with Inkscape (http://www.inkscape.org/) -->

<svg
   width="100mm"
   height="100mm"
   viewBox="0 0 100 100"
   version="1.1"
   id="svg1"
   inkscape:version="1.4.2 (f4327f4, 2025-05-13)"
   sodipodi:docname="letter-A.svg"
   xmlns:inkscape="http://www.inkscape.org/namespaces/inkscape"
   xmlns:sodipodi="http://sodipodi.sourceforge.net/DTD/sodipodi-0.dtd"
   xmlns="http://www.w3.org/2000/svg"
   xmlns:svg="http://www.w3.org/2000/svg">
  <sodipodi:namedview
     id="namedview1"
     pagecolor="#ffffff"
     bordercolor="#000000"
     borderopacity="0.25"
     inkscape:showpageshadow="2"
     inkscape:pageopacity="0.0"
     inkscape:pagecheckerboard="0"
     inkscape:deskcolor="#d1d1d1"
     inkscape:document-units="mm"
     inkscape:zoom="1.3772587"
     inkscape:cx="159.37456"
     inkscape:cy="187.69168"
     inkscape:window-width="1920"
     inkscape:window-height="991"
     inkscape:window-x="-9"
     inkscape:window-y="-9"
     inkscape:window-maximized="1"
     inkscape:current-layer="layer1" />
  <defs
     id="defs1" />
  <g
     inkscape:label="Шар 1"
     inkscape:groupmode="layer"
     id="layer1">
    <path
       d="m 74.85929,64.259948 c -0.991447,-0.892302 -2.280328,-1.586315 -3.668354,-1.48717 -1.388025,0 -2.776051,0.495723 -3.668353,1.48717 -1.090592,1.189737 -2.280328,2.280328 -3.470065,3.271775 -1.883749,1.388026 -3.866643,2.577762 -6.047826,3.569209 -2.181184,0.892303 -4.560657,1.487171 -6.940129,1.88375 -2.280329,0.198289 -4.461512,0.297434 -6.74184,0 -1.388026,-0.19829 -2.776052,-0.594869 -4.064933,-1.090592 -5.254669,-3.073486 -4.6598,-7.534997 -1.68546,-11.40164 1.288882,-1.586316 2.875197,-3.073486 4.560657,-4.362367 2.280328,-1.784605 4.85809,-3.271775 7.534997,-4.461512 4.263222,-1.48717 11.40164,-1.883749 13.781113,-3.965788 0.892302,-0.991447 1.586315,-2.478617 1.48717,-3.767498 0,-1.288881 -0.495723,-2.676907 -1.48717,-3.668354 -0.991447,-0.892302 -2.280328,-1.586315 -3.668354,-1.487171 -8.724733,0 -12.393087,0.495724 -15.962296,0.19829 -3.866644,-0.892302 -6.543551,-2.875196 -5.155525,-6.74184 0.495724,-1.090591 1.090592,-2.082038 1.784605,-2.974341 1.288881,-1.586315 2.676907,-2.974341 4.263222,-4.263222 1.784604,-1.288881 3.569209,-2.379472 5.552103,-3.271775 1.68546,-0.594868 3.37092,-1.090591 5.155524,-1.48717 1.090592,-0.09915 2.181184,-0.09915 3.37092,0 0.694013,0.09914 1.388026,0.297434 2.082039,0.594868 0.396579,0.198289 0.892302,0.396579 1.189736,0.694013 0.396579,0.297434 0.694013,0.594868 0.991447,0.892302 0.991447,1.883749 0.495724,2.974341 0.495724,4.85809 -0.19829,0.694013 -0.09915,1.388026 0.09914,2.082039 0.297434,1.189736 1.288881,2.478618 2.379473,3.073486 1.189737,0.594868 2.676907,0.991447 3.965788,0.495723 1.189736,-0.396579 2.676907,-1.189736 3.17263,-2.379473 0.396579,-0.892302 0.793158,-1.883749 0.991447,-2.875196 0.19829,-0.991447 0.297435,-2.082038 0.297435,-3.073485 -0.19829,-2.181184 -0.694013,-3.965788 -1.586316,-5.948682 -0.297434,-0.594869 -0.594868,-1.090592 -0.991447,-1.68546 -0.594868,-0.793158 -1.189736,-1.586315 -1.883749,-2.379473 -1.288881,-1.189736 -2.676907,-2.280328 -4.263222,-2.974341 -0.991447,-0.396579 -2.082039,-0.892302 -3.17263,-1.189736 -1.090592,-0.297435 -2.280328,-0.396579 -3.37092,-0.5948686 -1.982894,-0.1982894 -3.866643,0 -5.849537,0.2974336 -3.37092,0.495724 -6.54355,1.68546 -9.517891,3.172631 -2.974341,1.48717 -5.651248,3.470064 -8.129866,5.750392 -0.991447,0.991447 -1.982894,2.082039 -2.974341,3.172631 -1.090591,1.48717 -2.280328,3.073485 -3.073485,4.758945 -0.495724,0.991447 -0.892303,2.082039 -1.288882,3.172631 -0.297434,1.090591 -0.495723,2.181183 -0.594868,3.271775 -0.09914,0.694013 -0.09914,1.48717 -0.09914,2.181183 0.198289,1.090592 0.297434,2.280328 0.694012,3.271775 0.594869,1.982894 1.68546,3.767499 3.073486,5.254669 0.694013,0.694013 1.487171,1.288881 2.280328,1.88375 0.495724,0.396578 1.090592,0.694012 1.586315,0.991447 0.297435,0.198289 0.694013,0.297434 0.991447,0.495723 -4.957235,3.668354 -9.220457,8.427299 -11.005061,14.375981 -1.189737,4.064933 -0.892302,8.328155 1.090591,12.095654 0.495724,0.892302 1.189737,1.68546 1.784605,2.577762 0.495724,0.495723 0.892302,0.991447 1.388026,1.388026 1.288881,1.189736 2.776051,2.181183 4.362367,2.875196 1.586315,0.793158 3.271775,1.48717 5.056379,1.883749 1.784605,0.396579 3.569209,0.694013 5.452959,0.793158 3.370919,0.297434 6.840984,-0.09915 10.211904,-0.793158 3.271775,-0.694013 6.444405,-1.982894 9.418746,-3.470064 2.974341,-1.586315 5.849537,-3.668354 8.22901,-5.948682 0.594868,-0.594868 1.090592,-1.090592 1.586315,-1.68546 0.892303,-0.991447 1.487171,-2.280328 1.487171,-3.668354 0,-1.288881 -0.495724,-2.776052 -1.487171,-3.668354 z"
       id="text1"
       style="font-size:99.1447px;font-family:'Child Hood';-inkscape-font-specification:'Child Hood, Normal';fill:#bbbbbb;stroke-width:0.291795"
       aria-label="E" />
  </g>
</svg>
