<?xml version="1.0" encoding="UTF-8" standalone="no"?>
<!-- Created with Inkscape (http://www.inkscape.org/) -->

<svg
   width="100mm"
   height="100mm"
   viewBox="0 0 100 100"
   version="1.1"
   id="svg1"
   inkscape:version="1.4.2 (f4327f4, 2025-05-13)"
   sodipodi:docname="letter-A.svg"
   xmlns:inkscape="http://www.inkscape.org/namespaces/inkscape"
   xmlns:sodipodi="http://sodipodi.sourceforge.net/DTD/sodipodi-0.dtd"
   xmlns="http://www.w3.org/2000/svg"
   xmlns:svg="http://www.w3.org/2000/svg">
  <sodipodi:namedview
     id="namedview1"
     pagecolor="#ffffff"
     bordercolor="#000000"
     borderopacity="0.25"
     inkscape:showpageshadow="2"
     inkscape:pageopacity="0.0"
     inkscape:pagecheckerboard="0"
     inkscape:deskcolor="#d1d1d1"
     inkscape:document-units="mm"
     inkscape:zoom="1.3772587"
     inkscape:cx="159.37456"
     inkscape:cy="112.17936"
     inkscape:window-width="1920"
     inkscape:window-height="991"
     inkscape:window-x="-9"
     inkscape:window-y="-9"
     inkscape:window-maximized="1"
     inkscape:current-layer="layer1" />
  <defs
     id="defs1" />
  <g
     inkscape:label="Шар 1"
     inkscape:groupmode="layer"
     id="layer1">
    <path
       d="m 76.359357,80.257879 c -0.53647,-4.613642 -0.751058,-9.334578 -0.429176,-13.94822 0.214588,-1.180234 0.429176,-2.253174 0.643764,-3.433408 0.429176,-1.394822 0.214588,-3.21882 -0.53647,-4.399054 -0.751058,-1.180234 -2.038586,-2.253174 -3.433408,-2.575056 -6.008464,-1.502116 -15.128454,0.321882 -21.244212,0.429176 -1.502116,0.107294 -3.004232,0.643764 -3.969878,1.716704 -1.07294,0.965646 -1.716704,2.575056 -1.716704,3.969878 0.107294,1.394822 0.53647,3.004232 1.716704,3.969878 1.07294,0.965646 2.467762,1.716704 3.969878,1.60941 4.184466,-0.107294 8.261638,-0.214588 12.446104,-0.321882 0,0.214588 -0.107294,0.429176 -0.214588,0.643764 -0.751058,1.60941 -1.716704,3.326114 -2.789644,4.82823 -0.858352,0.965646 -1.823998,1.931292 -2.789644,2.896938 -1.07294,0.643764 -2.14588,1.287528 -3.326114,1.823998 -1.07294,0.429176 -2.253174,0.751058 -3.433408,0.965646 -0.858352,0.107294 -1.823998,0.107294 -2.789644,0 -0.858352,-0.107294 -1.60941,-0.321882 -2.360468,-0.643764 -0.858352,-0.429176 -1.716704,-0.858352 -2.467762,-1.394822 -0.858352,-0.751058 -1.60941,-1.60941 -2.360468,-2.467762 -0.858352,-1.180234 -1.60941,-2.360468 -2.14588,-3.647996 -0.858352,-2.038586 -1.394822,-4.184466 -1.716704,-6.43764 -0.429176,-4.29176 -0.321882,-8.690814 0.214588,-12.982574 0.751058,-5.042818 2.038586,-9.978342 3.969878,-14.699278 1.394822,-3.111526 3.004232,-6.223052 5.042818,-8.905402 1.07294,-1.394822 2.253174,-2.575056 3.540702,-3.75529 0.965646,-0.643764 2.038586,-1.287528 3.111526,-1.716704 0.965646,-0.429176 1.931292,-0.751058 3.004232,-0.858352 0.858352,-0.107294 1.60941,-0.107294 2.467762,0 0.643764,0.107294 1.180234,0.214588 1.823998,0.429176 0.429176,0.214588 0.858352,0.429176 1.287528,0.751058 0.429176,0.429176 0.751058,0.751058 1.180234,1.180234 0.214588,0.429176 0.53647,0.858352 0.751058,1.287528 0.107294,0.429176 0.214588,0.858352 0.321882,1.180234 0,0.321882 0,0.643764 0,0.965646 -0.321882,1.502116 -0.214588,3.004232 0.53647,4.29176 0.751058,1.180234 2.038586,2.253174 3.433408,2.575056 1.394822,0.321882 3.004232,0.321882 4.29176,-0.53647 1.180234,-0.751058 2.360468,-1.931292 2.575056,-3.326114 0.321882,-1.502116 0.53647,-3.004232 0.429176,-4.506348 -0.107294,-0.965646 -0.214588,-1.931292 -0.53647,-2.896938 -0.214588,-0.858352 -0.643764,-1.823998 -1.07294,-2.68235 -1.07294,-2.575056 -3.004232,-4.720936 -5.150112,-6.43764 -1.394822,-1.07294 -2.789644,-1.823998 -4.399054,-2.467762 -1.502116,-0.643764 -3.111526,-0.8583516 -4.720936,-1.0729396 -2.789644,-0.321882 -5.793876,0.107294 -8.476226,0.9656456 -11.480458,3.647996 -17.918098,15.128454 -21.566094,25.965148 -1.931292,5.471994 -3.004232,11.26587 -3.433408,17.16704 -0.214588,2.68235 -0.214588,5.3647 -0.107294,8.04705 0.214588,3.111526 0.643764,6.223052 1.502116,9.227284 0.858352,2.789644 2.038586,5.471994 3.647996,7.939756 0.858352,1.287528 1.716704,2.467762 2.789644,3.647996 1.07294,1.180234 2.253174,2.14588 3.540702,3.111526 2.14588,1.609409 4.613642,2.789643 7.295992,3.433407 3.111526,0.751058 6.115758,0.751058 9.334578,0.214588 2.68235,-0.429176 5.3647,-1.502116 7.725168,-2.789644 1.287528,-0.858351 2.575056,-1.716703 3.862584,-2.682349 0,0.429176 0.107294,0.858352 0.214588,1.394822 0.214588,1.287527 1.502116,2.682349 2.575056,3.326113 1.180234,0.751058 3.004232,0.965646 4.29176,0.53647 3.111526,-0.965646 4.506348,-3.862583 3.969878,-6.866815 -0.107294,-0.751058 -0.214588,-1.394822 -0.321882,-2.038586 z"
       id="text1"
       style="font-size:107.294px;font-family:'Child Hood';-inkscape-font-specification:'Child Hood, Normal';fill:#bbbbbb;stroke-width:0.315778"
       aria-label="G" />
  </g>
</svg>
