<?xml version="1.0" encoding="UTF-8" standalone="no"?>
<!-- Created with Inkscape (http://www.inkscape.org/) -->

<svg
   width="100mm"
   height="100mm"
   viewBox="0 0 100 100"
   version="1.1"
   id="svg1"
   inkscape:version="1.4.2 (f4327f4, 2025-05-13)"
   sodipodi:docname="letter-M.svg"
   xmlns:inkscape="http://www.inkscape.org/namespaces/inkscape"
   xmlns:sodipodi="http://sodipodi.sourceforge.net/DTD/sodipodi-0.dtd"
   xmlns="http://www.w3.org/2000/svg"
   xmlns:svg="http://www.w3.org/2000/svg">
  <sodipodi:namedview
     id="namedview1"
     pagecolor="#ffffff"
     bordercolor="#000000"
     borderopacity="0.25"
     inkscape:showpageshadow="2"
     inkscape:pageopacity="0.0"
     inkscape:pagecheckerboard="0"
     inkscape:deskcolor="#d1d1d1"
     inkscape:document-units="mm"
     inkscape:zoom="0.97386896"
     inkscape:cx="96.522226"
     inkscape:cy="102.1698"
     inkscape:window-width="1253"
     inkscape:window-height="981"
     inkscape:window-x="-8"
     inkscape:window-y="0"
     inkscape:window-maximized="0"
     inkscape:current-layer="layer1" />
  <defs
     id="defs1" />
  <g
     inkscape:label="Шар 1"
     inkscape:groupmode="layer"
     id="layer1">
    <path
       d="m 23.299586,70.475569 c 0.292117,1.752701 0.681607,3.505402 1.363213,5.160731 0.87635,2.142191 2.044818,4.284382 3.894892,5.842338 0.584233,0.486862 1.168467,0.973723 1.752701,1.363213 0.681606,0.389489 1.460584,0.681606 2.142191,0.973723 1.071095,0.389489 2.336935,0.584233 3.505402,0.584233 4.868615,0 9.152996,-3.40803 11.197815,-7.692411 1.850073,-3.602775 2.921169,-7.59504 3.894892,-11.489932 0.389489,-1.460584 0.778978,-2.921169 1.071095,-4.284381 1.26584,3.602775 2.726424,7.108178 4.381753,10.516209 0.778979,1.655329 1.65533,3.310658 2.53168,4.868615 0.389489,0.778978 0.778979,1.557956 1.363212,2.239562 0.681607,0.973723 1.460585,1.947446 2.336936,2.726425 1.363212,1.071095 2.531679,1.752701 4.187008,2.336935 0.486862,0.194745 1.071096,0.292117 1.65533,0.389489 0.584233,0.09737 1.265839,0.194745 1.850073,0.09737 1.557957,-0.194744 2.921169,-0.486861 4.284381,-1.265839 0.876351,-0.486862 1.65533,-1.168468 2.336936,-1.947446 0.778978,-1.071096 1.363212,-1.947446 1.850073,-3.115914 0.389489,-0.778978 0.681606,-1.557957 0.876351,-2.434307 0.389489,-1.850074 0.584234,-3.894892 0.681606,-5.744966 0.584234,-8.081901 0.973723,-16.163802 1.168468,-24.14833 0.09737,-8.081901 0,-16.163802 -0.292117,-24.148331 0,-1.071095 -0.09737,-2.044818 -0.09737,-3.018541 -0.09737,-1.363212 -0.486861,-2.629052 -1.460584,-3.602775 -0.876351,-0.876351 -2.336935,-1.557957 -3.602775,-1.557957 -1.363212,0.09737 -2.726424,0.486862 -3.700147,1.557957 -0.876351,0.973723 -1.557957,2.239563 -1.460585,3.602775 0.292117,7.108178 0.486862,14.313728 0.389489,21.421906 0,7.108178 -0.194744,14.216356 -0.584234,21.324534 -0.09737,2.044818 -0.292116,3.992264 -0.389489,6.037082 -0.09737,1.557957 -0.194744,3.115914 -0.389489,4.67387 -0.09737,0.681607 -0.194745,1.363213 -0.389489,1.947446 0,0 0,0 -0.09737,0 -0.194745,-0.194744 -0.38949,-0.389489 -0.584234,-0.681606 -1.071096,-1.557956 -1.947446,-3.213286 -2.726425,-4.965987 -0.87635,-1.655329 -1.655329,-3.40803 -2.434307,-5.160732 -2.629052,-6.231827 -4.576498,-12.658399 -5.842338,-19.279715 -0.486862,-3.018541 -0.389489,-7.692412 -2.434308,-9.73723 -0.973723,-0.876351 -2.434307,-1.557957 -3.700147,-1.557957 -2.434307,0.194745 -5.550221,2.336935 -5.744966,4.673871 -1.460584,9.250368 -2.921169,18.500736 -5.355476,27.55636 -0.681606,2.142191 -1.26584,4.381754 -2.142191,6.523944 -0.486861,1.071096 -0.973723,1.947446 -1.752701,2.726425 -0.584234,0.292117 -0.973723,0.584234 -1.460584,0.09737 -0.194745,-0.09737 -0.292117,-0.292117 -0.486862,-0.486861 -0.292117,-0.38949 -0.486861,-0.778979 -0.681606,-1.168468 -0.681606,-1.947446 -1.071095,-3.992264 -1.363212,-6.134455 -0.778979,-6.426572 -0.778979,-12.950516 -0.194745,-19.377087 0.194745,-1.65533 0.389489,-3.310659 0.584234,-4.965988 1.071095,-7.692411 2.726424,-15.287451 4.381753,-22.88249 0.292117,-1.363212 0.194745,-2.726424 -0.486861,-3.992264 -0.681606,-0.973723 -1.850074,-2.044819 -3.115914,-2.336935 -1.26584,-0.292117 -2.726424,-0.194745 -3.894892,0.584233 -1.071095,0.681606 -2.14219,1.752702 -2.336935,3.018542 -1.752701,7.595039 -3.40803,15.287451 -4.479126,23.077235 -1.071095,8.0819 -1.752701,16.163801 -0.973723,24.343074 0.194745,2.336936 0.584234,4.673871 0.973723,6.913434 z"
       id="text1"
       style="font-size:97.3723px;font-family:'Child Hood';-inkscape-font-specification:'Child Hood, Normal';fill:#bbbbbb;stroke-width:0.286578"
       aria-label="W" />
  </g>
</svg>
