<?xml version="1.0" encoding="UTF-8" standalone="no"?>
<!-- Created with Inkscape (http://www.inkscape.org/) -->

<svg
   width="100mm"
   height="100mm"
   viewBox="0 0 100 100"
   version="1.1"
   id="svg1"
   inkscape:version="1.4.2 (f4327f4, 2025-05-13)"
   sodipodi:docname="letter-M.svg"
   xmlns:inkscape="http://www.inkscape.org/namespaces/inkscape"
   xmlns:sodipodi="http://sodipodi.sourceforge.net/DTD/sodipodi-0.dtd"
   xmlns="http://www.w3.org/2000/svg"
   xmlns:svg="http://www.w3.org/2000/svg">
  <sodipodi:namedview
     id="namedview1"
     pagecolor="#ffffff"
     bordercolor="#000000"
     borderopacity="0.25"
     inkscape:showpageshadow="2"
     inkscape:pageopacity="0.0"
     inkscape:pagecheckerboard="0"
     inkscape:deskcolor="#d1d1d1"
     inkscape:document-units="mm"
     inkscape:zoom="0.97386896"
     inkscape:cx="96.00881"
     inkscape:cy="102.1698"
     inkscape:window-width="1196"
     inkscape:window-height="981"
     inkscape:window-x="-8"
     inkscape:window-y="0"
     inkscape:window-maximized="0"
     inkscape:current-layer="layer1" />
  <defs
     id="defs1" />
  <g
     inkscape:label="Шар 1"
     inkscape:groupmode="layer"
     id="layer1">
    <path
       d="m 24.432889,58.348091 c 0.635058,1.905174 1.375959,3.810348 2.328546,5.715522 0.529215,1.164273 2.011017,2.11686 3.281133,2.540232 0.635058,0.105843 1.375959,0.211686 2.11686,0.105843 0.105843,0.846744 0.211686,1.693488 0.423372,2.540232 0.211686,1.37596 0.635058,2.646076 1.164273,4.022035 0.740901,1.693488 1.481803,3.386976 2.540233,4.868778 2.11686,2.857761 4.657092,5.609679 8.044068,6.985638 0.952587,0.423372 2.011017,0.952587 3.069447,1.164273 1.164273,0.317529 2.434389,0.529215 3.598662,0.529215 2.011017,0.211686 4.127877,-0.105843 6.138894,-0.635058 3.916191,-1.05843 7.514853,-3.281133 10.372614,-6.138894 2.646075,-2.646075 4.762935,-5.821365 6.562266,-8.996655 1.799331,-3.49282 3.386976,-7.197325 4.551249,-10.90183 1.164273,-3.386976 1.905174,-6.879795 2.43439,-10.372614 0.529215,-3.810348 0.846744,-7.620696 0.740901,-11.431044 -0.211686,-3.281133 -0.635058,-6.668109 -1.587646,-9.737556 -0.846744,-3.069447 -2.222703,-6.138895 -4.127877,-8.679127 -1.164273,-1.481802 -2.222703,-2.751918 -3.598662,-3.916191 -1.481802,-1.270116 -3.069447,-2.328546 -4.868778,-3.069447 -1.799331,-0.846744 -3.704505,-1.481802 -5.715522,-1.799331 -2.011017,-0.317529 -4.022034,-0.529215 -6.033051,-0.317529 -2.011017,0.105843 -4.127877,0.423372 -6.033051,0.952587 -2.011017,0.529215 -3.810348,1.270116 -5.609679,2.011017 -3.069447,1.375959 -5.821365,3.281133 -8.46744,5.397993 -5.292151,4.445406 -9.208342,10.372615 -11.325202,16.829038 -1.05843,3.598662 -1.693488,7.40901 -1.693488,11.113515 0,2.11686 0.211686,4.23372 0.529215,6.35058 0.317529,1.693488 0.635058,3.281133 1.164273,4.868778 z m 9.631713,-14.606334 c 0.317529,-2.222703 0.952587,-4.339563 1.799332,-6.456423 0.846744,-2.011017 2.011017,-3.916191 3.281133,-5.609679 1.375959,-1.799331 2.963604,-3.386976 4.762935,-4.868778 1.799331,-1.270116 3.704505,-2.43439 5.715522,-3.281134 1.799331,-0.740901 3.598662,-1.270116 5.503836,-1.587645 1.481802,-0.105843 2.963604,-0.105843 4.445406,0 1.05843,0.211686 2.011017,0.423372 3.069447,0.846744 0.740901,0.317529 1.481802,0.740901 2.222703,1.270116 0.740901,0.635058 1.375959,1.270117 2.011017,2.011018 0.740901,1.05843 1.375959,2.222703 1.905174,3.386976 0.740901,2.011017 1.270116,4.127877 1.693488,6.244737 0.423372,3.916191 0.211686,7.726539 -0.211686,11.536887 -0.740901,4.868778 -2.011017,9.631713 -3.810348,14.077119 -1.375959,3.069447 -2.963604,6.033051 -4.974621,8.784969 -0.952587,1.164274 -2.011017,2.328547 -3.17529,3.281134 -0.846744,0.635058 -1.799331,1.164273 -2.751918,1.587645 -0.846744,0.317529 -1.693488,0.635058 -2.540232,0.740901 -0.740901,0.105843 -1.375959,0.105843 -2.011017,0 C 50.364425,75.600501 49.83521,75.494658 49.305995,75.282972 48.77678,74.965443 48.247565,74.647914 47.71835,74.330385 47.083292,73.80117 46.448234,73.166112 45.919019,72.531054 45.283961,71.578467 44.754746,70.62588 44.225531,69.567449 43.802159,68.403176 43.378787,67.13306 43.167101,65.862944 42.955415,63.851927 43.061258,61.84091 43.272944,59.72405 c 0.635058,-3.916191 1.799331,-7.832382 3.069447,-11.748573 0.423372,-1.270116 0.105843,-3.069447 -0.635058,-4.23372 -0.635058,-1.164273 -1.905174,-2.222703 -3.281133,-2.540232 -1.375959,-0.317529 -3.069447,-0.317529 -4.23372,0.529215 -1.270116,0.846744 -2.11686,1.905174 -2.646075,3.281133 -0.529216,1.799331 -1.058431,3.492819 -1.481803,5.29215 -0.211686,-2.222703 -0.211686,-4.339563 0,-6.562266 z"
       id="text1"
       style="font-size:105.843px;font-family:'Child Hood';-inkscape-font-specification:'Child Hood, Normal';fill:#bbbbbb;stroke-width:0.311508"
       aria-label="O" />
  </g>
</svg>
