<?xml version="1.0" encoding="UTF-8" standalone="no"?>
<!-- Created with Inkscape (http://www.inkscape.org/) -->

<svg
   width="100mm"
   height="100mm"
   viewBox="0 0 100 100"
   version="1.1"
   id="svg1"
   inkscape:version="1.4.2 (f4327f4, 2025-05-13)"
   sodipodi:docname="letter-M.svg"
   xmlns:inkscape="http://www.inkscape.org/namespaces/inkscape"
   xmlns:sodipodi="http://sodipodi.sourceforge.net/DTD/sodipodi-0.dtd"
   xmlns="http://www.w3.org/2000/svg"
   xmlns:svg="http://www.w3.org/2000/svg">
  <sodipodi:namedview
     id="namedview1"
     pagecolor="#ffffff"
     bordercolor="#000000"
     borderopacity="0.25"
     inkscape:showpageshadow="2"
     inkscape:pageopacity="0.0"
     inkscape:pagecheckerboard="0"
     inkscape:deskcolor="#d1d1d1"
     inkscape:document-units="mm"
     inkscape:zoom="0.97386896"
     inkscape:cx="96.00881"
     inkscape:cy="102.1698"
     inkscape:window-width="1196"
     inkscape:window-height="981"
     inkscape:window-x="-8"
     inkscape:window-y="0"
     inkscape:window-maximized="0"
     inkscape:current-layer="layer1" />
  <defs
     id="defs1" />
  <g
     inkscape:label="Шар 1"
     inkscape:groupmode="layer"
     id="layer1">
    <path
       d="m 29.740568,84.881233 c 0.223114,0.669342 0.669342,1.338684 1.227127,1.896469 1.004013,1.004013 2.677368,1.784912 4.127609,1.673355 1.561798,-0.111557 3.123596,-0.557785 4.127609,-1.673355 1.004013,-1.11557 1.896469,-2.677368 1.784912,-4.239166 -0.669342,-5.689407 -1.11557,-11.490371 -1.450241,-17.291334 4.908508,1.004013 10.151687,0.892456 14.948638,-0.446228 5.466293,-1.450241 10.709472,-4.46228 14.613967,-8.589889 3.792938,-4.127609 6.69342,-9.147674 7.920547,-14.613967 0.557785,-2.788925 0.892456,-5.800964 0.669342,-8.589889 -0.223114,-2.900482 -0.780899,-5.689407 -1.784912,-8.366775 -0.557785,-1.450241 -1.11557,-3.012039 -1.896469,-4.350723 -0.780899,-1.338684 -1.784912,-2.565811 -2.788925,-3.792938 -1.673355,-2.119583 -3.904495,-3.904495 -6.358749,-5.131622 -2.788925,-1.4502411 -5.800964,-2.2311401 -8.92456,-2.4542541 -1.11557,-0.111557 -2.23114,-0.111557 -3.235153,0 -1.673355,0.223114 -3.123596,0.446228 -4.685394,1.004013 -2.788925,1.0040131 -5.354736,2.5658111 -7.585876,4.6853941 -0.223114,-1.227127 -0.892456,-2.565811 -1.673355,-3.34671 -1.004013,-1.004013 -2.677368,-1.7849121 -4.127609,-1.6733551 -1.561798,0.111557 -3.123596,0.5577851 -4.127609,1.6733551 -0.334671,0.446228 -0.669342,0.780899 -0.892456,1.227127 -0.557785,0.892456 -0.892456,1.896469 -0.892456,2.900482 -0.780899,8.813003 -1.227127,17.514449 -1.450241,26.215895 0,10.486358 -0.669342,36.256024 2.454254,43.284115 z M 44.466092,29.437405 c 0.780899,-1.784912 1.673355,-3.458267 2.788925,-5.020065 0.669342,-0.780899 1.338684,-1.450241 2.119583,-2.119583 0.669342,-0.446228 1.227127,-0.780899 1.896469,-1.11557 0.669342,-0.223114 1.450241,-0.446228 2.23114,-0.557785 0.780899,-0.111557 1.673355,-0.111557 2.454254,0 0.892456,0.111557 1.784912,0.334671 2.677368,0.669342 0.780899,0.334671 1.561798,0.780899 2.23114,1.338684 0.669342,0.557785 1.338684,1.227127 2.008026,2.008026 0.669342,1.004013 1.227127,2.008026 1.784912,3.123596 0.557785,1.561798 1.004013,3.012039 1.227127,4.573837 0.223114,1.673355 0.223114,3.34671 0,5.020065 -0.223114,1.561798 -0.669342,3.123596 -1.338684,4.685394 -0.669342,1.561798 -1.561798,3.123596 -2.565811,4.46228 -1.11557,1.338684 -2.342697,2.565811 -3.681381,3.681381 -1.338684,1.004013 -2.677368,1.784912 -4.127609,2.454254 -1.673355,0.669342 -3.458267,1.11557 -5.131622,1.450241 -2.008026,0.111557 -4.016052,0.111557 -6.024078,-0.111557 -1.227127,-0.111557 -2.454254,-0.446228 -3.681381,-0.780899 0.111557,-1.673355 0.334671,-3.235153 0.446228,-4.908508 0.557785,-3.34671 1.227127,-6.804977 2.008026,-10.04013 0.669342,-3.012039 1.561798,-6.024078 2.677368,-8.813003 z"
       id="text1"
       style="font-size:111.557px;font-family:'Child Hood';-inkscape-font-specification:'Child Hood, Normal';fill:#bbbbbb;stroke-width:0.328327"
       aria-label="P" />
  </g>
</svg>
