<?xml version="1.0" encoding="UTF-8" standalone="no"?>
<!-- Created with Inkscape (http://www.inkscape.org/) -->

<svg
   width="100mm"
   height="100mm"
   viewBox="0 0 100 100"
   version="1.1"
   id="svg1"
   inkscape:version="1.4.2 (f4327f4, 2025-05-13)"
   sodipodi:docname="letter-A.svg"
   xmlns:inkscape="http://www.inkscape.org/namespaces/inkscape"
   xmlns:sodipodi="http://sodipodi.sourceforge.net/DTD/sodipodi-0.dtd"
   xmlns="http://www.w3.org/2000/svg"
   xmlns:svg="http://www.w3.org/2000/svg">
  <sodipodi:namedview
     id="namedview1"
     pagecolor="#ffffff"
     bordercolor="#000000"
     borderopacity="0.25"
     inkscape:showpageshadow="2"
     inkscape:pageopacity="0.0"
     inkscape:pagecheckerboard="0"
     inkscape:deskcolor="#d1d1d1"
     inkscape:document-units="mm"
     inkscape:zoom="1.3772587"
     inkscape:cx="159.37456"
     inkscape:cy="187.69168"
     inkscape:window-width="1920"
     inkscape:window-height="991"
     inkscape:window-x="-9"
     inkscape:window-y="-9"
     inkscape:window-maximized="1"
     inkscape:current-layer="layer1" />
  <defs
     id="defs1" />
  <g
     inkscape:label="Шар 1"
     inkscape:groupmode="layer"
     id="layer1">
    <path
       d="m 61.753245,69.852467 c -2.90348,1.20144 -5.90708,2.20264 -8.91068,2.70324 -1.40168,0.20024 -2.80336,0.20024 -4.10492,0.10012 -1.0012,-0.20024 -2.0024,-0.5006 -3.0036,-0.80096 -0.70084,-0.40048 -1.30156,-0.80096 -2.0024,-1.20144 -0.600721,-0.5006 -1.101321,-1.10132 -1.702041,-1.70204 -0.70084,-1.0012 -1.30156,-2.10252 -1.80216,-3.20384 -0.80096,-2.20264 -1.40168,-4.40528 -1.70204,-6.708041 -0.5006,-4.10492 -0.5006,-8.30996 0,-12.41488 0.70084,-4.20504 1.80216,-8.30996 3.40408,-12.31476 1.30156,-2.90348 2.803361,-5.70684 4.605521,-8.20984 2.70324,-3.103721 6.60792,-6.607921 10.61272,-4.905881 1.60192,0.80096 2.70324,2.40288 3.0036,3.904681 0,0.60072 0,1.10132 -0.10012,1.70204 -0.10012,1.20144 0.70084,2.90348 1.60192,3.70444 0.90108,0.90108 2.40288,1.60192 3.70444,1.60192 1.30156,-0.10012 2.70324,-0.60072 3.70444,-1.60192 0.30036,-0.30036 0.5006,-0.70084 0.80096,-1.0012 0.5006,-0.90108 0.70084,-1.70204 0.70084,-2.70324 0.30036,-2.402881 -0.20024,-4.805761 -1.20144,-7.008401 -0.90108,-2.10252 -2.20264,-4.20504 -4.0048,-5.70684 -2.0024,-1.60192 -4.20504,-3.0036 -6.80816,-3.40408 -2.70324,-0.60072 -5.5066,-0.5006 -8.20984,0.30036 -9.411281,2.60312 -14.917881,11.71404 -18.422081,20.224241 -1.60192,3.80456 -2.70324,7.80936 -3.40408,11.81416 -0.70084,4.5054 -1.0012,9.11092 -0.70084,13.61632 0.20024,4.20504 0.90108,8.410081 2.40288,12.314761 0.90108,2.0024 1.80216,4.0048 3.10372,5.80696 0.80096,1.0012 1.60192,2.0024 2.503,2.90348 1.0012,0.90108 2.0024,1.70204 3.10372,2.40288 3.80456,2.40288 8.710441,3.40408 13.115721,3.10372 2.503,-0.20024 5.006,-0.60072 7.30876,-1.30156 3.60432,-1.20144 7.10852,-2.503 10.31236,-4.10492 1.10132,-0.5006 2.10252,-2.0024 2.40288,-3.10372 0.30036,-1.30156 0.20024,-2.90348 -0.5006,-4.10492 -2.80336,-4.0048 -6.5078,-2.20264 -9.81176,-0.70084 z"
       id="text1"
       style="font-size:100.12px;font-family:'Child Hood';-inkscape-font-specification:'Child Hood, Normal';fill:#bbbbbb;stroke-width:0.294666"
       aria-label="C" />
  </g>
</svg>
