<?xml version="1.0" encoding="UTF-8" standalone="no"?>
<!-- Created with Inkscape (http://www.inkscape.org/) -->

<svg
   width="100mm"
   height="100mm"
   viewBox="0 0 100 100"
   version="1.1"
   id="svg1"
   inkscape:version="1.4.2 (f4327f4, 2025-05-13)"
   sodipodi:docname="letter-X.svg"
   xmlns:inkscape="http://www.inkscape.org/namespaces/inkscape"
   xmlns:sodipodi="http://sodipodi.sourceforge.net/DTD/sodipodi-0.dtd"
   xmlns="http://www.w3.org/2000/svg"
   xmlns:svg="http://www.w3.org/2000/svg">
  <sodipodi:namedview
     id="namedview1"
     pagecolor="#ffffff"
     bordercolor="#000000"
     borderopacity="0.25"
     inkscape:showpageshadow="2"
     inkscape:pageopacity="0.0"
     inkscape:pagecheckerboard="0"
     inkscape:deskcolor="#d1d1d1"
     inkscape:document-units="mm"
     inkscape:zoom="0.97386896"
     inkscape:cx="96.522226"
     inkscape:cy="102.1698"
     inkscape:window-width="1253"
     inkscape:window-height="981"
     inkscape:window-x="-8"
     inkscape:window-y="0"
     inkscape:window-maximized="0"
     inkscape:current-layer="layer1" />
  <defs
     id="defs1" />
  <g
     inkscape:label="Шар 1"
     inkscape:groupmode="layer"
     id="layer1">
    <path
       d="m 41.713857,49.741695 c 1.262832,2.6309 2.525664,5.2618 3.788496,7.8927 -1.683776,3.051844 -3.367552,6.103688 -5.051328,9.050296 -2.525664,4.73562 -5.156564,9.366004 -7.787464,13.996388 -0.631416,1.262832 -0.947124,2.841372 -0.52618,4.314676 0.315708,1.262832 1.368068,2.6309 2.525664,3.262316 1.262832,0.631416 2.841372,1.05236 4.314676,0.52618 1.262832,-0.420944 2.525664,-1.262832 3.262316,-2.525664 3.051844,-5.577508 6.208924,-11.04978 9.260768,-16.627288 0.420944,0.736652 0.841888,1.473304 1.157596,2.209956 1.157596,2.209956 2.209956,4.314676 3.367552,6.419396 1.473304,2.315192 3.051844,4.630384 5.156564,6.419396 1.157596,0.947124 2.315192,1.894248 3.68326,2.6309 0.947124,0.420944 1.789012,0.841888 2.841372,1.05236 0.947124,0.315708 1.999484,0.420944 2.946608,0.52618 1.368068,0.105236 3.051844,-0.736652 3.998968,-1.683776 0.947124,-0.947124 1.57854,-2.525664 1.57854,-3.893732 -0.105236,-1.368068 -0.52618,-2.841372 -1.57854,-3.893732 -0.420944,-0.315708 -0.841888,-0.52618 -1.157596,-0.841888 -0.736652,-0.420944 -1.57854,-0.736652 -2.420428,-0.736652 -0.315708,-0.105236 -0.631416,-0.105236 -0.841888,-0.210472 -0.420944,-0.210472 -0.841888,-0.420944 -1.157596,-0.736652 -0.736652,-0.631416 -1.368068,-1.262832 -1.999484,-1.999484 -1.368068,-1.894248 -2.525664,-3.998968 -3.578024,-6.103688 -1.473304,-2.946608 -3.051844,-5.893216 -4.525148,-8.839824 -0.315708,-0.631416 -0.631416,-1.368068 -0.947124,-1.999484 3.893732,-7.156048 7.8927,-14.312096 11.891668,-21.468144 3.578024,-6.524632 7.050812,-11.470724 9.576476,-16.83776 0.736652,-1.368068 1.05236,-2.841372 0.631416,-4.314676 -0.420944,-1.262832 -1.368068,-2.6309 -2.525664,-3.262316 -1.368068,-0.736652 -2.841372,-1.05236 -4.314676,-0.52618 -2.420428,0.841888 -4.104204,3.262316 -5.051328,5.367036 -4.630384,8.313644 -9.260768,16.627288 -13.891152,24.940932 -0.736652,1.368068 -1.57854,2.736136 -2.315192,4.104204 -0.52618,-1.262832 -1.157596,-2.525664 -1.789012,-3.788496 -1.368068,-3.15708 -2.841372,-6.31416 -4.20944,-9.47124 -2.420428,-5.78798 -4.630384,-11.681196 -6.524632,-17.574412 -0.420944,-1.368068 -1.262832,-2.6309 -2.525664,-3.367552 -1.157596,-0.631416 -2.946608,-0.947124 -4.314676,-0.52618 -1.262832,0.420944 -2.6309,1.262832 -3.262316,2.525664 -0.631416,1.262832 -1.05236,2.841372 -0.52618,4.314676 3.472788,10.839308 7.8927,21.362908 12.838792,31.676036 z"
       id="text1"
       style="font-size:105.236px;font-family:'Child Hood';-inkscape-font-specification:'Child Hood, Normal';fill:#bbbbbb;stroke-width:0.309721"
       aria-label="X" />
  </g>
</svg>
