<?xml version="1.0" encoding="UTF-8" standalone="no"?>
<!-- Created with Inkscape (http://www.inkscape.org/) -->

<svg
   width="100mm"
   height="100mm"
   viewBox="0 0 100 100"
   version="1.1"
   id="svg1"
   inkscape:version="1.4.2 (f4327f4, 2025-05-13)"
   sodipodi:docname="letter-M.svg"
   xmlns:inkscape="http://www.inkscape.org/namespaces/inkscape"
   xmlns:sodipodi="http://sodipodi.sourceforge.net/DTD/sodipodi-0.dtd"
   xmlns="http://www.w3.org/2000/svg"
   xmlns:svg="http://www.w3.org/2000/svg">
  <sodipodi:namedview
     id="namedview1"
     pagecolor="#ffffff"
     bordercolor="#000000"
     borderopacity="0.25"
     inkscape:showpageshadow="2"
     inkscape:pageopacity="0.0"
     inkscape:pagecheckerboard="0"
     inkscape:deskcolor="#d1d1d1"
     inkscape:document-units="mm"
     inkscape:zoom="0.97386896"
     inkscape:cx="96.522226"
     inkscape:cy="102.1698"
     inkscape:window-width="1253"
     inkscape:window-height="981"
     inkscape:window-x="-8"
     inkscape:window-y="0"
     inkscape:window-maximized="0"
     inkscape:current-layer="layer1" />
  <defs
     id="defs1" />
  <g
     inkscape:label="Шар 1"
     inkscape:groupmode="layer"
     id="layer1">
    <path
       d="m 29.974101,22.971438 c 0.998384,0.898546 2.296284,1.497576 3.694021,1.497576 4.99192,0 9.884002,0 14.776084,0 -0.599031,5.690789 -0.998384,11.481417 -1.2979,17.272044 -0.399353,8.186749 -0.59903,16.373498 -0.499192,24.560247 0.09984,4.692405 0.199677,9.284971 0.399354,13.977376 0.09984,1.397738 0.59903,2.695637 1.597414,3.694021 0.898546,0.898545 2.396122,1.597414 3.694021,1.497576 1.397738,0 2.795476,-0.499192 3.694021,-1.497576 0.898546,-0.998384 1.597415,-2.296283 1.497576,-3.694021 -0.399353,-8.286587 -0.499192,-16.473336 -0.399353,-24.660085 0.199676,-8.186749 0.499192,-16.373498 1.19806,-24.560247 0.199677,-2.196445 0.399354,-4.492728 0.599031,-6.689173 2.595798,0 5.291435,0 7.887234,0 3.09499,0 6.289819,-0.09984 9.384809,-0.09984 1.2979,0 2.695637,-0.499192 3.694021,-1.497576 0.898546,-0.898546 1.597415,-2.396122 1.497576,-3.694021 0,-1.397738 -0.499192,-2.795476 -1.497576,-3.694021 -0.998384,-0.998384 -2.296283,-1.597415 -3.694021,-1.597415 -5.890465,0.09984 -11.780931,0.09984 -17.671397,0.09984 -0.09984,-0.09984 -0.199677,-0.299515 -0.299515,-0.399354 -0.998384,-0.898545 -2.396122,-1.597414 -3.793859,-1.497576 -1.297899,0 -2.695637,0.499192 -3.694021,1.497576 -0.09984,0.199677 -0.199677,0.299515 -0.299515,0.399354 -2.49596,0.09984 -4.892082,0.09984 -7.388042,0.09984 -3.09499,0 -6.189981,0 -9.38481,0 -1.297899,0 -2.695637,0.599031 -3.694021,1.597415 -0.898545,0.898545 -1.597414,2.396121 -1.497576,3.694021 0,1.297899 0.499192,2.695636 1.497576,3.69402 z"
       id="text1"
       style="font-size:99.8384px;font-family:'Child Hood';-inkscape-font-specification:'Child Hood, Normal';fill:#bbbbbb;stroke-width:0.293837"
       aria-label="T" />
  </g>
</svg>
