<?xml version="1.0" encoding="UTF-8" standalone="no"?>
<!-- Created with Inkscape (http://www.inkscape.org/) -->

<svg
   width="100mm"
   height="100mm"
   viewBox="0 0 100 100"
   version="1.1"
   id="svg1"
   inkscape:version="1.4.2 (f4327f4, 2025-05-13)"
   sodipodi:docname="letter-M.svg"
   xmlns:inkscape="http://www.inkscape.org/namespaces/inkscape"
   xmlns:sodipodi="http://sodipodi.sourceforge.net/DTD/sodipodi-0.dtd"
   xmlns="http://www.w3.org/2000/svg"
   xmlns:svg="http://www.w3.org/2000/svg">
  <sodipodi:namedview
     id="namedview1"
     pagecolor="#ffffff"
     bordercolor="#000000"
     borderopacity="0.25"
     inkscape:showpageshadow="2"
     inkscape:pageopacity="0.0"
     inkscape:pagecheckerboard="0"
     inkscape:deskcolor="#d1d1d1"
     inkscape:document-units="mm"
     inkscape:zoom="0.97386896"
     inkscape:cx="96.522226"
     inkscape:cy="102.1698"
     inkscape:window-width="1253"
     inkscape:window-height="981"
     inkscape:window-x="-8"
     inkscape:window-y="0"
     inkscape:window-maximized="0"
     inkscape:current-layer="layer1" />
  <defs
     id="defs1" />
  <g
     inkscape:label="Шар 1"
     inkscape:groupmode="layer"
     id="layer1">
    <path
       d="m 30.638839,73.603307 c 1.00835,1.512525 2.21837,2.924215 3.42839,4.23507 1.41169,1.310855 2.924215,2.520875 4.43674,3.529225 1.61336,1.00835 3.327555,1.81503 5.04175,2.520875 1.41169,0.504175 2.924215,0.907515 4.43674,1.21002 1.81503,0.20167 3.730895,0.504175 5.545925,0.302505 3.83173,-0.20167 7.360955,-1.109185 10.789345,-2.924215 3.22672,-1.61336 5.949265,-4.134235 7.965965,-7.05845 0.907515,-1.512525 1.61336,-3.125885 2.117535,-4.84008 0.504175,-1.61336 0.705845,-3.327555 0.80668,-5.04175 0,-6.957615 -3.932565,-13.91523 -10.28517,-16.94028 -3.125885,-1.41169 -6.25177,-2.21837 -9.68016,-2.722545 -2.82338,-0.504175 -5.747595,-0.80668 -8.570975,-1.714195 -0.40334,-0.100835 -0.80668,-0.302505 -1.21002,-0.40334 -0.705845,-0.302505 -1.41169,-0.705845 -2.0167,-1.109185 -0.40334,-0.40334 -0.705845,-0.705845 -1.00835,-1.109185 -0.302505,-0.40334 -0.60501,-0.907515 -0.80668,-1.41169 -0.302505,-0.60501 -0.40334,-1.21002 -0.504175,-1.81503 -0.100835,-0.705845 -0.100835,-1.41169 0,-2.117535 0.100835,-0.705845 0.302505,-1.41169 0.504175,-2.117535 0.504175,-0.907515 1.00835,-1.714195 1.61336,-2.520875 0.907515,-1.109185 1.915865,-2.117535 3.02505,-3.02505 1.61336,-1.21002 3.22672,-2.117535 5.04175,-2.924215 1.41169,-0.60501 2.924215,-1.00835 4.537575,-1.310855 1.00835,-0.100835 2.117535,-0.100835 3.22672,0 0.705845,0.100835 1.41169,0.302505 2.0167,0.504175 0.504175,0.302505 1.00835,0.504175 1.41169,0.80668 0.40334,0.40334 0.80668,0.705845 1.109185,1.109185 0.705845,1.109185 0.907515,1.915865 0.504175,3.22672 -0.504175,1.109185 -0.100835,2.924215 0.504175,4.0334 0.705845,1.109185 1.915865,2.117535 3.22672,2.42004 1.310855,0.302505 2.82338,0.20167 4.0334,-0.504175 0.40334,-0.302505 0.705845,-0.60501 1.109185,-0.80668 0.60501,-0.705845 1.109185,-1.512525 1.310855,-2.42004 0.40334,-0.907515 0.504175,-1.915865 0.705845,-3.02505 0,-0.60501 0,-1.21002 0,-1.81503 -0.20167,-1.00835 -0.302505,-2.117535 -0.60501,-3.02505 -0.40334,-1.00835 -0.80668,-2.0167 -1.310855,-2.924215 -0.907515,-1.41169 -2.0167,-2.82338 -3.327555,-3.932565 -0.80668,-0.60501 -1.61336,-1.310855 -2.520875,-1.81503 -1.00835,-0.60501 -2.0167,-1.00835 -3.02505,-1.41169 -1.81503,-0.705845 -3.932565,-1.00835 -5.84843,-1.109185 -2.0167,-0.100835 -4.0334,0.20167 -6.0501,0.60501 -2.0167,0.40334 -3.932565,1.109185 -5.747595,1.915865 -1.512525,0.705845 -2.924215,1.41169 -4.23507,2.319205 -1.61336,1.00835 -3.125885,2.117535 -4.537575,3.42839 -1.41169,1.21002 -2.520875,2.722545 -3.63006,4.23507 -2.21837,2.924215 -3.42839,6.45344 -3.63006,10.0835 -0.20167,1.81503 0,3.63006 0.40334,5.344255 0.20167,0.705845 0.40334,1.310855 0.60501,1.915865 0.40334,1.109185 0.80668,2.117535 1.41169,3.02505 0.907515,1.512525 2.117535,2.924215 3.42839,4.0334 0.907515,0.60501 1.714195,1.310855 2.722545,1.81503 0.907515,0.60501 1.915865,1.00835 2.82338,1.41169 5.24342,2.117535 10.991015,1.915865 16.33527,3.529225 0.40334,0.20167 0.80668,0.302505 1.21002,0.40334 0.705845,0.40334 1.41169,0.80668 2.0167,1.21002 0.504175,0.40334 0.907515,0.907515 1.310855,1.310855 0.40334,0.60501 0.80668,1.21002 1.109185,1.915865 0.302505,0.705845 0.504175,1.41169 0.60501,2.21837 0.100835,0.705845 0.100835,1.41169 0,2.21837 -0.100835,0.60501 -0.302505,1.310855 -0.504175,1.915865 -0.302505,0.60501 -0.60501,1.21002 -1.00835,1.714195 -0.60501,0.705845 -1.21002,1.310855 -1.915865,1.81503 -0.907515,0.705845 -1.915865,1.310855 -2.924215,1.714195 -1.21002,0.504175 -2.520875,0.80668 -3.83173,1.109185 -1.310855,0.100835 -2.520875,0.100835 -3.83173,0 -1.310855,-0.20167 -2.62171,-0.60501 -3.83173,-1.109185 -1.310855,-0.60501 -2.520875,-1.310855 -3.63006,-2.117535 -1.109185,-0.907515 -2.117535,-1.81503 -2.924215,-2.924215 -0.705845,-1.00835 -1.310855,-2.0167 -1.81503,-3.02505 -0.20167,-0.60501 -0.504175,-1.109185 -0.907515,-1.61336 -0.40334,-0.60501 -0.907515,-1.00835 -1.512525,-1.310855 -1.109185,-0.705845 -2.82338,-1.00835 -4.0334,-0.60501 -1.310855,0.40334 -2.520875,1.21002 -3.22672,2.42004 -0.60501,1.21002 -1.00835,2.82338 -0.504175,4.134235 0.705845,1.714195 1.41169,3.327555 2.520875,4.940915 z"
       id="text1"
       style="font-size:100.835px;font-family:'Child Hood';-inkscape-font-specification:'Child Hood, Normal';fill:#bbbbbb;stroke-width:0.29677"
       aria-label="S" />
  </g>
</svg>
