<?xml version="1.0" encoding="UTF-8" standalone="no"?>
<!-- Created with Inkscape (http://www.inkscape.org/) -->

<svg
   width="100mm"
   height="100mm"
   viewBox="0 0 100 100"
   version="1.1"
   id="svg1"
   inkscape:version="1.4.2 (f4327f4, 2025-05-13)"
   sodipodi:docname="letter-M.svg"
   xmlns:inkscape="http://www.inkscape.org/namespaces/inkscape"
   xmlns:sodipodi="http://sodipodi.sourceforge.net/DTD/sodipodi-0.dtd"
   xmlns="http://www.w3.org/2000/svg"
   xmlns:svg="http://www.w3.org/2000/svg">
  <sodipodi:namedview
     id="namedview1"
     pagecolor="#ffffff"
     bordercolor="#000000"
     borderopacity="0.25"
     inkscape:showpageshadow="2"
     inkscape:pageopacity="0.0"
     inkscape:pagecheckerboard="0"
     inkscape:deskcolor="#d1d1d1"
     inkscape:document-units="mm"
     inkscape:zoom="0.97386896"
     inkscape:cx="96.00881"
     inkscape:cy="102.1698"
     inkscape:window-width="1196"
     inkscape:window-height="981"
     inkscape:window-x="-8"
     inkscape:window-y="0"
     inkscape:window-maximized="0"
     inkscape:current-layer="layer1" />
  <defs
     id="defs1" />
  <g
     inkscape:label="Шар 1"
     inkscape:groupmode="layer"
     id="layer1">
    <path
       d="m 30.52419,86.212415 c 0.328974,0.657948 0.657948,1.315896 1.206238,1.864186 0.986922,0.986922 2.631792,1.754528 4.057346,1.64487 1.535212,-0.109658 3.070424,-0.54829 4.167004,-1.64487 0.877264,-1.09658 1.754528,-2.631792 1.64487,-4.167004 -0.328974,-2.960766 -0.657948,-5.921532 -0.877264,-8.882298 1.64487,1.973844 3.509056,3.83803 5.4829,5.4829 1.425554,1.206238 2.851108,2.302818 4.38632,3.180082 1.535212,0.986922 3.180082,1.64487 4.824952,2.302818 1.206238,0.438632 2.522134,0.877264 3.83803,1.09658 1.754528,0.219316 3.509056,0.54829 5.263584,0.438632 3.728371,-0.109658 7.676059,-1.09658 10.746483,-3.28974 1.315896,-0.877264 2.302818,-1.973844 2.631792,-3.399398 0.438632,-1.425554 0.219316,-3.28974 -0.54829,-4.495978 -0.767606,-1.206238 -1.973844,-2.302818 -3.399398,-2.631792 -1.425554,-0.328974 -3.180082,-0.328974 -4.495978,0.54829 -0.54829,0.438632 -1.09658,0.767606 -1.754528,1.09658 -0.767605,0.219316 -1.535211,0.438632 -2.302817,0.657948 -0.986922,0 -2.083502,0 -3.070424,-0.109658 -1.315896,-0.219316 -2.631792,-0.54829 -3.83803,-0.986922 -1.425554,-0.657948 -2.74145,-1.535212 -4.057346,-2.412476 -1.864186,-1.535211 -3.509056,-3.289739 -5.044268,-5.044267 1.864186,-0.219316 3.728372,-0.438632 5.4829,-0.986922 5.4829,-1.425554 10.527168,-4.38632 14.365197,-8.443666 3.728372,-4.057346 6.57948,-8.991956 7.785718,-14.365198 0.54829,-2.74145 0.877264,-5.702216 0.657948,-8.443666 -0.219316,-2.851107 -0.657948,-5.592557 -1.754528,-8.224349 -0.54829,-1.425554 -1.09658,-2.960766 -1.864186,-4.276662 -0.767606,-1.315896 -1.754528,-2.522134 -2.74145,-3.728372 -1.64487,-2.083502 -3.83803,-3.83803 -6.250505,-5.044268 -2.74145,-1.425554 -5.592558,-2.19316 -8.77264,-2.412476 -1.09658,-0.109658 -2.19316,-0.109658 -3.180082,0 -1.535212,0.219316 -3.070424,0.438632 -4.605636,0.986922 -2.74145,0.986922 -5.263584,2.522134 -7.456744,4.605636 -0.109658,-1.206238 -0.877264,-2.522134 -1.64487,-3.28974 -0.986922,-0.986922 -2.631792,-1.754528 -4.057346,-1.64487 -1.535212,0.109658 -3.070424,0.54829 -4.057346,1.64487 -0.328974,0.438632 -0.657948,0.767606 -0.877264,1.206238 -0.54829,0.877264 -0.767606,1.864186 -0.767606,2.851108 -0.877264,8.662982 -1.315895,17.216305 -1.425553,25.769629 -0.328974,14.474856 -0.877264,28.620737 2.302817,42.547303 z M 44.999046,31.712391 c 0.767606,-1.754528 1.64487,-3.399398 2.74145,-4.93461 0.657948,-0.767606 1.425554,-1.425554 2.19316,-2.083502 0.54829,-0.438632 1.09658,-0.767606 1.754528,-1.09658 0.657948,-0.219316 1.425554,-0.438632 2.19316,-0.54829 0.767606,-0.109658 1.64487,-0.109658 2.522134,0 0.877264,0.109658 1.64487,0.328974 2.522134,0.657948 0.767606,0.328974 1.535212,0.767606 2.19316,1.315896 0.657948,0.54829 1.315896,1.206238 1.973844,1.973844 0.657948,0.986922 1.315896,1.973844 1.754528,3.070424 0.54829,1.535212 0.986922,2.960766 1.206238,4.495977 0.219316,1.64487 0.219316,3.28974 0,4.93461 -0.219316,1.535212 -0.657948,3.070424 -1.206238,4.605636 -0.767606,1.535212 -1.64487,3.070424 -2.631792,4.38632 -1.09658,1.315896 -2.302818,2.522134 -3.618714,3.618714 -1.206238,0.986922 -2.631792,1.754528 -4.057346,2.412476 -1.64487,0.657948 -3.28974,1.09658 -5.044268,1.425554 -1.973844,0.109658 -3.947688,0.109658 -5.921532,-0.109658 -1.206238,-0.109658 -2.412476,-0.438632 -3.618714,-0.767606 0.109658,-1.64487 0.328974,-3.180082 0.54829,-4.824952 0.438632,-3.28974 1.09658,-6.689138 1.864186,-9.86922 0.767606,-2.960766 1.535212,-5.921532 2.631792,-8.662981 z"
       id="text1"
       style="font-size:109.658px;font-family:'Child Hood';-inkscape-font-specification:'Child Hood, Normal';fill:#bbbbbb;stroke-width:0.322735"
       aria-label="R" />
  </g>
</svg>
