<svg version="1.1" id="Layer_1" xmlns="http://www.w3.org/2000/svg" xmlns:xlink="http://www.w3.org/1999/xlink" x="0px" y="0px"
	 width="100%" viewBox="0 0 160 192" enable-background="new 0 0 160 192" xml:space="preserve">
<path fill="#000000" opacity="1.000000" stroke="none" 
	d="
M69.933914,71.855270 
	C76.280830,66.683647 83.266563,65.542595 90.826897,66.455078 
	C92.779205,66.690712 94.818626,66.593430 96.775742,66.332237 
	C104.672218,65.278374 108.535263,69.569008 106.561775,77.163475 
	C103.308968,89.681107 100.076050,102.205223 97.014038,114.770294 
	C96.115501,118.457428 95.958595,122.319237 95.216255,126.052162 
	C94.432152,129.995117 93.015648,133.366318 87.957184,133.364624 
	C82.291443,133.362717 80.913536,131.956100 81.461365,126.244232 
	C81.648453,124.293579 81.491058,122.309883 81.491058,119.479485 
	C76.375702,122.864883 71.940437,126.203568 67.139389,128.888062 
	C58.837067,133.530304 49.159725,129.572449 46.268757,120.521309 
	C45.086613,116.820213 45.380249,112.945793 46.192886,109.177895 
	C49.476231,93.954308 57.212631,81.521866 69.933914,71.855270 
M58.288418,113.412605 
	C58.759323,118.711815 60.397018,120.114845 64.739006,117.515175 
	C78.008194,109.570534 88.281883,99.008797 91.469124,83.158577 
	C92.507195,77.996231 90.321724,76.159119 85.301254,78.164619 
	C69.714546,84.390907 61.251244,96.359772 58.288418,113.412605 
z"/>
</svg>