<?xml version="1.0" encoding="UTF-8"?>
<svg version="1.1" xmlns="http://www.w3.org/2000/svg" width="200" height="207">
<path d="M0 0 C66 0 132 0 200 0 C200 68.31 200 136.62 200 207 C134 207 68 207 0 207 C0 138.69 0 70.38 0 0 Z " fill="#FEFEFE" transform="translate(0,0)"/>
<path d="M0 0 C4.46272006 2.71772969 8.06307134 6.08172037 10 11 C10.3554485 13.77040743 10.18195905 16.17963465 10 19 C8 21 8 21 5.375 21.125 C4.59125 21.08375 3.8075 21.0425 3 21 C0 15.25 0 15.25 0 13 C-15.59357485 14.92431349 -28.50483194 26.18723914 -38.4375 37.875 C-44.92338001 46.47158665 -50.10883207 56.47522238 -50.3125 67.3125 C-50.34988281 68.60800781 -50.38726562 69.90351562 -50.42578125 71.23828125 C-49.93641343 75.56177855 -48.72598434 77.65700251 -46 81 C-39.59086425 84.20456787 -31.08187553 82.01060492 -24.625 80 C-17.92581388 77.71026272 -12.0756658 74.36859269 -6.12109375 70.57421875 C-2.72065764 68.85910517 -0.75290177 68.53627938 3 69 C4.9375 70.6875 4.9375 70.6875 6 73 C5.53705235 78.4663434 2.88907076 80.60483253 -1.13671875 84.0078125 C-6.33889779 87.6273368 -12.08527792 89.8068238 -18 92 C-19.31291016 92.495 -19.31291016 92.495 -20.65234375 93 C-29.90373936 96.28938511 -42.21901899 98.5226099 -51.4375 94.5 C-63.93939721 82.30302711 -63.93939721 82.30302711 -64.43359375 73.35546875 C-64.45072721 71.63289721 -64.4516513 69.91009862 -64.4375 68.1875 C-64.45748047 67.33607422 -64.47746094 66.48464844 -64.49804688 65.60742188 C-64.49318348 59.22178703 -62.94725707 54.61792432 -60 49 C-59.5771875 48.10152344 -59.154375 47.20304687 -58.71875 46.27734375 C-49.08431298 27.78045986 -24.80802701 -5.49569397 0 0 Z " fill="#9E9E9E" transform="translate(126,50)"/>
</svg>
