<?xml version="1.0" encoding="UTF-8"?>
<svg version="1.1" xmlns="http://www.w3.org/2000/svg" width="198" height="210">
<path d="M0 0 C65.34 0 130.68 0 198 0 C198 69.3 198 138.6 198 210 C132.66 210 67.32 210 0 210 C0 140.7 0 71.4 0 0 Z " fill="#FEFEFE" transform="translate(0,0)"/>
<path d="M0 0 C1.27875 -0.00515625 2.5575 -0.0103125 3.875 -0.015625 C7 0.25 7 0.25 9 2.25 C9 5.1875 9 5.1875 8 8.25 C3.84568147 10.77336385 -0.0572838 11.8434098 -4.8125 12.6875 C-6.13974068 12.93658626 -7.46654975 13.18798085 -8.79296875 13.44140625 C-9.48052246 13.5717627 -10.16807617 13.70211914 -10.87646484 13.83642578 C-29.74172746 16.63586867 -29.74172746 16.63586867 -45.16015625 25.82421875 C-47.40254594 29.99953882 -48.78565913 34.15570905 -50.125 38.6875 C-50.37636719 39.50798828 -50.62773438 40.32847656 -50.88671875 41.17382812 C-52.31244647 45.85036433 -53.67029178 50.54536566 -55 55.25 C-53.83082031 54.90066406 -52.66164063 54.55132812 -51.45703125 54.19140625 C-49.90888862 53.7316548 -48.36070961 53.27202583 -46.8125 52.8125 C-46.04357422 52.58240234 -45.27464844 52.35230469 -44.48242188 52.11523438 C-38.23597443 50.26542805 -32.62346491 49.08548488 -26.0625 49 C-24.87785156 48.97421875 -23.69320312 48.9484375 -22.47265625 48.921875 C-18.6800278 49.28023359 -16.27199456 50.35174361 -13 52.25 C-12.6369509 57.69573643 -12.6369509 57.69573643 -14.09765625 59.92578125 C-16.90376071 61.87910653 -19.23205203 61.58867293 -22.625 61.625 C-28.59902185 61.84538939 -34.02073314 62.79586385 -39.75 64.5 C-40.4095166 64.69255371 -41.0690332 64.88510742 -41.74853516 65.08349609 C-43.09522101 65.50369387 -44.43149026 65.9585347 -45.75610352 66.44384766 C-48 67.25 -48 67.25 -50.82006836 68.00537109 C-54.07083185 69.07861677 -56.33454828 70.08576733 -59 72.25 C-61.30500465 77.11670471 -62.17884548 82.11231919 -63.0625 87.375 C-63.4572461 89.45253501 -63.86523638 91.52705783 -64.27696228 93.60128784 C-64.64160751 95.47500067 -64.97414922 97.35487687 -65.30493164 99.23486328 C-66 102.25 -66 102.25 -68 105.25 C-71 105.625 -71 105.625 -74 105.25 C-77.60011492 99.84982762 -76.68706062 92.0229105 -75.546875 85.76171875 C-75.04630097 83.92032144 -74.52422942 82.08480297 -74 80.25 C-73.74730583 76.95714899 -73.74730583 76.95714899 -74 74.25 C-74.33 73.92 -74.66 73.59 -75 73.25 C-75.3609254 70.25947526 -75.56895789 68.15697785 -75 65.25 C-73.78320312 63.75292969 -73.78320312 63.75292969 -72.21875 62.296875 C-67.75897618 57.3620684 -66.67004911 51.43802815 -65.0625 45.125 C-64.38348029 42.62020447 -63.70115175 40.11630372 -63.015625 37.61328125 C-62.67982422 36.37400879 -62.34402344 35.13473633 -61.99804688 33.85791016 C-60.55363438 28.63640138 -58.97923364 23.46691662 -57.3125 18.3125 C-57.05154541 17.46220215 -56.79059082 16.6119043 -56.52172852 15.73583984 C-54.90705717 10.81383451 -53.24059772 7.5099595 -49 4.25 C-45.6875 4.4375 -45.6875 4.4375 -43 5.25 C-42.505 6.735 -42.505 6.735 -42 8.25 C-40.98800537 7.99307373 -40.98800537 7.99307373 -39.95556641 7.73095703 C-36.84602335 6.94306426 -33.73552359 6.15901239 -30.625 5.375 C-29.56410156 5.10558594 -28.50320312 4.83617187 -27.41015625 4.55859375 C-9.13807539 -0.03745113 -9.13807539 -0.03745113 0 0 Z " fill="#9F9F9F" transform="translate(139,49.75)"/>
</svg>
