<?xml version="1.0" encoding="UTF-8"?>
<!DOCTYPE svg PUBLIC "-//W3C//DTD SVG 1.1//EN" "http://www.w3.org/Graphics/SVG/1.1/DTD/svg11.dtd">
<svg xmlns="http://www.w3.org/2000/svg" version="1.1" width="181px" height="182px" style="shape-rendering:geometricPrecision; text-rendering:geometricPrecision; image-rendering:optimizeQuality; fill-rule:evenodd; clip-rule:evenodd" xmlns:xlink="http://www.w3.org/1999/xlink">
<g><path style="opacity:1" fill="#fefefe" d="M -0.5,-0.5 C 59.8333,-0.5 120.167,-0.5 180.5,-0.5C 180.5,60.1667 180.5,120.833 180.5,181.5C 120.167,181.5 59.8333,181.5 -0.5,181.5C -0.5,120.833 -0.5,60.1667 -0.5,-0.5 Z"/></g>
<g><path style="opacity:1" fill="#9e9e9e" d="M 115.5,38.5 C 120.674,38.0087 123.34,40.342 123.5,45.5C 119.002,64.8276 114.502,84.1609 110,103.5C 108.593,111.683 107.093,119.85 105.5,128C 108.665,137.498 105.332,141.498 95.5,140C 93.5229,137.74 92.5229,135.073 92.5,132C 94.5541,120.069 96.7208,108.236 99,96.5C 88.6266,103.958 77.1266,107.791 64.5,108C 61.0629,106.895 58.5629,104.728 57,101.5C 57.0388,82.251 64.5388,66.4176 79.5,54C 82.608,51.8944 85.9413,50.2277 89.5,49C 96.1546,48.2132 102.821,47.5466 109.5,47C 110.418,43.3048 112.418,40.4715 115.5,38.5 Z"/></g>
<g><path style="opacity:1" fill="#fdfdfd" d="M 94.5,59.5 C 98.5138,59.3345 102.514,59.5012 106.5,60C 107.022,60.5613 107.355,61.228 107.5,62C 105.866,69.233 104.032,76.3997 102,83.5C 92.4467,91.2009 81.6133,95.3676 69.5,96C 68.4254,88.532 70.2588,81.6986 75,75.5C 80.3326,68.6049 86.8326,63.2716 94.5,59.5 Z"/></g>
</svg>
