<?xml version="1.0" encoding="UTF-8"?>
<!DOCTYPE svg PUBLIC "-//W3C//DTD SVG 1.1//EN" "http://www.w3.org/Graphics/SVG/1.1/DTD/svg11.dtd">
<svg xmlns="http://www.w3.org/2000/svg" version="1.1" width="174px" height="168px" style="shape-rendering:geometricPrecision; text-rendering:geometricPrecision; image-rendering:optimizeQuality; fill-rule:evenodd; clip-rule:evenodd" xmlns:xlink="http://www.w3.org/1999/xlink">
<g><path style="opacity:1" fill="#fefefe" d="M -0.5,-0.5 C 57.5,-0.5 115.5,-0.5 173.5,-0.5C 173.5,55.5 173.5,111.5 173.5,167.5C 115.5,167.5 57.5,167.5 -0.5,167.5C -0.5,111.5 -0.5,55.5 -0.5,-0.5 Z"/></g>
<g><path style="opacity:1" fill="#9f9f9f" d="M 74.5,50.5 C 80.9857,48.8346 83.819,51.168 83,57.5C 81.6546,59.6177 81.1546,61.6177 81.5,63.5C 87.1964,58.6417 93.5297,54.8083 100.5,52C 109.199,49.3863 115.699,51.8863 120,59.5C 120.804,65.5692 120.471,71.5692 119,77.5C 113.935,90.6937 109.269,104.027 105,117.5C 102.774,121.861 99.2742,123.361 94.5,122C 93.2079,116.844 93.3746,111.677 95,106.5C 99.1962,96.2452 103.196,85.9119 107,75.5C 107.667,71.8333 107.667,68.1667 107,64.5C 106.044,63.1059 104.711,62.4393 103,62.5C 99.3382,63.5798 95.8382,65.0798 92.5,67C 86.3333,71.8333 80.1667,76.6667 74,81.5C 72.1382,85.4189 70.4715,89.4189 69,93.5C 66.7573,101.773 64.7573,110.106 63,118.5C 60.5027,120.478 57.6693,120.978 54.5,120C 52.5441,116.405 52.0441,112.572 53,108.5C 57.7996,90.1011 63.7996,72.1011 71,54.5C 71.6897,52.6498 72.8564,51.3164 74.5,50.5 Z"/></g>
</svg>
