<?xml version="1.0" encoding="UTF-8"?>
<svg version="1.1" xmlns="http://www.w3.org/2000/svg" width="181" height="225">
<path d="M0 0 C59.73 0 119.46 0 181 0 C181 74.25 181 148.5 181 225 C121.27 225 61.54 225 0 225 C0 150.75 0 76.5 0 0 Z " fill="#FEFEFE" transform="translate(0,0)"/>
<path d="M0 0 C3.5 -0.375 3.5 -0.375 7 0 C9.51865705 3.77798558 9.49180518 6.63225811 9 11 C8.16369216 14.61152558 7.03257986 18.10507972 5.875 21.625 C5.22887472 23.65923864 4.58572175 25.69442339 3.9453125 27.73046875 C3.61950195 28.76478027 3.29369141 29.7990918 2.95800781 30.86474609 C1.16085524 36.74625306 -0.40072289 42.69219471 -1.95751953 48.64111328 C-3.35407814 53.90291488 -5.00397925 58.93362968 -7 64 C4.75915468 61.91034889 16.45269114 59.54953819 28.09783936 56.89749146 C29.4469612 56.59135661 30.79694453 56.28899338 32.14776611 55.990448 C34.06194362 55.56592926 35.97247309 55.12506292 37.8828125 54.68359375 C38.99027832 54.43150146 40.09774414 54.17940918 41.23876953 53.91967773 C44.1023703 52.96590372 45.25864244 52.42174188 47 50 C48.07399841 47.5762642 48.07399841 47.5762642 48.90234375 44.80078125 C49.23339111 43.7634082 49.56443848 42.72603516 49.90551758 41.65722656 C50.24607178 40.5534668 50.58662598 39.44970703 50.9375 38.3125 C51.29158936 37.1894043 51.64567871 36.06630859 52.01049805 34.90917969 C54.35705559 27.36949191 56.41725054 19.82010976 58.11328125 12.109375 C59.01557046 8.94540051 60.05589667 6.64841868 62 4 C64.875 2.9375 64.875 2.9375 68 3 C70.875 4.4375 70.875 4.4375 73 7 C73.92001321 14.59895522 71.21165364 20.81662187 68.625 27.875 C65.47636272 36.76562423 62.94056986 45.05877467 62.69384766 54.53076172 C62.47015237 59.80764298 60.77751841 61.4963802 57 65 C53.16212786 73.58157745 52.1970811 83.36956796 51.12646484 92.62695312 C50.4744968 97.93483431 49.5287178 102.2578813 47 107 C43.53076119 109.31282587 42.07794425 109.42478586 38 109 C36.3359375 107.71459961 36.3359375 107.71459961 35 106 C34.17658321 97.7744094 36.24787178 89.93868953 38 81.9375 C38.28989872 80.58155872 38.5789678 79.22543979 38.8671875 77.86914062 C39.57000919 74.57759236 40.28114157 71.28807631 41 68 C31.75754738 70.07058701 22.58423624 72.24388989 13.54614258 75.09277344 C9.67509841 76.29485567 5.87866886 77.24178617 1.8828125 77.9375 C-7.31290068 79.35128914 -7.31290068 79.35128914 -14.16796875 84.97265625 C-15.48893548 88.64291149 -16.29394409 92.16599807 -17 96 C-17.67741864 98.42551394 -18.38420523 100.84308559 -19.125 103.25 C-19.41632812 104.30703125 -19.70765625 105.3640625 -20.0078125 106.453125 C-21 109 -21 109 -24 111 C-26.5625 111.25 -26.5625 111.25 -29 111 C-31.52525324 108.47474676 -31.29918933 107.54660469 -31.31640625 104.046875 C-31.20017664 98.04200412 -29.83426703 92.91240745 -27.9375 87.25 C-27.2899492 85.22409106 -26.6428258 83.19804546 -25.99609375 81.171875 C-25.66335449 80.14771484 -25.33061523 79.12355469 -24.98779297 78.06835938 C-23.43044121 73.23079218 -21.96819151 68.36520816 -20.5 63.5 C-19.91585066 61.57927918 -19.33121439 59.65870639 -18.74609375 57.73828125 C-17.59136004 53.94434022 -16.4377977 50.15004593 -15.28515625 46.35546875 C-14.13786302 42.57867709 -12.9878737 38.80272173 -11.8359375 35.02734375 C-10.49951462 30.64700918 -9.17406673 26.26346197 -7.8515625 21.87890625 C-7.13038476 19.50255062 -6.40903397 17.12624749 -5.6875 14.75 C-5.34984619 13.62424561 -5.01219238 12.49849121 -4.66430664 11.33862305 C-4.34582764 10.29359619 -4.02734863 9.24856934 -3.69921875 8.171875 C-3.27902466 6.7811377 -3.27902466 6.7811377 -2.8503418 5.36230469 C-2 3 -2 3 0 0 Z " fill="#9F9F9F" transform="translate(72,56)"/>
</svg>
