<?xml version="1.0" encoding="UTF-8"?>
<!DOCTYPE svg PUBLIC "-//W3C//DTD SVG 1.1//EN" "http://www.w3.org/Graphics/SVG/1.1/DTD/svg11.dtd">
<svg xmlns="http://www.w3.org/2000/svg" version="1.1" width="172px" height="170px" style="shape-rendering:geometricPrecision; text-rendering:geometricPrecision; image-rendering:optimizeQuality; fill-rule:evenodd; clip-rule:evenodd" xmlns:xlink="http://www.w3.org/1999/xlink">
<g><path style="opacity:1" fill="#fefefe" d="M -0.5,-0.5 C 56.8333,-0.5 114.167,-0.5 171.5,-0.5C 171.5,56.1667 171.5,112.833 171.5,169.5C 114.167,169.5 56.8333,169.5 -0.5,169.5C -0.5,112.833 -0.5,56.1667 -0.5,-0.5 Z"/></g>
<g><path style="opacity:1" fill="#9e9e9e" d="M 86.5,49.5 C 91.1785,49.3342 95.8452,49.5008 100.5,50C 106.892,52.7604 108.226,57.2604 104.5,63.5C 103.833,63.8333 103.167,64.1667 102.5,64.5C 100.394,63.5705 98.3939,62.4038 96.5,61C 89.8047,60.6695 83.8047,62.6695 78.5,67C 74.3127,69.4 73.646,72.4 76.5,76C 84.0662,78.7407 91.2328,82.2407 98,86.5C 100.888,94.8423 99.0545,102.009 92.5,108C 83.2024,114.656 72.869,117.656 61.5,117C 56.4333,115.63 54.2666,112.463 55,107.5C 55.5,107 56,106.5 56.5,106C 65.4302,106.235 74.0969,104.902 82.5,102C 87.5431,100.131 88.5431,97.1314 85.5,93C 80.2495,90.4722 74.9161,88.1389 69.5,86C 58.847,77.3768 58.847,68.7101 69.5,60C 75.0741,56.2405 80.7408,52.7405 86.5,49.5 Z"/></g>
</svg>
