<?xml version="1.0" encoding="UTF-8"?>
<!DOCTYPE svg PUBLIC "-//W3C//DTD SVG 1.1//EN" "http://www.w3.org/Graphics/SVG/1.1/DTD/svg11.dtd">
<svg xmlns="http://www.w3.org/2000/svg" version="1.1" width="222px" height="179px" style="shape-rendering:geometricPrecision; text-rendering:geometricPrecision; image-rendering:optimizeQuality; fill-rule:evenodd; clip-rule:evenodd" xmlns:xlink="http://www.w3.org/1999/xlink">
<g><path style="opacity:1" fill="#fefefe" d="M -0.5,-0.5 C 73.5,-0.5 147.5,-0.5 221.5,-0.5C 221.5,59.1667 221.5,118.833 221.5,178.5C 147.5,178.5 73.5,178.5 -0.5,178.5C -0.5,118.833 -0.5,59.1667 -0.5,-0.5 Z"/></g>
<g><path style="opacity:1" fill="#9e9e9e" d="M 126.5,49.5 C 133.435,48.3912 137.102,51.2246 137.5,58C 135.707,68.2618 133.54,78.4284 131,88.5C 130.952,98.9317 130.286,109.265 129,119.5C 125.87,122.122 122.703,122.122 119.5,119.5C 118.733,114.175 117.9,108.841 117,103.5C 112.394,109.561 107.228,115.061 101.5,120C 86.9416,126.473 77.4416,121.973 73,106.5C 72.3081,101.109 72.6415,95.7753 74,90.5C 77.4864,78.8895 80.8197,67.2228 84,55.5C 87.2876,54.2389 90.6209,54.2389 94,55.5C 95.7345,56.4665 96.5678,57.9665 96.5,60C 92.2217,73.1678 88.555,86.5011 85.5,100C 85.5166,103.383 86.3499,106.55 88,109.5C 90.4009,110.602 92.9009,110.769 95.5,110C 103.345,105.187 109.512,98.6869 114,90.5C 119.228,77.0635 123.394,63.3968 126.5,49.5 Z"/></g>
</svg>
