<?xml version="1.0" encoding="UTF-8"?>
<svg version="1.1" xmlns="http://www.w3.org/2000/svg" width="182" height="222">
<path d="M0 0 C60.06 0 120.12 0 182 0 C182 73.26 182 146.52 182 222 C121.94 222 61.88 222 0 222 C0 148.74 0 75.48 0 0 Z " fill="#FEFEFE" transform="translate(0,0)"/>
<path d="M0 0 C0.96534668 -0.0014502 1.93069336 -0.00290039 2.92529297 -0.00439453 C9.84513922 0.10509281 9.84513922 0.10509281 13.25 2.375 C13.1875 4.6875 13.1875 4.6875 12.25 7.375 C7.54061741 9.77411943 3.2395975 10.90596442 -2 11.75 C-8.31403752 12.83725489 -14.49367143 14.23660876 -20.6875 15.875 C-21.45545898 16.07657715 -22.22341797 16.2781543 -23.01464844 16.48583984 C-34.73653314 18.82550025 -34.73653314 18.82550025 -43.88061523 25.19726562 C-44.31096069 26.27524414 -44.31096069 26.27524414 -44.75 27.375 C-45.21805054 28.52258789 -45.21805054 28.52258789 -45.69555664 29.69335938 C-46.7369076 32.41969051 -47.77762966 35.14620056 -48.8125 37.875 C-49.17666016 38.82503906 -49.54082031 39.77507812 -49.91601562 40.75390625 C-50.26470703 41.67042969 -50.61339844 42.58695313 -50.97265625 43.53125 C-51.28984619 44.36462891 -51.60703613 45.19800781 -51.93383789 46.05664062 C-52.67083978 48.15014045 -53.25465198 50.21325522 -53.75 52.375 C-49.8318915 51.29683836 -45.91580591 50.21149201 -42 49.125 C-40.90816406 48.82464844 -39.81632812 48.52429688 -38.69140625 48.21484375 C-32.21650331 46.4141311 -25.85054052 44.44931865 -19.51953125 42.19140625 C-15.00335595 40.86012185 -10.43703014 40.55952875 -5.75 40.375 C-4.9375 42.5625 -4.9375 42.5625 -4.75 45.375 C-8.15569508 49.48045712 -11.28196147 51.31529683 -16.2734375 53.05859375 C-16.89240906 53.27972336 -17.51138062 53.50085297 -18.14910889 53.72868347 C-20.13680141 54.43612162 -22.13059773 55.12423545 -24.125 55.8125 C-26.16864251 56.53498017 -28.21049397 57.26236834 -30.25228882 57.99005127 C-31.58766694 58.46559996 -32.92362084 58.93953513 -34.26016235 59.4118042 C-40.29569288 61.54849272 -46.22065147 63.89879546 -52.1328125 66.3515625 C-54.33945226 67.21445745 -56.43830637 67.87726692 -58.75 68.375 C-62.04666926 79.20878216 -62.04666926 79.20878216 -63.75 90.375 C-51.67362029 89.94675958 -42.19471869 86.72981694 -31.625 81.125 C-25.58097395 77.92298572 -20.71192869 76.1700508 -13.75 77.375 C-13.03515625 79.6328125 -13.03515625 79.6328125 -12.75 82.375 C-17.81615585 90.08765517 -27.62666435 93.35903286 -35.8425293 96.60668945 C-37.69252671 97.35185032 -39.51698261 98.15947106 -41.33984375 98.96875 C-51.36313068 103.1020642 -63.94891597 105.26208595 -74.75 103.375 C-78.20677775 100.6095778 -78.68864717 98.84118858 -79.265625 94.45703125 C-78.94837755 87.72943722 -76.58283947 81.41222221 -74.5 75.0625 C-74.10425781 73.82048828 -73.70851563 72.57847656 -73.30078125 71.29882812 C-71.13001645 64.51251916 -68.88466303 57.75260982 -66.58618164 51.00854492 C-65.74469004 48.35827633 -65.06757074 45.70760834 -64.4375 43 C-55.78379532 7.39753022 -55.78379532 7.39753022 -46.75 1.375 C-42.99301443 0.99930144 -41.99633524 1.2107765 -38.75 3.375 C-38.75 4.365 -38.75 5.355 -38.75 6.375 C-32.26122661 5.45666336 -26.13253645 4.21287573 -19.875 2.25 C-13.19197296 0.38820037 -6.92693075 0.00112761 0 0 Z " fill="#9F9F9F" transform="translate(127.75,64.625)"/>
</svg>
