<?xml version="1.0" encoding="UTF-8"?>
<!DOCTYPE svg PUBLIC "-//W3C//DTD SVG 1.1//EN" "http://www.w3.org/Graphics/SVG/1.1/DTD/svg11.dtd">
<svg xmlns="http://www.w3.org/2000/svg" version="1.1" width="158px" height="180px" style="shape-rendering:geometricPrecision; text-rendering:geometricPrecision; image-rendering:optimizeQuality; fill-rule:evenodd; clip-rule:evenodd" xmlns:xlink="http://www.w3.org/1999/xlink">
<g><path style="opacity:1" fill="#fefefe" d="M -0.5,-0.5 C 52.1667,-0.5 104.833,-0.5 157.5,-0.5C 157.5,59.5 157.5,119.5 157.5,179.5C 104.833,179.5 52.1667,179.5 -0.5,179.5C -0.5,119.5 -0.5,59.5 -0.5,-0.5 Z"/></g>
<g><path style="opacity:1" fill="#9f9f9f" d="M 69.5,45.5 C 77.9553,45.696 81.122,50.0293 79,58.5C 77.5782,63.6868 76.0782,68.8535 74.5,74C 74.8333,74.8333 75.1667,75.6667 75.5,76.5C 83.8859,75.1114 92.2192,73.4447 100.5,71.5C 107.006,71.1547 108.839,73.8214 106,79.5C 104.421,81.0412 102.587,82.2078 100.5,83C 90.1708,84.9574 80.0042,87.4574 70,90.5C 66.4048,100.209 65.0714,110.209 66,120.5C 70.9045,124.269 76.0712,124.435 81.5,121C 88.541,115.626 94.541,109.293 99.5,102C 100.784,101.316 101.951,101.483 103,102.5C 101.389,118.447 93.222,129.613 78.5,136C 65.6093,138.806 57.1093,133.973 53,121.5C 52.3333,116.833 52.3333,112.167 53,107.5C 54.1724,102.146 55.3391,96.813 56.5,91.5C 49.7727,91.271 46.606,87.9376 47,81.5C 47.5,80.3333 48.3333,79.5 49.5,79C 53.5408,78.8265 57.5408,78.3265 61.5,77.5C 64.6048,68.4145 66.4381,59.0812 67,49.5C 67.6622,48.0161 68.4955,46.6828 69.5,45.5 Z"/></g>
</svg>
