<?xml version="1.0" encoding="UTF-8"?>
<!DOCTYPE svg PUBLIC "-//W3C//DTD SVG 1.1//EN" "http://www.w3.org/Graphics/SVG/1.1/DTD/svg11.dtd">
<svg xmlns="http://www.w3.org/2000/svg" version="1.1" width="137px" height="176px" style="shape-rendering:geometricPrecision; text-rendering:geometricPrecision; image-rendering:optimizeQuality; fill-rule:evenodd; clip-rule:evenodd" xmlns:xlink="http://www.w3.org/1999/xlink">
<g><path style="opacity:1" fill="#fefefe" d="M -0.5,-0.5 C 45.1667,-0.5 90.8333,-0.5 136.5,-0.5C 136.5,58.1667 136.5,116.833 136.5,175.5C 90.8333,175.5 45.1667,175.5 -0.5,175.5C -0.5,116.833 -0.5,58.1667 -0.5,-0.5 Z"/></g>
<g><path style="opacity:1" fill="#9f9f9f" d="M 56.5,34.5 C 64.9373,34.6491 68.104,38.9824 66,47.5C 60.8719,63.8846 55.5386,80.218 50,96.5C 47.6592,104.702 46.1592,113.035 45.5,121.5C 53.7365,120.942 61.7365,119.109 69.5,116C 78.8333,112 88.1667,108 97.5,104C 105.393,102.977 107.56,106.143 104,113.5C 102.269,115.617 100.102,117.117 97.5,118C 82.2326,123.867 66.8993,129.533 51.5,135C 43.5042,137.19 37.0042,135.023 32,128.5C 30.4548,123.953 30.1215,119.287 31,114.5C 39.6344,90.6012 46.6344,66.2679 52,41.5C 53.0121,38.7982 54.5121,36.4649 56.5,34.5 Z"/></g>
</svg>
