<?xml version="1.0" encoding="UTF-8"?>
<svg version="1.1" xmlns="http://www.w3.org/2000/svg" width="195" height="224">
<path d="M0 0 C64.35 0 128.7 0 195 0 C195 73.92 195 147.84 195 224 C130.65 224 66.3 224 0 224 C0 150.08 0 76.16 0 0 Z " fill="#FEFEFE" transform="translate(0,0)"/>
<path d="M0 0 C1.17369141 -0.020625 2.34738281 -0.04125 3.55664062 -0.0625 C18.87697818 -0.13025163 33.97857293 3.91800508 45.80078125 14.0078125 C53.15378407 21.29731788 57.18589163 28.797654 57.49438477 39.30004883 C57.53187905 53.572331 52.54515398 63.51722122 43.0625 74.25 C25.29805077 92.07634626 -6.25392538 100.58454926 -30.75 100.75 C-35.17934604 100.70922351 -37.7139881 100.40492654 -40.9375 97.25 C-41.5625 94.875 -41.5625 94.875 -40.9375 92.25 C-37.56598097 88.95340361 -34.7661577 86.38521308 -29.89453125 86.15234375 C-29.18683594 86.16394531 -28.47914062 86.17554688 -27.75 86.1875 C-26.491875 86.208125 -25.23375 86.22875 -23.9375 86.25 C-23.80130249 84.72729492 -23.80130249 84.72729492 -23.66235352 83.17382812 C-22.82048942 76.48577201 -20.99572298 69.99113632 -19.33984375 63.46875 C-18.98213611 62.04539179 -18.62484812 60.62192807 -18.26795959 59.19836426 C-17.33342912 55.47542 -16.39325178 51.75392492 -15.45184326 48.03271484 C-14.48983459 44.22580294 -13.53323959 40.41753148 -12.57617188 36.609375 C-10.70187465 29.15491802 -8.8216026 21.70198546 -6.9375 14.25 C-8.20722656 14.29511719 -9.47695312 14.34023437 -10.78515625 14.38671875 C-14.24115432 14.50952071 -14.64432176 14.51310868 -17.375 12.0625 C-18.87902927 9.35524731 -19.58796728 7.30841131 -19.9375 4.25 C-13.69076911 -0.70430381 -7.68731032 0.03279919 0 0 Z " fill="#9E9E9E" transform="translate(81.9375,55.75)"/>
<path d="M0 0 C13.35281548 0.87559446 23.45172274 5.66250782 32.4375 15.625 C36.43521953 20.64152894 37.53798161 24.92502178 37.3671875 31.3203125 C36.10348801 40.54263007 29.91100421 47.24618719 23 53 C19.45499629 55.57206839 15.80565679 57.83546455 12 60 C11.24460937 60.43957031 10.48921875 60.87914062 9.7109375 61.33203125 C1.6620595 65.68838274 -9.71857472 71 -19 71 C-17.77376915 62.05670191 -16.04288431 53.36976874 -13.8125 44.625 C-13.50860352 43.42270752 -13.20470703 42.22041504 -12.89160156 40.98168945 C-10.84400775 32.99912498 -8.63904744 25.07451445 -6.25 17.1875 C-5.96874268 16.25824707 -5.68748535 15.32899414 -5.39770508 14.37158203 C-3.86504631 9.43255832 -2.13386004 4.71120304 0 0 Z " fill="#FDFDFD" transform="translate(91,69)"/>
</svg>
