<?xml version="1.0" encoding="UTF-8"?>
<svg version="1.1" xmlns="http://www.w3.org/2000/svg" width="162" height="186">
<path d="M0 0 C53.46 0 106.92 0 162 0 C162 61.38 162 122.76 162 186 C108.54 186 55.08 186 0 186 C0 124.62 0 63.24 0 0 Z " fill="#FEFEFE" transform="translate(0,0)"/>
<path d="M0 0 C2 2 2 2 2.06884766 4.05322266 C1.39268081 10.06084116 0.16243952 15.60735982 -1.625 21.375 C-4.62532771 31.39026958 -7.15584615 41.49328507 -9.55126953 51.66943359 C-9.96481689 53.37993896 -9.96481689 53.37993896 -10.38671875 55.125 C-10.62608154 56.13820312 -10.86544434 57.15140625 -11.11206055 58.1953125 C-12.04180162 61.13203656 -13.31532749 63.43198411 -15 66 C-21.3006993 65.52447552 -21.3006993 65.52447552 -24 63.5 C-26.57467692 57.06330769 -23.31640331 49.01563803 -21.375 42.6875 C-18.36241665 32.59604206 -15.83060713 22.41298711 -13.44873047 12.1550293 C-13.03518311 10.43473511 -13.03518311 10.43473511 -12.61328125 8.6796875 C-12.25423706 7.14417236 -12.25423706 7.14417236 -11.88793945 5.57763672 C-9.67599542 -0.84350849 -6.06610987 -0.48143729 0 0 Z " fill="#9F9F9F" transform="translate(89,71)"/>
<path d="M0 0 C2.8125 0.4375 2.8125 0.4375 4.8125 1.4375 C4.8125 2.0975 4.8125 2.7575 4.8125 3.4375 C5.8025 3.7675 6.7925 4.0975 7.8125 4.4375 C8.16921933 8.27223284 8.11021416 9.99092875 5.9375 13.25 C3.84414086 15.40492853 2.90293211 16.33981546 -0.0625 16.60546875 C-0.76375 16.61191406 -1.465 16.61835937 -2.1875 16.625 C-3.239375 16.64626953 -3.239375 16.64626953 -4.3125 16.66796875 C-6.1875 16.4375 -6.1875 16.4375 -8.1875 14.4375 C-8.72704578 9.81282191 -8.8893392 6.75509634 -6.0625 2.9375 C-3.1875 0.4375 -3.1875 0.4375 0 0 Z " fill="#9E9E9E" transform="translate(93.1875,38.5625)"/>
</svg>
