<?xml version="1.0" encoding="UTF-8"?>
<svg version="1.1" xmlns="http://www.w3.org/2000/svg" width="185" height="178">
<path d="M0 0 C61.05 0 122.1 0 185 0 C185 58.74 185 117.48 185 178 C123.95 178 62.9 178 0 178 C0 119.26 0 60.52 0 0 Z " fill="#FEFEFE" transform="translate(0,0)"/>
<path d="M0 0 C2.3125 1 2.3125 1 4.3125 4 C5.19528491 8.14229843 5.53245083 10.87645205 3.36914062 14.64208984 C-2.0463012 22.53335152 -8.76679472 29.43185895 -15.6875 36 C-18.2369478 38.53307895 -20.76878026 41.082377 -23.29296875 43.640625 C-24.14503906 44.50171875 -24.99710938 45.3628125 -25.875 46.25 C-26.73480469 47.12140625 -27.59460938 47.9928125 -28.48046875 48.890625 C-30.6875 51 -30.6875 51 -32.6875 52 C-31.86507812 52.40089844 -31.04265625 52.80179688 -30.1953125 53.21484375 C-14.51861256 61.19801312 -4.30436994 72.05879551 1.3125 89 C2.37091156 92.81604169 2.80134997 96.0193645 2.3125 100 C-0.3125 103 -0.3125 103 -3.6875 105 C-6.875 105.0625 -6.875 105.0625 -9.6875 104 C-12.21738834 101.21956716 -13.09074101 99.06078672 -13.625 95.375 C-15.3084447 86.1432065 -18.41257505 78.21978317 -25.6875 72 C-28.89349901 69.96174898 -32.17151275 68.42685547 -35.6875 67 C-36.47769531 66.66871094 -37.26789063 66.33742188 -38.08203125 65.99609375 C-43.02475941 64.11836227 -46.44961042 63.64537338 -51.6875 65 C-52.61433594 65.226875 -53.54117188 65.45375 -54.49609375 65.6875 C-55.48738281 65.97625 -56.47867188 66.265 -57.5 66.5625 C-58.43457031 66.83191406 -59.36914062 67.10132812 -60.33203125 67.37890625 C-63.27994834 69.40773808 -63.70475883 71.25457872 -64.36645508 74.69750977 C-65.03838486 79.51649816 -65.45190052 84.34610172 -65.81054688 89.19726562 C-66.26108624 94.26684825 -66.91925975 98.23175975 -70.6875 102 C-73.625 102.25 -73.625 102.25 -76.6875 102 C-80.94047439 95.62053842 -79.41906781 86.27092319 -78.16894531 78.97265625 C-76.78702337 72.23655224 -75.12858384 65.56840322 -73.43151855 58.90594482 C-72.12284339 53.76777157 -70.86749084 48.61853979 -69.63438416 43.4617157 C-68.67341889 39.44802109 -67.7001443 35.43736716 -66.72476196 31.42715454 C-66.24355657 29.44217468 -65.76596558 27.45631494 -65.29208374 25.46957397 C-64.62022585 22.66262568 -63.93137399 19.86036345 -63.23828125 17.05859375 C-62.94161057 15.79641022 -62.94161057 15.79641022 -62.63894653 14.50872803 C-61.46478233 9.84451229 -60.25322656 6.44148522 -56.6875 3 C-52.5740729 2.41236756 -51.18315336 2.66956442 -47.6875 5 C-45.64587218 16.21797651 -50.32106583 28.61904054 -53.8125 39.0625 C-54.54674078 41.28173642 -55.27863931 43.50174962 -56.0078125 45.72265625 C-56.33023926 46.68953369 -56.65266602 47.65641113 -56.98486328 48.65258789 C-57.78308456 50.91094901 -57.78308456 50.91094901 -57.6875 53 C-48.71164982 49.22823317 -41.9779924 44.23744352 -35.15332031 37.45556641 C-33.71920967 36.03148785 -32.26213956 34.63064965 -30.8046875 33.23046875 C-23.19969524 25.8267228 -16.23563345 18.03612622 -10.4375 9.125 C-4.47999101 0 -4.47999101 0 0 0 Z " fill="#9E9E9E" transform="translate(125.6875,35)"/>
</svg>
