<?xml version="1.0" encoding="UTF-8"?>
<!DOCTYPE svg PUBLIC "-//W3C//DTD SVG 1.1//EN" "http://www.w3.org/Graphics/SVG/1.1/DTD/svg11.dtd">
<svg xmlns="http://www.w3.org/2000/svg" version="1.1" width="225px" height="211px" style="shape-rendering:geometricPrecision; text-rendering:geometricPrecision; image-rendering:optimizeQuality; fill-rule:evenodd; clip-rule:evenodd" xmlns:xlink="http://www.w3.org/1999/xlink">
<g><path style="opacity:1" fill="#fefefe" d="M -0.5,-0.5 C 74.5,-0.5 149.5,-0.5 224.5,-0.5C 224.5,69.8333 224.5,140.167 224.5,210.5C 149.5,210.5 74.5,210.5 -0.5,210.5C -0.5,140.167 -0.5,69.8333 -0.5,-0.5 Z"/></g>
<g><path style="opacity:1" fill="#9e9e9e" d="M 160.5,44.5 C 163.97,43.8748 166.804,44.8748 169,47.5C 169.667,52.5 169.667,57.5 169,62.5C 164.236,87.7482 159.903,113.082 156,138.5C 155.07,144.118 151.904,146.618 146.5,146C 144.129,144.257 142.795,141.923 142.5,139C 147.28,116.489 152.113,93.9893 157,71.5C 157.818,68.7728 157.652,66.1062 156.5,63.5C 147.733,70.7634 140.233,79.0967 134,88.5C 126,100.5 118,112.5 110,124.5C 105.806,131.554 102.139,138.888 99,146.5C 95.982,151.265 92.6487,151.598 89,147.5C 88.3333,144.5 88.3333,141.5 89,138.5C 93.8441,119.457 98.8441,100.457 104,81.5C 105.551,74.9155 106.384,68.2488 106.5,61.5C 102.156,61.3385 98.4893,62.8385 95.5,66C 84.1135,80.5901 74.6135,96.4234 67,113.5C 61.9444,126.435 56.7778,139.268 51.5,152C 48.8333,152.667 46.1667,152.667 43.5,152C 41.9546,150.178 41.288,148.011 41.5,145.5C 49.1088,117.95 61.2755,92.6166 78,69.5C 84.2053,61.6273 91.372,54.7939 99.5,49C 113.517,43.7567 120.017,48.59 119,63.5C 115.756,76.0501 113.423,88.7167 112,101.5C 123.929,82.5624 137.762,65.0624 153.5,49C 155.898,47.4758 158.231,45.9758 160.5,44.5 Z"/></g>
</svg>
