<?xml version="1.0" encoding="UTF-8"?>
<!DOCTYPE svg PUBLIC "-//W3C//DTD SVG 1.1//EN" "http://www.w3.org/Graphics/SVG/1.1/DTD/svg11.dtd">
<svg xmlns="http://www.w3.org/2000/svg" version="1.1" width="194px" height="222px" style="shape-rendering:geometricPrecision; text-rendering:geometricPrecision; image-rendering:optimizeQuality; fill-rule:evenodd; clip-rule:evenodd" xmlns:xlink="http://www.w3.org/1999/xlink">
<g><path style="opacity:1" fill="#fefefe" d="M -0.5,-0.5 C 64.1667,-0.5 128.833,-0.5 193.5,-0.5C 193.5,73.5 193.5,147.5 193.5,221.5C 128.833,221.5 64.1667,221.5 -0.5,221.5C -0.5,147.5 -0.5,73.5 -0.5,-0.5 Z"/></g>
<g><path style="opacity:1" fill="#9f9f9f" d="M 145.5,48.5 C 151.448,47.2834 153.948,49.6168 153,55.5C 151.833,56.6667 150.667,57.8333 149.5,59C 143.189,61.2788 137.022,63.7788 131,66.5C 129.048,86.2622 125.048,105.596 119,124.5C 114.623,135.528 108.623,145.528 101,154.5C 92.1551,163.092 81.6551,165.926 69.5,163C 57.8774,159.788 48.7107,153.288 42,143.5C 40.5236,138.924 40.1902,134.257 41,129.5C 44.5584,124.413 48.8917,123.413 54,126.5C 55.4644,140.967 63.4644,149.3 78,151.5C 85.666,150.662 91.666,146.996 96,140.5C 108.646,119.228 115.646,96.2277 117,71.5C 110.772,71.9305 104.605,73.4305 98.5,76C 95.5027,76.7554 93.0027,75.9221 91,73.5C 88.9814,62.184 93.8147,57.3507 105.5,59C 119.036,55.7841 132.37,52.2841 145.5,48.5 Z"/></g>
</svg>
