<?xml version="1.0" encoding="UTF-8"?>
<!DOCTYPE svg PUBLIC "-//W3C//DTD SVG 1.1//EN" "http://www.w3.org/Graphics/SVG/1.1/DTD/svg11.dtd">
<svg xmlns="http://www.w3.org/2000/svg" version="1.1" width="203px" height="202px" style="shape-rendering:geometricPrecision; text-rendering:geometricPrecision; image-rendering:optimizeQuality; fill-rule:evenodd; clip-rule:evenodd" xmlns:xlink="http://www.w3.org/1999/xlink">
<g><path style="opacity:1" fill="#fefefe" d="M -0.5,-0.5 C 67.1667,-0.5 134.833,-0.5 202.5,-0.5C 202.5,66.8333 202.5,134.167 202.5,201.5C 134.833,201.5 67.1667,201.5 -0.5,201.5C -0.5,134.167 -0.5,66.8333 -0.5,-0.5 Z"/></g>
<g><path style="opacity:1" fill="#9e9e9e" d="M 87.5,44.5 C 92.8686,44.528 96.2019,47.1947 97.5,52.5C 112.147,52.4115 125.814,55.9115 138.5,63C 147.553,70.2433 150.053,79.41 146,90.5C 139.622,99.8683 131.122,106.702 120.5,111C 105.627,116.702 90.2934,120.702 74.5,123C 71.6779,134.14 68.8445,145.306 66,156.5C 63.9274,161.282 60.4274,163.449 55.5,163C 52.8059,160.347 51.9726,157.18 53,153.5C 60.2348,125.895 68.4015,98.5621 77.5,71.5C 74.9556,71.8957 72.7889,71.229 71,69.5C 68.548,60.8916 71.7147,56.0583 80.5,55C 82.2235,51.041 84.5568,47.541 87.5,44.5 Z"/></g>
<g><path style="opacity:1" fill="#fdfdfd" d="M 97.5,66.5 C 107.292,66.0237 116.958,66.8571 126.5,69C 139.305,74.8337 140.639,82.5004 130.5,92C 114.931,100.895 98.2641,106.728 80.5,109.5C 79.3691,107.926 79.2025,106.259 80,104.5C 83.7426,92.2711 88.0759,80.2711 93,68.5C 94.6225,67.9011 96.1225,67.2344 97.5,66.5 Z"/></g>
</svg>
