<?xml version="1.0" encoding="UTF-8"?>
<!DOCTYPE svg PUBLIC "-//W3C//DTD SVG 1.1//EN" "http://www.w3.org/Graphics/SVG/1.1/DTD/svg11.dtd">
<svg xmlns="http://www.w3.org/2000/svg" version="1.1" width="195px" height="176px" style="shape-rendering:geometricPrecision; text-rendering:geometricPrecision; image-rendering:optimizeQuality; fill-rule:evenodd; clip-rule:evenodd" xmlns:xlink="http://www.w3.org/1999/xlink">
<g><path style="opacity:1" fill="#fefefe" d="M -0.5,-0.5 C 64.5,-0.5 129.5,-0.5 194.5,-0.5C 194.5,58.1667 194.5,116.833 194.5,175.5C 129.5,175.5 64.5,175.5 -0.5,175.5C -0.5,116.833 -0.5,58.1667 -0.5,-0.5 Z"/></g>
<g><path style="opacity:1" fill="#9e9e9e" d="M 107.5,41.5 C 119.229,41.0878 130.896,41.5878 142.5,43C 146.5,47 146.5,51 142.5,55C 135.52,55.001 128.52,54.8343 121.5,54.5C 114.53,54.323 107.697,54.9897 101,56.5C 100.667,60.1667 100.333,63.8333 100,67.5C 92.2379,92.6585 85.4045,117.992 79.5,143.5C 72.334,146.536 69.0007,144.203 69.5,136.5C 73.9446,116.33 79.1112,96.3296 85,76.5C 86.4783,71.2573 87.3116,65.924 87.5,60.5C 84.0534,60.8143 80.7201,61.6476 77.5,63C 69.7134,66.6441 61.8801,70.1441 54,73.5C 48.8591,72.0886 47.1925,68.7553 49,63.5C 49.3742,62.5838 49.8742,61.7504 50.5,61C 68.3805,50.9541 87.3805,44.4541 107.5,41.5 Z"/></g>
</svg>
