<?xml version="1.0" encoding="UTF-8"?>
<svg version="1.1" xmlns="http://www.w3.org/2000/svg" width="169" height="168">
<path d="M0 0 C55.77 0 111.54 0 169 0 C169 55.44 169 110.88 169 168 C113.23 168 57.46 168 0 168 C0 112.56 0 57.12 0 0 Z " fill="#FEFEFE" transform="translate(0,0)"/>
<path d="M0 0 C4.51315789 2.02631579 4.51315789 2.02631579 6 5 C6.4200542 12.56097561 6.4200542 12.56097561 4 16 C0.09657295 18.6022847 -1.49105903 17.85514398 -6 17 C-6.825 16.71125 -7.65 16.4225 -8.5 16.125 C-11.77171937 15.96141403 -13.57974449 17.10640413 -16.10546875 19.109375 C-24.54152914 27.52804145 -31.18117963 40.17499099 -31.375 52.25 C-31.24381972 55.80902334 -31.24381972 55.80902334 -30 58 C-18.86646843 58.70689089 -11.93526515 54.14850143 -2.69921875 48.29296875 C0 47 0 47 2.35546875 47.30078125 C2.89816406 47.53152344 3.44085938 47.76226562 4 48 C3.87013698 53.19452086 1.98345389 56.23400796 -1.46875 59.8984375 C-9.87596428 66.87850121 -19.86173382 71.41707151 -30.921875 70.72265625 C-35.95860184 69.54017597 -38.95250804 67.11076525 -42 63 C-45.24633838 56.91311553 -44.74639504 50.0055729 -43.125 43.4765625 C-37.61289192 25.88858606 -28.52933368 10.19103609 -12 1 C-8.31833802 -0.84083099 -4.02754194 -0.36729156 0 0 Z " fill="#9F9F9F" transform="translate(98,44)"/>
</svg>
