<?xml version="1.0" encoding="UTF-8"?>
<svg version="1.1" xmlns="http://www.w3.org/2000/svg" width="237" height="223">
<path d="M0 0 C78.21 0 156.42 0 237 0 C237 73.59 237 147.18 237 223 C158.79 223 80.58 223 0 223 C0 149.41 0 75.82 0 0 Z " fill="#FEFEFE" transform="translate(0,0)"/>
<path d="M0 0 C5.1680366 2.41825109 8.24034581 5.55131837 10.7578125 10.71875 C18.24264035 34.32474554 7.78656067 66.55444582 -1.62988281 88.36035156 C-2.49377353 90.43516602 -3.25832429 92.53397372 -4.01953125 94.6484375 C-5.41998638 98.2562582 -5.97506598 99.65554576 -9.4296875 101.28125 C-12.24220893 101.6928385 -13.74818826 101.65724958 -16.2421875 100.28125 C-18.12145048 97.1161755 -17.80989337 93.8350269 -17.4296875 90.28125 C-16.60815498 87.37944643 -15.44582832 84.66810686 -14.2421875 81.90625 C-10.50573788 72.88197612 -7.85369965 63.7315462 -5.4296875 54.28125 C-6.4196875 54.77625 -6.4196875 54.77625 -7.4296875 55.28125 C-9.21767606 55.55632516 -11.010424 55.80062487 -12.8046875 56.03125 C-18.82488343 56.89890573 -24.56005774 58.32800617 -30.4296875 59.90625 C-38.30269163 61.9966581 -45.25216803 62.95276164 -53.4296875 62.28125 C-54.22525407 63.98777065 -55.0159513 65.6965617 -55.8046875 67.40625 C-56.24554688 68.35757813 -56.68640625 69.30890625 -57.140625 70.2890625 C-59.87499001 76.6361037 -60.93275967 82.50978313 -61.37695312 89.359375 C-61.91568741 94.94940998 -63.49301073 97.502979 -67.4296875 101.28125 C-70.5546875 101.53125 -70.5546875 101.53125 -73.4296875 100.28125 C-77.40112522 95.25076223 -77.11143105 89.3777613 -76.4296875 83.28125 C-74.29738596 72.84772424 -69.43038982 63.57719017 -64.4296875 54.28125 C-64.10452148 53.67104004 -63.77935547 53.06083008 -63.44433594 52.43212891 C-52.35842144 31.78841935 -37.93709748 10.73624096 -16.4296875 0.28125 C-11.74391709 -2.0616352 -4.91552517 -1.45411034 0 0 Z " fill="#9F9F9F" transform="translate(143.4296875,60.71875)"/>
<path d="M0 0 C2.44214943 2.15254941 3.82163284 3.85753211 4.33203125 7.12670898 C4.43025207 9.61727173 4.39786999 12.07159349 4.3125 14.5625 C4.29799805 15.83770508 4.29799805 15.83770508 4.28320312 17.13867188 C4.21478192 20.93158646 4.03026895 24.33261585 3 28 C0.66738977 28.48292321 -1.66599588 28.96139859 -4 29.4375 C-4.64839844 29.57220703 -5.29679687 29.70691406 -5.96484375 29.84570312 C-13.87019241 31.45025409 -21.44535689 32.14776902 -29.5 32.0625 C-30.32242188 32.05798828 -31.14484375 32.05347656 -31.9921875 32.04882812 C-33.99482396 32.03718489 -35.99742227 32.01925556 -38 32 C-36.5283479 27.64164569 -34.18769572 24.2693582 -31.375 20.6875 C-30.92769531 20.11572021 -30.48039062 19.54394043 -30.01953125 18.95483398 C-22.76797642 9.8142078 -12.95868668 -2.45768196 0 0 Z " fill="#FDFDFD" transform="translate(138,74)"/>
</svg>
