<?xml version="1.0" encoding="UTF-8"?>
<!DOCTYPE svg PUBLIC "-//W3C//DTD SVG 1.1//EN" "http://www.w3.org/Graphics/SVG/1.1/DTD/svg11.dtd">
<svg xmlns="http://www.w3.org/2000/svg" version="1.1" width="187px" height="170px" style="shape-rendering:geometricPrecision; text-rendering:geometricPrecision; image-rendering:optimizeQuality; fill-rule:evenodd; clip-rule:evenodd" xmlns:xlink="http://www.w3.org/1999/xlink">
<g><path style="opacity:1" fill="#fefefe" d="M -0.5,-0.5 C 61.8333,-0.5 124.167,-0.5 186.5,-0.5C 186.5,56.1667 186.5,112.833 186.5,169.5C 124.167,169.5 61.8333,169.5 -0.5,169.5C -0.5,112.833 -0.5,56.1667 -0.5,-0.5 Z"/></g>
<g><path style="opacity:1" fill="#9e9e9e" d="M 56.5,47.5 C 63.3802,46.8764 66.2136,49.8764 65,56.5C 64.3581,58.7619 63.5248,60.9285 62.5,63C 62.8333,63.1667 63.1667,63.3333 63.5,63.5C 72.7535,54.5348 83.7535,50.7015 96.5,52C 100.575,53.9049 102.908,57.0716 103.5,61.5C 109.472,57.3652 115.805,53.8652 122.5,51C 140.75,48.5858 147.917,56.4191 144,74.5C 140.414,89.3355 135.414,103.669 129,117.5C 126.441,120.349 123.274,121.183 119.5,120C 117.406,118.745 116.406,116.912 116.5,114.5C 122.824,101.028 127.657,87.028 131,72.5C 131.667,69.5 131.667,66.5 131,63.5C 129.701,62.0203 128.034,61.3536 126,61.5C 121.422,62.3718 117.255,64.2051 113.5,67C 108.667,71.1667 103.833,75.3333 99,79.5C 93.9028,91.7873 90.2362,104.454 88,117.5C 79.1747,121.363 75.5081,118.363 77,108.5C 80.6705,96.8224 84.3372,85.1558 88,73.5C 88.6667,70.1667 88.6667,66.8333 88,63.5C 87.1074,62.9186 86.1074,62.5852 85,62.5C 81.0936,63.0783 77.5936,64.5783 74.5,67C 68.3647,72.134 62.5313,77.634 57,83.5C 52.9222,94.1448 50.2556,105.145 49,116.5C 46.0071,123.214 41.6738,124.214 36,119.5C 35.3333,117.5 35.3333,115.5 36,113.5C 42.0937,93.0322 47.427,72.3655 52,51.5C 53.3968,49.9297 54.8968,48.5964 56.5,47.5 Z"/></g>
</svg>
