<?xml version="1.0" encoding="UTF-8"?>
<svg version="1.1" xmlns="http://www.w3.org/2000/svg" width="222" height="238">
<path d="M0 0 C73.26 0 146.52 0 222 0 C222 78.54 222 157.08 222 238 C148.74 238 75.48 238 0 238 C0 159.46 0 80.92 0 0 Z " fill="#FEFEFE" transform="translate(0,0)"/>
<path d="M0 0 C3.42972317 -0.52191439 5.32694915 -0.37194916 8.375 1.3125 C11.58382169 6.61939741 10.53561961 12.44527502 9.3046875 18.31640625 C8.28079507 22.23559114 7.15413929 26.11789512 6 30 C5.18612846 32.79698136 4.3777272 35.59546428 3.57275391 38.39501953 C3.03093174 40.27515854 2.4838608 42.15379413 1.93115234 44.03076172 C1.68059082 44.8920166 1.4300293 45.75327148 1.171875 46.640625 C0.9459668 47.40922852 0.72005859 48.17783203 0.48730469 48.96972656 C-0.11669532 51.13820222 -0.11669532 51.13820222 0 54 C0.928125 53.113125 1.85625 52.22625 2.8125 51.3125 C10.7447489 44.63354642 18.52349762 42.17724252 28.87890625 42.57421875 C33.12411724 43.15335266 34.98208541 43.98208541 38 47 C41.4788918 52.58325642 40.7688679 59.64828842 39.34765625 65.84375 C33.64414599 82.88084503 21.82459987 93.95727931 6.18847656 101.92285156 C2.61004929 103.56920023 -0.31935288 104.37360526 -4.25 104.25 C-5.08015625 104.23453125 -5.9103125 104.2190625 -6.765625 104.203125 C-9 104 -9 104 -12 103 C-12.350625 103.495 -12.70125 103.99 -13.0625 104.5 C-16.05072823 106.81346701 -18.34503841 106.4568702 -22 106 C-23.9375 104.4375 -23.9375 104.4375 -25 102 C-25.29051082 96.78971667 -24.53855415 92.15925614 -23.2421875 87.14453125 C-23.05869247 86.40951889 -22.87519745 85.67450653 -22.68614197 84.91722107 C-22.09120338 82.54666335 -21.48367621 80.17956421 -20.875 77.8125 C-20.45902458 76.1709501 -20.04325407 74.52934827 -19.62768555 72.88769531 C-17.32658414 63.85486525 -14.88211317 54.88982964 -12.10791016 45.98950195 C-10.11364444 39.54407423 -8.39761679 33.0421706 -6.75 26.5 C-6.50354736 25.53223633 -6.25709473 24.56447266 -6.00317383 23.56738281 C-4.51869517 17.58020791 -3.39817239 11.62264556 -2.53613281 5.51367188 C-2 3 -2 3 0 0 Z " fill="#9F9F9F" transform="translate(102,54)"/>
<path d="M0 0 C1.29357422 0.02320312 1.29357422 0.02320312 2.61328125 0.046875 C4.6875 0.25 4.6875 0.25 5.6875 1.25 C5.1028071 13.52855097 0.67849119 21.88157342 -8.3125 30.25 C-16.05672173 36.46137233 -24.67186065 40.14658778 -34.3125 42.25 C-34.58045045 36.50820467 -33.65878543 31.64662754 -32.125 26.125 C-31.92841797 25.33996094 -31.73183594 24.55492187 -31.52929688 23.74609375 C-29.35368731 15.80679237 -24.54589305 12.15028417 -17.875 7.625 C-17.32779297 7.2434375 -16.78058594 6.861875 -16.21679688 6.46875 C-10.98147941 2.87527766 -6.50143874 -0.19731225 0 0 Z " fill="#FDFDFD" transform="translate(124.3125,107.75)"/>
</svg>
