<?xml version="1.0" encoding="UTF-8"?>
<!DOCTYPE svg PUBLIC "-//W3C//DTD SVG 1.1//EN" "http://www.w3.org/Graphics/SVG/1.1/DTD/svg11.dtd">
<svg xmlns="http://www.w3.org/2000/svg" version="1.1" width="186px" height="175px" style="shape-rendering:geometricPrecision; text-rendering:geometricPrecision; image-rendering:optimizeQuality; fill-rule:evenodd; clip-rule:evenodd" xmlns:xlink="http://www.w3.org/1999/xlink">
<g><path style="opacity:1" fill="#fefefe" d="M -0.5,-0.5 C 61.5,-0.5 123.5,-0.5 185.5,-0.5C 185.5,57.8333 185.5,116.167 185.5,174.5C 123.5,174.5 61.5,174.5 -0.5,174.5C -0.5,116.167 -0.5,57.8333 -0.5,-0.5 Z"/></g>
<g><path style="opacity:1" fill="#9e9e9e" d="M 127.5,33.5 C 132.358,33.8542 135.192,36.5209 136,41.5C 134.741,66.6095 127.075,89.6095 113,110.5C 104.209,122.631 93.0421,131.797 79.5,138C 52.1699,144.342 40.3366,133.509 44,105.5C 47.333,91.8344 51.6664,78.5011 57,65.5C 58.4321,59.5742 59.4321,53.5742 60,47.5C 61.9646,41.4324 65.798,39.9324 71.5,43C 73.3428,45.352 74.3428,48.0187 74.5,51C 69.7347,65.9622 64.568,80.7956 59,95.5C 56.7715,103.033 56.1048,110.699 57,118.5C 59.9081,126.151 65.4081,128.651 73.5,126C 81.0562,123.89 87.7229,120.223 93.5,115C 112.867,93.2451 123.034,67.7451 124,38.5C 124.997,36.6769 126.164,35.0103 127.5,33.5 Z"/></g>
</svg>
