<?xml version="1.0" encoding="UTF-8"?>
<svg version="1.1" xmlns="http://www.w3.org/2000/svg" width="159" height="194">
<path d="M0 0 C52.47 0 104.94 0 159 0 C159 64.02 159 128.04 159 194 C106.53 194 54.06 194 0 194 C0 129.98 0 65.96 0 0 Z " fill="#FEFEFE" transform="translate(0,0)"/>
<path d="M0 0 C1.9534916 1.57232251 2.88921318 2.45909964 3.3984375 4.9453125 C3.39070313 5.66460937 3.38296875 6.38390625 3.375 7.125 C3.38660156 8.18074219 3.38660156 8.18074219 3.3984375 9.2578125 C2.80402513 13.34876824 1.36337043 17.11439427 0 21 C-1.72690395 26.03663467 -3.43031553 31.08129715 -5.13354492 36.12597656 C-5.66498021 37.695268 -6.19911434 39.26364834 -6.73608398 40.83105469 C-12.17371281 56.71716511 -15.98170739 72.51242192 -18.50976562 89.12695312 C-19.33609712 94.22092072 -20.16889641 98.57331184 -23 103 C-26.67996503 105.45331002 -28.65413172 105.39507893 -33 105 C-36.08711808 100.36932289 -34.62015705 96.1252663 -33.57403564 90.85336304 C-33.09390878 88.70970376 -32.5745705 86.57969804 -32.0390625 84.44921875 C-31.84782806 83.6691597 -31.65659363 82.88910065 -31.45956421 82.08540344 C-30.85335821 79.61808922 -30.23932729 77.15280315 -29.625 74.6875 C-29.22083648 73.04765355 -28.81718691 71.40768033 -28.4140625 69.76757812 C-27.63413061 66.59837161 -26.849179 63.43048088 -26.05957031 60.26367188 C-25.42422075 57.71496269 -24.79855663 55.16486439 -24.18261719 52.61132812 C-22.42010124 45.34661422 -20.26440302 38.24759602 -18 31.125 C-15.42940475 22.96932879 -13.09338845 14.99820062 -11.765625 6.5390625 C-10.81954398 3.40154892 -9.52591857 2.04880062 -7 0 C-3.83170302 -1.05609899 -3.01480825 -1.13055309 0 0 Z " fill="#9F9F9F" transform="translate(93,47)"/>
</svg>
