<?xml version="1.0" encoding="UTF-8"?>
<svg version="1.1" xmlns="http://www.w3.org/2000/svg" width="179" height="196">
<path d="M0 0 C59.07 0 118.14 0 179 0 C179 64.68 179 129.36 179 196 C119.93 196 60.86 196 0 196 C0 131.32 0 66.64 0 0 Z " fill="#FEFEFE" transform="translate(0,0)"/>
<path d="M0 0 C2.51594502 0.08234002 3.86661565 0.21158988 6.125 1.375 C8.43467986 6.14833838 5.41220544 12.62572397 3.78979492 17.32983398 C3.4879126 18.19036377 3.18603027 19.05089355 2.875 19.9375 C-0.29004437 29.16963281 -3.05863913 38.47078419 -5.67578125 47.87109375 C-6.65888297 51.39022693 -7.74132972 54.85876892 -8.9375 58.3125 C-0.34953104 52.32051405 7.75112345 45.99446229 14.88671875 38.296875 C15.36431641 37.79067627 15.84191406 37.28447754 16.33398438 36.76293945 C17.68031823 35.32445137 19.00298566 33.86392027 20.32421875 32.40234375 C23.80028055 29.74942925 25.78748421 29.82059427 30.0625 30.3125 C32.0625 31.4375 32.0625 31.4375 33.0625 33.3125 C33.0625 38.63478929 30.60520404 41.6387318 27.0625 45.3125 C24.76960169 47.32129576 22.37243447 49.16739143 19.9375 51 C18.70435238 51.93960208 17.47253464 52.88095261 16.2421875 53.82421875 C15.70319824 54.23115967 15.16420898 54.63810059 14.60888672 55.05737305 C12.97881407 56.3804238 11.52171736 57.80482458 10.0625 59.3125 C10.949375 59.93125 11.83625 60.55 12.75 61.1875 C19.41500094 66.74954571 22.50355695 76.13010965 23.26708984 84.57543945 C23.36400569 86.90806113 23.38472706 89.22800536 23.375 91.5625 C23.39111328 92.35140625 23.40722656 93.1403125 23.42382812 93.953125 C23.42674811 97.41038633 23.36792811 99.72182221 21.76171875 102.828125 C20.0625 104.3125 20.0625 104.3125 16.5625 104.8125 C13.0625 104.3125 13.0625 104.3125 11.375 102.72265625 C9.61337058 99.48775936 9.65361377 96.92112559 9.5625 93.25 C9.20579013 85.20050856 8.48524924 77.81202667 3.8125 71.0625 C1.13103279 69.02051453 1.13103279 69.02051453 -2.3125 69.25 C-8.22483475 70.7599762 -8.22483475 70.7599762 -12.9375 74.3125 C-14.81587157 78.85539866 -15.87882913 83.52114451 -16.9375 88.3125 C-17.4504142 90.56431846 -17.97058083 92.81450474 -18.5 95.0625 C-18.81130859 96.50882813 -18.81130859 96.50882813 -19.12890625 97.984375 C-19.9375 100.3125 -19.9375 100.3125 -22.9375 102.3125 C-26.5625 102.0625 -26.5625 102.0625 -29.9375 101.3125 C-33.07943875 95.0286225 -28.97191172 84.55735334 -27.3125 78.125 C-27.04888672 77.08545166 -26.78527344 76.04590332 -26.51367188 74.97485352 C-24.42420082 66.87570649 -22.04073734 58.88608534 -19.54882812 50.90307617 C-17.44636537 44.12518645 -15.57164733 37.31209263 -13.8125 30.4375 C-12.01711405 23.43430579 -10.19137398 16.44686304 -8.1875 9.5 C-7.98882324 8.79439941 -7.79014648 8.08879883 -7.58544922 7.36181641 C-5.55666584 0.44100523 -5.55666584 0.44100523 0 0 Z " fill="#9E9E9E" transform="translate(86.9375,42.6875)"/>
</svg>
