<?xml version="1.0" encoding="UTF-8"?>
<!DOCTYPE svg PUBLIC "-//W3C//DTD SVG 1.1//EN" "http://www.w3.org/Graphics/SVG/1.1/DTD/svg11.dtd">
<svg xmlns="http://www.w3.org/2000/svg" version="1.1" width="169px" height="162px" style="shape-rendering:geometricPrecision; text-rendering:geometricPrecision; image-rendering:optimizeQuality; fill-rule:evenodd; clip-rule:evenodd" xmlns:xlink="http://www.w3.org/1999/xlink">
<g><path style="opacity:1" fill="#fefefe" d="M -0.5,-0.5 C 55.8333,-0.5 112.167,-0.5 168.5,-0.5C 168.5,53.5 168.5,107.5 168.5,161.5C 112.167,161.5 55.8333,161.5 -0.5,161.5C -0.5,107.5 -0.5,53.5 -0.5,-0.5 Z"/></g>
<g><path style="opacity:1" fill="#9e9e9e" d="M 93.5,26.5 C 103.839,26.3335 114.172,26.5002 124.5,27C 132.261,29.4057 134.428,34.239 131,41.5C 102.129,67.3727 72.9628,92.8727 43.5,118C 60.2748,117.201 76.9414,115.201 93.5,112C 101.067,109.885 107.734,106.218 113.5,101C 117.018,98.1453 120.518,97.9787 124,100.5C 124.481,104.734 122.981,108.234 119.5,111C 111.663,117.819 102.663,122.486 92.5,125C 73.1065,127.508 53.7732,130.508 34.5,134C 21.7416,135.906 18.2416,131.073 24,119.5C 54.2034,92.2945 84.7034,65.4612 115.5,39C 110.167,38.3333 104.833,38.3333 99.5,39C 85.7021,42.0327 72.0354,45.5327 58.5,49.5C 52.0848,48.7019 49.5848,45.0352 51,38.5C 51.8333,37 53,35.8333 54.5,35C 67.7889,32.924 80.7889,30.0907 93.5,26.5 Z"/></g>
</svg>
