<?xml version="1.0" encoding="UTF-8"?>
<svg version="1.1" xmlns="http://www.w3.org/2000/svg" width="187" height="209">
<path d="M0 0 C61.71 0 123.42 0 187 0 C187 68.97 187 137.94 187 209 C125.29 209 63.58 209 0 209 C0 140.03 0 71.06 0 0 Z " fill="#FEFEFE" transform="translate(0,0)"/>
<path d="M0 0 C0.74701172 -0.00306152 1.49402344 -0.00612305 2.26367188 -0.00927734 C6.97853066 0.14231589 9.89006279 0.80078065 13.5625 4 C16.12225372 6.77687569 17.47255645 8.61313512 17.8125 12.4375 C17.52446329 16.10996805 16.9588754 17.8292287 14.5625 20.625 C11.375 21.4375 11.375 21.4375 8.5625 21.625 C6.16177045 18.74412454 4.08958963 16.06095166 2.5625 12.625 C-3.87157425 11.62414401 -7.60248857 14.04002972 -12.859375 17.65234375 C-23.64592359 25.90568775 -27.58174678 39.03709978 -31.4375 51.625 C-30.75945312 51.480625 -30.08140625 51.33625 -29.3828125 51.1875 C-12.99613539 47.91924307 -12.99613539 47.91924307 -7.4375 51.625 C-8.1875 59.375 -8.1875 59.375 -10.4375 61.625 C-12.77587891 62.21923828 -12.77587891 62.21923828 -15.6640625 62.6953125 C-16.6953125 62.86933594 -17.7265625 63.04335937 -18.7890625 63.22265625 C-19.86929688 63.39667969 -20.94953125 63.57070312 -22.0625 63.75 C-23.15046875 63.93175781 -24.2384375 64.11351562 -25.359375 64.30078125 C-28.05097735 64.74938164 -30.74359819 65.1904589 -33.4375 65.625 C-35.57075141 72.02475422 -36.22561929 78.43645048 -36.9375 85.125 C-38.74230167 102.08220251 -38.74230167 102.08220251 -42.4375 107.625 C-48.50297315 108.28668798 -48.50297315 108.28668798 -51.13671875 106.421875 C-54.21944158 102.16345908 -52.83831246 95.48305465 -52.14599609 90.54638672 C-51.55107265 86.88057212 -50.86934046 83.23342044 -50.171875 79.5859375 C-49.35127268 75.28083729 -48.83426482 70.98941307 -48.4375 66.625 C-50.1390625 66.1609375 -50.1390625 66.1609375 -51.875 65.6875 C-55.4375 64.625 -55.4375 64.625 -56.4375 63.625 C-56.75 60.25 -56.75 60.25 -56.4375 56.625 C-53.48060962 53.07673155 -49.81797201 53.18725428 -45.4375 52.625 C-45.25687012 52.02139648 -45.07624023 51.41779297 -44.89013672 50.79589844 C-38.89386459 30.92448745 -33.7973547 15.08433944 -15.4375 3.625 C-10.16295562 0.93187969 -5.82073209 0.01433036 0 0 Z " fill="#9F9F9F" transform="translate(120.4375,44.375)"/>
</svg>
