<?xml version="1.0" encoding="UTF-8"?>
<!DOCTYPE svg PUBLIC "-//W3C//DTD SVG 1.1//EN" "http://www.w3.org/Graphics/SVG/1.1/DTD/svg11.dtd">
<svg xmlns="http://www.w3.org/2000/svg" version="1.1" width="177px" height="189px" style="shape-rendering:geometricPrecision; text-rendering:geometricPrecision; image-rendering:optimizeQuality; fill-rule:evenodd; clip-rule:evenodd" xmlns:xlink="http://www.w3.org/1999/xlink">
<g><path style="opacity:1" fill="#fefefe" d="M -0.5,-0.5 C 58.5,-0.5 117.5,-0.5 176.5,-0.5C 176.5,62.5 176.5,125.5 176.5,188.5C 117.5,188.5 58.5,188.5 -0.5,188.5C -0.5,125.5 -0.5,62.5 -0.5,-0.5 Z"/></g>
<g><path style="opacity:1" fill="#9f9f9f" d="M 74.5,60.5 C 77.6516,59.9586 80.1516,60.9586 82,63.5C 83.1532,66.7111 83.8198,70.0445 84,73.5C 88.7871,67.6864 94.7871,64.0197 102,62.5C 113.306,62.8005 118.64,68.4671 118,79.5C 114.725,83.32 111.225,83.4867 107.5,80C 105.437,75.7816 102.104,74.4482 97.5,76C 88.7685,81.0574 82.6018,88.2241 79,97.5C 76.0407,107.332 74.0407,117.332 73,127.5C 67.071,132.226 63.2376,130.892 61.5,123.5C 65.9784,103.977 69.4784,84.3105 72,64.5C 72.6622,63.0161 73.4955,61.6828 74.5,60.5 Z"/></g>
</svg>
