<?xml version="1.0" encoding="UTF-8"?>
<svg version="1.1" xmlns="http://www.w3.org/2000/svg" width="181" height="175">
<path d="M0 0 C59.73 0 119.46 0 181 0 C181 57.75 181 115.5 181 175 C121.27 175 61.54 175 0 175 C0 117.25 0 59.5 0 0 Z " fill="#FEFEFE" transform="translate(0,0)"/>
<path d="M0 0 C3.23118732 1.93492769 4.29390425 3.08615809 5.66796875 6.59765625 C6.42257249 12.26766488 5.99791997 16.81085137 2.66796875 21.59765625 C-5.8667074 30.93053953 -18.50766647 34.90538467 -30.9375 35.78125 C-32.73671535 35.78443445 -34.53591786 35.70330998 -36.33203125 35.59765625 C-36.41317231 37.36773339 -36.4712863 39.13887723 -36.51953125 40.91015625 C-36.55433594 41.89628906 -36.58914062 42.88242188 -36.625 43.8984375 C-36.56811009 46.61528059 -36.56811009 46.61528059 -34.9453125 48.390625 C-30.54949161 51.67950795 -25.60206246 51.06819475 -20.33203125 50.59765625 C-12.78625219 48.81839585 -6.50017501 45.10109253 -0.05859375 40.890625 C3.08228339 39.40118326 4.41862337 39.54014203 7.66796875 40.59765625 C7.24673553 45.96837974 6.38721969 48.70129812 2.66796875 52.59765625 C0.38759234 53.98365848 -1.74820235 55.16003498 -4.14453125 56.28515625 C-5.32660156 56.86652344 -6.50867188 57.44789062 -7.7265625 58.046875 C-17.40310242 62.20894038 -29.72062466 63.7685339 -40.01953125 60.53515625 C-44.97349685 57.63755373 -48.50095721 54.09087837 -50.33203125 48.59765625 C-50.37628463 46.55646924 -50.37138137 44.51394367 -50.33203125 42.47265625 C-50.29446822 40.5146832 -50.28527841 38.55543142 -50.33203125 36.59765625 C-50.66203125 36.26765625 -50.99203125 35.93765625 -51.33203125 35.59765625 C-51.74589858 31.8728503 -51.82051077 30.21639698 -49.45703125 27.22265625 C-47.33203125 25.59765625 -47.33203125 25.59765625 -45.33203125 25.59765625 C-45.06777344 24.86289063 -44.80351563 24.128125 -44.53125 23.37109375 C-40.25097468 13.47208569 -30.98217708 4.60020402 -21.5078125 -0.30078125 C-14.62019614 -2.68984375 -6.743345 -2.83805493 0 0 Z " fill="#9F9F9F" transform="translate(113.33203125,56.40234375)"/>
<path d="M0 0 C2 2 2 2 2.0625 4.3125 C0.47702542 8.32281807 -2.28541273 10.1102362 -6 12 C-11.32966778 13.91106659 -16.31598758 15.19493905 -22 15 C-20.67441682 11.0847466 -19.07706617 8.692157 -16.125 5.8125 C-15.44695312 5.13832031 -14.76890625 4.46414062 -14.0703125 3.76953125 C-9.40280315 -0.21986825 -5.97344468 -0.38538353 0 0 Z " fill="#FBFBFB" transform="translate(104,66)"/>
</svg>
