<?xml version="1.0" encoding="UTF-8"?>
<!DOCTYPE svg PUBLIC "-//W3C//DTD SVG 1.1//EN" "http://www.w3.org/Graphics/SVG/1.1/DTD/svg11.dtd">
<svg xmlns="http://www.w3.org/2000/svg" version="1.1" width="159px" height="178px" style="shape-rendering:geometricPrecision; text-rendering:geometricPrecision; image-rendering:optimizeQuality; fill-rule:evenodd; clip-rule:evenodd" xmlns:xlink="http://www.w3.org/1999/xlink">
<g><path style="opacity:1" fill="#fefefe" d="M -0.5,-0.5 C 52.5,-0.5 105.5,-0.5 158.5,-0.5C 158.5,58.8333 158.5,118.167 158.5,177.5C 105.5,177.5 52.5,177.5 -0.5,177.5C -0.5,118.167 -0.5,58.8333 -0.5,-0.5 Z"/></g>
<g><path style="opacity:1" fill="#9f9f9f" d="M 84.5,36.5 C 92.8379,35.8875 96.0045,39.5542 94,47.5C 85.5457,78.9788 78.2124,110.645 72,142.5C 66.7423,146.979 62.7423,145.979 60,139.5C 59.3333,136.833 59.3333,134.167 60,131.5C 67.889,102.391 74.889,73.0573 81,43.5C 81.9594,41.047 83.126,38.7137 84.5,36.5 Z"/></g>
</svg>
