<?xml version="1.0" encoding="UTF-8"?>
<svg version="1.1" xmlns="http://www.w3.org/2000/svg" width="182" height="202">
<path d="M0 0 C60.06 0 120.12 0 182 0 C182 66.66 182 133.32 182 202 C121.94 202 61.88 202 0 202 C0 135.34 0 68.68 0 0 Z " fill="#FEFEFE" transform="translate(0,0)"/>
<path d="M0 0 C1.59375 1.16796875 1.59375 1.16796875 3.59375 4.16796875 C3.86982534 13.37237753 1.6113663 22.77630099 -0.09375 31.79296875 C-0.22596954 32.495961 -0.35818909 33.19895325 -0.49441528 33.92324829 C-4.12347996 53.0236601 -9.03690639 76.79139913 -25.82421875 88.9140625 C-33.76966029 93.92654226 -41.01172263 95.94184744 -50.40625 95.16796875 C-51.40625 94.16796875 -51.40625 94.16796875 -51.71875 90.91796875 C-51.34821097 86.47150038 -50.54015936 85.26626551 -47.40625 82.16796875 C-44.19921875 81.0859375 -44.19921875 81.0859375 -40.59375 80.35546875 C-32.07674168 78.12251217 -29.16681363 74.76233536 -24.765625 67.4375 C-20.87601775 60.29081871 -18.87243139 53.1419377 -17.40625 45.16796875 C-18.11910156 45.71066406 -18.83195312 46.25335938 -19.56640625 46.8125 C-33.10432218 56.92494056 -33.10432218 56.92494056 -41.41796875 56.5859375 C-46.10996493 55.59960432 -49.21794582 52.43054194 -52.40625 49.04296875 C-55.09132822 41.32336885 -52.20309067 33.22258024 -48.9765625 26.078125 C-46.36267964 21.23398885 -43.10559686 17.22302204 -39.40625 13.16796875 C-38.20742187 11.84732422 -38.20742187 11.84732422 -36.984375 10.5 C-26.91642468 -0.08385461 -14.2427079 -7.61751386 0 0 Z " fill="#9F9F9F" transform="translate(118.40625,53.83203125)"/>
<path d="M0 0 C1.71727441 7.76721244 -1.03751051 12.74936472 -4.90136719 19.28710938 C-9.1973461 25.98501784 -16.11418976 34.51005522 -24.17578125 36.55078125 C-26.375 36.875 -26.375 36.875 -30 37 C-30.33 36.67 -30.66 36.34 -31 36 C-30.8378883 25.78696318 -25.86382532 18.35409855 -19 11 C-6.55605381 -0.77130045 -6.55605381 -0.77130045 0 0 Z " fill="#FCFCFC" transform="translate(108,61)"/>
</svg>
