<?xml version="1.0" encoding="UTF-8"?>
<!DOCTYPE svg PUBLIC "-//W3C//DTD SVG 1.1//EN" "http://www.w3.org/Graphics/SVG/1.1/DTD/svg11.dtd">
<svg xmlns="http://www.w3.org/2000/svg" version="1.1" width="168px" height="181px" style="shape-rendering:geometricPrecision; text-rendering:geometricPrecision; image-rendering:optimizeQuality; fill-rule:evenodd; clip-rule:evenodd" xmlns:xlink="http://www.w3.org/1999/xlink">
<g><path style="opacity:1" fill="#fefefe" d="M -0.5,-0.5 C 55.5,-0.5 111.5,-0.5 167.5,-0.5C 167.5,59.8333 167.5,120.167 167.5,180.5C 111.5,180.5 55.5,180.5 -0.5,180.5C -0.5,120.167 -0.5,59.8333 -0.5,-0.5 Z"/></g>
<g><path style="opacity:1" fill="#9e9e9e" d="M 95.5,25.5 C 101.422,24.2782 104.422,26.6115 104.5,32.5C 103.435,41.4118 98.7688,44.2451 90.5,41C 88.6067,38.0828 88.1067,34.9162 89,31.5C 90.914,29.1435 93.0807,27.1435 95.5,25.5 Z"/></g>
<g><path style="opacity:1" fill="#9f9f9f" d="M 88.5,54.5 C 95.0351,53.3814 98.7017,56.0481 99.5,62.5C 96.0326,86.0673 88.8659,108.401 78,129.5C 73.8333,134.333 69.6667,139.167 65.5,144C 60.6762,148.496 55.0096,150.163 48.5,149C 45.2494,143.796 46.2494,139.462 51.5,136C 60.6667,132.167 67.1667,125.667 71,116.5C 78.6574,97.8894 83.324,78.5561 85,58.5C 86.3756,57.2949 87.5423,55.9616 88.5,54.5 Z"/></g>
</svg>
