<?xml version="1.0" encoding="UTF-8"?>
<svg version="1.1" xmlns="http://www.w3.org/2000/svg" width="162" height="200">
<path d="M0 0 C53.46 0 106.92 0 162 0 C162 66 162 132 162 200 C108.54 200 55.08 200 0 200 C0 134 0 68 0 0 Z " fill="#FEFEFE" transform="translate(0,0)"/>
<path d="M0 0 C1.10601562 -0.01224609 2.21203125 -0.02449219 3.3515625 -0.03710938 C4.41117188 -0.03904297 5.47078125 -0.04097656 6.5625 -0.04296875 C7.53316406 -0.04707764 8.50382812 -0.05118652 9.50390625 -0.05541992 C12 0.1875 12 0.1875 15 2.1875 C16.14102244 11.08162361 13.02274359 19.68537328 10.6875 28.1875 C9.86987409 31.18513761 9.06103148 34.18492678 8.26171875 37.1875 C8.06415985 37.92484375 7.86660095 38.6621875 7.66305542 39.421875 C6.08205967 45.48686543 4.95788112 51.58807091 4.09172058 57.79492188 C3.66297098 60.60445699 3.2775384 62.78944171 1.63549805 65.14453125 C-1.12709131 66.90625415 -3.83089685 66.41798023 -7 66.1875 C-7.99 65.6925 -7.99 65.6925 -9 65.1875 C-9.4140625 62.24609375 -9.4140625 62.24609375 -9.625 58.625 C-9.69976562 57.42746094 -9.77453125 56.22992188 -9.8515625 54.99609375 C-9.90054688 54.06925781 -9.94953125 53.14242187 -10 52.1875 C-10.97582031 52.89777344 -11.95164063 53.60804687 -12.95703125 54.33984375 C-14.24204313 55.26842898 -15.52720735 56.19680343 -16.8125 57.125 C-17.77639648 57.82786133 -17.77639648 57.82786133 -18.75976562 58.54492188 C-19.38173828 58.99287109 -20.00371094 59.44082031 -20.64453125 59.90234375 C-21.21534424 60.31605225 -21.78615723 60.72976074 -22.37426758 61.15600586 C-26.52439416 63.78917673 -31.26596742 64.01968483 -36 63.1875 C-39.67093624 61.12735123 -42.18445962 58.46399799 -44.4375 54.9375 C-46.85348134 43.12603567 -42.85280717 32.47139753 -36.6875 22.375 C-26.91285672 8.02902571 -17.56731515 0.01023736 0 0 Z " fill="#9F9F9F" transform="translate(90,65.8125)"/>
<path d="M0 0 C0.79678611 12.74857772 -4.77748851 21.20593449 -12.875 30.6875 C-22.2873886 40.90513097 -22.2873886 40.90513097 -29.4375 41.9375 C-31.2009375 41.9684375 -31.2009375 41.9684375 -33 42 C-34.64174416 40.35825584 -34.36743956 38.58259751 -34.5 36.3125 C-34.37291864 25.43998355 -27.74803268 15.71544695 -20.390625 8.1328125 C-14.03571191 2.46323317 -8.63826258 -0.95980695 0 0 Z " fill="#FDFDFD" transform="translate(91,76)"/>
</svg>
