<?xml version="1.0" encoding="UTF-8"?>
<!DOCTYPE svg PUBLIC "-//W3C//DTD SVG 1.1//EN" "http://www.w3.org/Graphics/SVG/1.1/DTD/svg11.dtd">
<svg xmlns="http://www.w3.org/2000/svg" version="1.1" width="233px" height="190px" style="shape-rendering:geometricPrecision; text-rendering:geometricPrecision; image-rendering:optimizeQuality; fill-rule:evenodd; clip-rule:evenodd" xmlns:xlink="http://www.w3.org/1999/xlink">
<g><path style="opacity:1" fill="#fefefe" d="M -0.5,-0.5 C 77.1667,-0.5 154.833,-0.5 232.5,-0.5C 232.5,62.8333 232.5,126.167 232.5,189.5C 154.833,189.5 77.1667,189.5 -0.5,189.5C -0.5,126.167 -0.5,62.8333 -0.5,-0.5 Z"/></g>
<g><path style="opacity:1" fill="#9f9f9f" d="M 116.5,33.5 C 147.547,34.2302 160.047,49.8969 154,80.5C 149.607,93.4431 142.107,104.276 131.5,113C 126.306,117.027 120.973,120.86 115.5,124.5C 116.707,128.287 118.207,131.954 120,135.5C 123.179,139.874 126.346,144.207 129.5,148.5C 125.278,156.454 119.778,157.454 113,151.5C 108.551,144.436 105.051,136.936 102.5,129C 70.6147,130.442 58.4481,115.609 66,84.5C 75.7118,60.2889 92.5451,43.2889 116.5,33.5 Z"/></g>
<g><path style="opacity:1" fill="#fefefe" d="M 119.5,47.5 C 139.224,46.5475 147.057,55.8809 143,75.5C 137.397,91.1081 127.397,103.108 113,111.5C 112.33,106.119 110.663,101.119 108,96.5C 102.03,93.8997 98.53,95.733 97.5,102C 98.1219,106.52 98.7885,111.02 99.5,115.5C 80.8707,118.703 73.0373,111.037 76,92.5C 83.3645,70.3119 97.8645,55.3119 119.5,47.5 Z"/></g>
</svg>
