<?xml version="1.0" encoding="UTF-8"?>
<svg version="1.1" xmlns="http://www.w3.org/2000/svg" width="198" height="197">
<path d="M0 0 C65.34 0 130.68 0 198 0 C198 65.01 198 130.02 198 197 C132.66 197 67.32 197 0 197 C0 131.99 0 66.98 0 0 Z " fill="#FEFEFE" transform="translate(0,0)"/>
<path d="M0 0 C5.17570755 2.95754717 5.17570755 2.95754717 7.0625 5.75 C7.77008606 10.09404101 7.55660507 14.00884239 5.0625 17.75 C2.9375 18.0625 2.9375 18.0625 0.0625 17.75 C-0.865625 16.925 -1.79375 16.1 -2.75 15.25 C-5.19706214 13.1049682 -6.05971367 12.72381136 -9.4375 12 C-23.91344147 13.04778243 -39.06633796 27.15811679 -48.58203125 36.96875 C-57.50036465 47.49918678 -64.41515491 58.95452229 -64.20703125 73.03125 C-63.71211972 78.02340105 -61.92295392 80.98863794 -58.20703125 84.28515625 C-54.10605111 87.22378274 -50.47350378 88.55242193 -45.41796875 88.23046875 C-36.09283782 86.42418355 -28.34843842 81.45788615 -20.9375 75.75 C-19.3596875 74.6053125 -19.3596875 74.6053125 -17.75 73.4375 C-11.57700753 67.53886275 -7.61232155 60.36653622 -3.9375 52.75 C-7.74673234 54.01150889 -11.55530704 55.27498143 -15.36328125 56.5402832 C-16.65899994 56.97051244 -17.95489755 57.40020317 -19.25097656 57.8293457 C-21.11309937 58.44601348 -22.97452862 59.06477431 -24.8359375 59.68359375 C-25.95661621 60.05540771 -27.07729492 60.42722168 -28.23193359 60.81030273 C-30.86259226 61.65879537 -30.86259226 61.65879537 -32.9375 62.75 C-35.875 63.0625 -35.875 63.0625 -38.9375 62.75 C-41.48492159 60.54223462 -41.8841169 59.07029857 -42.4375 55.75 C-41.9375 52.75 -41.9375 52.75 -39.828125 50.6796875 C-36.58443876 48.51430776 -33.98060587 47.74459851 -30.1875 46.875 C-25.06301149 45.65375536 -20.18895841 44.16061646 -15.26757812 42.27783203 C-2.71032002 37.49239333 -2.71032002 37.49239333 4.0625 39.75 C7.22815358 42.334207 8.59905609 43.81196184 9.53515625 47.7265625 C10.37749996 59.60576861 2.41578241 70.235673 -4.9375 78.75 C-16.40147729 90.88832889 -33.56081702 100.44316839 -50.5 101.1875 C-58.430028 101.10046311 -64.2456599 98.09087907 -70.07421875 92.81640625 C-77.0128569 85.3540973 -78.69194077 77.90657145 -78.34375 67.87890625 C-76.84954593 47.67446564 -59.30466415 28.6098521 -44.9375 15.75 C-33.22639786 6.50517032 -15.57132653 -6.2150197 0 0 Z " fill="#9F9F9F" transform="translate(129.9375,46.25)"/>
</svg>
