<?xml version="1.0" encoding="UTF-8"?>
<svg version="1.1" xmlns="http://www.w3.org/2000/svg" width="191" height="241">
<path d="M0 0 C63.03 0 126.06 0 191 0 C191 79.53 191 159.06 191 241 C127.97 241 64.94 241 0 241 C0 161.47 0 81.94 0 0 Z " fill="#FEFEFE" transform="translate(0,0)"/>
<path d="M0 0 C3.5 0.375 3.5 0.375 6.5 2.375 C7.24058608 9.96335201 5.44366103 16.67467313 3.5078125 23.9765625 C3.20181122 25.17123138 2.89580994 26.36590027 2.58053589 27.59677124 C1.6055313 31.40055757 0.61672933 35.20054258 -0.375 39 C-5.24254159 57.69203008 -9.64548589 75.4311542 -9.97851562 94.82617188 C-10.15195851 99.88139733 -10.7074112 104.5824112 -14.5 108.375 C-20.73076923 108.83653846 -20.73076923 108.83653846 -23.375 107.25 C-24.89062339 104.72396101 -25.06926954 102.26480979 -25.5 99.375 C-26.345625 99.91769531 -27.19125 100.46039063 -28.0625 101.01953125 C-38.20654558 107.45753093 -46.07909869 111.94948045 -58.5 110.375 C-62.96279226 108.22329659 -65.7358803 105.46999214 -68.5 101.375 C-71.24245982 92.434581 -69.05134999 83.74466808 -65.5 75.375 C-58.41814599 62.56301515 -47.95780005 53.2444455 -34.5 47.375 C-30.69239055 46.3510535 -27.11984409 46.26928743 -23.1875 46.3125 C-21.58455078 46.32603516 -21.58455078 46.32603516 -19.94921875 46.33984375 C-19.14097656 46.35144531 -18.33273438 46.36304688 -17.5 46.375 C-16.78697543 43.87625901 -16.07875443 41.37635936 -15.375 38.875 C-15.15344238 38.08851074 -14.93188477 37.30202148 -14.70361328 36.49169922 C-13.36358348 31.67186961 -12.11064178 26.83984803 -10.9375 21.9765625 C-10.67727051 20.90212891 -10.41704102 19.82769531 -10.14892578 18.72070312 C-9.63907785 16.5989637 -9.1372434 14.47528019 -8.64404297 12.34960938 C-8.40830566 11.37056641 -8.17256836 10.39152344 -7.9296875 9.3828125 C-7.72585449 8.51285645 -7.52202148 7.64290039 -7.31201172 6.74658203 C-5.80430997 2.34315004 -4.74713872 0.50862201 0 0 Z " fill="#9F9F9F" transform="translate(124.5,62.625)"/>
<path d="M0 0 C1.43350885 5.70331734 0.26682252 10.3561919 -1 16 C-1.18433594 16.8765625 -1.36867187 17.753125 -1.55859375 18.65625 C-4.14723007 29.07510921 -10.65272547 34.19908726 -19.546875 39.65234375 C-22.72978967 41.40091948 -25.40621281 42.18317811 -29 42.3125 C-30.0209375 42.36857422 -30.0209375 42.36857422 -31.0625 42.42578125 C-33 42 -33 42 -34.71875 40.3359375 C-37.18814111 35.83381591 -36.66342893 30.96945822 -36 26 C-34.78394106 22.6220585 -33.10540639 19.89493379 -31 17 C-30.36578125 16.07767578 -30.36578125 16.07767578 -29.71875 15.13671875 C-23.13126205 6.50021565 -11.05179805 -0.82888485 0 0 Z " fill="#FDFDFD" transform="translate(104,120)"/>
</svg>
