<?xml version="1.0" encoding="UTF-8"?>
<svg version="1.1" xmlns="http://www.w3.org/2000/svg" width="149" height="195">
<path d="M0 0 C49.17 0 98.34 0 149 0 C149 64.35 149 128.7 149 195 C99.83 195 50.66 195 0 195 C0 130.65 0 66.3 0 0 Z " fill="#FEFEFE" transform="translate(0,0)"/>
<path d="M0 0 C3.3125 0.4375 3.3125 0.4375 5.3125 2.4375 C5.53085588 9.13534674 3.61657517 15.69673398 1.75 22.0625 C-0.82091663 31.15592735 -3.21981454 40.28340024 -5.51681519 49.44915771 C-5.87980373 50.89652403 -6.24431965 52.34350816 -6.61038208 53.7901001 C-7.12678906 55.83181021 -7.63836394 57.87466839 -8.1484375 59.91796875 C-8.44540527 61.10285889 -8.74237305 62.28774902 -9.04833984 63.50854492 C-9.79410191 66.42635667 -9.79410191 66.42635667 -9.6875 69.4375 C-9.30980469 68.9528125 -8.93210937 68.468125 -8.54296875 67.96875 C-0.81743565 58.56060665 10.18712208 49.78858751 22.53125 47.9609375 C27.23635171 47.74395465 30.22750079 47.66594501 34.125 50.4375 C36.79626759 57.18596549 33.63670789 63.96437715 31.3125 70.4375 C28.36258806 78.82205739 25.95145066 86.9257438 24.92578125 95.7734375 C23.69975063 105.78414626 23.69975063 105.78414626 21.0625 108.75 C17.78197328 110.76305049 16.09389867 111.09513455 12.3125 110.4375 C10.03298589 108.7754105 9.38936578 107.84441447 8.86132812 105.04907227 C8.8072703 96.26092119 11.02263114 88.60625739 13.8125 80.375 C14.66298547 77.80293153 15.50349507 75.22779179 16.34375 72.65234375 C16.72080078 71.52948975 17.09785156 70.40663574 17.48632812 69.24975586 C18.45343209 66.44628939 18.45343209 66.44628939 18.3125 63.4375 C8.55947034 64.2090623 2.58943847 70.81585281 -3.875 77.6875 C-10.84274608 85.88065746 -15.87366081 95.39993412 -20.4609375 105.07421875 C-21.6875 107.4375 -21.6875 107.4375 -23.6875 109.4375 C-26.6875 109.6875 -26.6875 109.6875 -29.6875 109.4375 C-31.6875 107.4375 -31.6875 107.4375 -31.95424938 105.38871479 C-31.91808888 99.30318973 -31.15008439 93.82520157 -29.65551758 87.9362793 C-29.43921692 87.045522 -29.22291626 86.15476471 -29.00006104 85.23701477 C-28.28939866 82.32547556 -27.56163497 79.41856459 -26.83203125 76.51171875 C-26.3278294 74.47545382 -25.82415029 72.43905938 -25.32096863 70.40254211 C-24.26713528 66.150032 -23.20429351 61.89989623 -22.13549805 57.65112305 C-20.76819387 52.2109654 -19.42784686 46.76456619 -18.09463978 41.31596661 C-17.06288093 37.11525572 -16.01484392 32.91873463 -14.96207237 28.72324562 C-14.4610004 26.71639452 -13.96547319 24.70815041 -13.47565651 22.69852257 C-12.78939912 19.89173178 -12.08087429 17.09148303 -11.36645508 14.29174805 C-11.07081917 13.05187637 -11.07081917 13.05187637 -10.76921082 11.78695679 C-9.14844028 5.58752374 -6.95669176 0.82537021 0 0 Z " fill="#9F9F9F" transform="translate(75.6875,37.5625)"/>
</svg>
