<?xml version="1.0" encoding="UTF-8"?>
<!DOCTYPE svg PUBLIC "-//W3C//DTD SVG 1.1//EN" "http://www.w3.org/Graphics/SVG/1.1/DTD/svg11.dtd">
<svg xmlns="http://www.w3.org/2000/svg" version="1.1" width="188px" height="194px" style="shape-rendering:geometricPrecision; text-rendering:geometricPrecision; image-rendering:optimizeQuality; fill-rule:evenodd; clip-rule:evenodd" xmlns:xlink="http://www.w3.org/1999/xlink">
<g><path style="opacity:1" fill="#fefefe" d="M -0.5,-0.5 C 62.1667,-0.5 124.833,-0.5 187.5,-0.5C 187.5,64.1667 187.5,128.833 187.5,193.5C 124.833,193.5 62.1667,193.5 -0.5,193.5C -0.5,128.833 -0.5,64.1667 -0.5,-0.5 Z"/></g>
<g><path style="opacity:1" fill="#9f9f9f" d="M 112.5,42.5 C 119.391,41.9013 126.058,42.7346 132.5,45C 136.13,48.0498 137.297,51.8831 136,56.5C 134.701,57.9797 133.034,58.6464 131,58.5C 123.532,56.1811 116.032,56.0144 108.5,58C 97.245,63.5823 87.4117,71.0823 79,80.5C 76.3765,84.9693 77.2099,88.4693 81.5,91C 90.4982,90.9526 99.4982,90.9526 108.5,91C 120.968,93.4598 126.468,100.96 125,113.5C 116.253,138.612 98.7527,152.945 72.5,156.5C 63.0456,156.025 55.5456,152.025 50,144.5C 49.5026,141.854 49.3359,139.187 49.5,136.5C 79.4923,149.169 100.826,140.502 113.5,110.5C 113.124,108.617 112.124,107.117 110.5,106C 106.844,104.336 103.01,103.503 99,103.5C 91.8462,104.437 84.6796,104.604 77.5,104C 63.9749,98.0446 60.8082,88.5446 68,75.5C 79.6988,60.2379 94.5321,49.2379 112.5,42.5 Z"/></g>
</svg>
