<?xml version="1.0" encoding="UTF-8"?>
<svg version="1.1" xmlns="http://www.w3.org/2000/svg" width="169" height="211">
<path d="M0 0 C55.77 0 111.54 0 169 0 C169 69.63 169 139.26 169 211 C113.23 211 57.46 211 0 211 C0 141.37 0 71.74 0 0 Z " fill="#FEFEFE" transform="translate(0,0)"/>
<path d="M0 0 C0.83297607 -0.00596191 1.66595215 -0.01192383 2.52416992 -0.01806641 C8.93657025 0.11275925 13.80624432 1.34102098 18.875 5.5 C21.26923373 10.09692877 21.05814845 14.42264703 20.4375 19.5 C19.1875 22.875 19.1875 22.875 17.4375 25.5 C16.921875 26.304375 16.40625 27.10875 15.875 27.9375 C5.81952129 38.50864429 -9.03004003 43.89441488 -22.5625 48.5 C-21.99329834 48.65557373 -21.42409668 48.81114746 -20.83764648 48.97143555 C-18.22082981 49.69559777 -15.61062716 50.44134591 -13 51.1875 C-12.10474609 51.43177734 -11.20949219 51.67605469 -10.28710938 51.92773438 C-3.33962605 53.93817827 2.2826 56.26765 6.4375 62.5 C7.43843312 69.7043907 6.56087046 75.52553259 2.4375 81.5 C-2.15104974 86.91541256 -7.20812982 90.43353716 -13.5 93.625 C-14.32685303 94.05022949 -15.15370605 94.47545898 -16.00561523 94.91357422 C-25.62343727 99.72018234 -38.54675987 106.06180003 -49.5625 103.5 C-51.828125 102.09375 -51.828125 102.09375 -53.5625 100.5 C-53.5625 99.84 -53.5625 99.18 -53.5625 98.5 C-54.8928125 98.995 -54.8928125 98.995 -56.25 99.5 C-59.30199862 100.42135807 -61.4170268 100.84949702 -64.5625 100.5 C-66.5625 98.5 -66.5625 98.5 -66.9765625 95.2890625 C-66.81562701 89.22534058 -64.5757187 83.58554353 -62.63088989 77.9034729 C-61.45251727 74.45621045 -60.31500032 70.99551681 -59.17578125 67.53515625 C-58.94863937 66.84755722 -58.7214975 66.15995819 -58.48747253 65.45152283 C-55.69706857 56.95128444 -53.36029048 48.33678188 -51.12792969 39.67529297 C-50.62714481 37.7486983 -50.10061161 35.82883688 -49.5703125 33.91015625 C-48.21660121 28.90142447 -47.43434308 24.31503404 -47.1875 19.125 C-46.58929559 11.50786383 -46.58929559 11.50786383 -43.57421875 8.52734375 C-40.17151693 6.78965331 -36.5274878 6.59609923 -32.75805664 6.25976562 C-27.78167935 5.78972498 -23.55448579 4.5858115 -18.875 2.875 C-12.55618838 0.67444628 -6.68303303 0.01595435 0 0 Z " fill="#9F9F9F" transform="translate(100.5625,52.5)"/>
<path d="M0 0 C3.01868507 0.27090763 5.99713657 0.60482637 9 1 C10.19157715 1.15009521 10.19157715 1.15009521 11.40722656 1.30322266 C13.81688683 1.61690332 16.22051152 1.96152225 18.625 2.3125 C19.43195313 2.41755859 20.23890625 2.52261719 21.0703125 2.63085938 C26.54017229 3.44334666 30.45388309 4.79691894 35 8 C36.1875 11.375 36.1875 11.375 36 15 C33.13818068 20.50628528 29.91603702 22.62440554 24.5 25.125 C23.43640259 25.63256836 23.43640259 25.63256836 22.35131836 26.15039062 C2.4166851 35.47222837 2.4166851 35.47222837 -8 32 C-7.3421145 25.14976726 -5.77002347 18.70426261 -4 12.0625 C-3.72671875 11.00998047 -3.4534375 9.95746094 -3.171875 8.87304688 C-1.13324387 1.13324387 -1.13324387 1.13324387 0 0 Z " fill="#FDFDFD" transform="translate(58,110)"/>
<path d="M0 0 C0.9384375 -0.02578125 1.876875 -0.0515625 2.84375 -0.078125 C5.94988155 0.3055736 7.27680718 1.07803282 9.5 3.25 C10.42804602 7.33340248 9.63189805 9.02742205 7.5 12.625 C-0.05406525 20.63688739 -12.88303586 24.50211614 -22.8125 28.75 C-24.03972778 29.27581665 -24.03972778 29.27581665 -25.29174805 29.81225586 C-26.057854 30.13202393 -26.82395996 30.45179199 -27.61328125 30.78125 C-28.29173096 31.06548828 -28.97018066 31.34972656 -29.66918945 31.64257812 C-31.5 32.25 -31.5 32.25 -34.5 32.25 C-33.22361446 23.81061503 -31.46100003 13.19044121 -25.2421875 7.00390625 C-22.18458186 5.0482582 -19.42482018 4.05252716 -15.9375 3.0625 C-14.82246094 2.73894531 -13.70742187 2.41539063 -12.55859375 2.08203125 C-11.04458984 1.67017578 -11.04458984 1.67017578 -9.5 1.25 C-8.82066406 1.05277344 -8.14132813 0.85554688 -7.44140625 0.65234375 C-4.94038625 0.13402371 -2.55309448 0.04208397 0 0 Z " fill="#FDFDFD" transform="translate(96.5,64.75)"/>
</svg>
