<?xml version="1.0" encoding="UTF-8"?>
<!DOCTYPE svg PUBLIC "-//W3C//DTD SVG 1.1//EN" "http://www.w3.org/Graphics/SVG/1.1/DTD/svg11.dtd">
<svg xmlns="http://www.w3.org/2000/svg" version="1.1" width="197px" height="207px" style="shape-rendering:geometricPrecision; text-rendering:geometricPrecision; image-rendering:optimizeQuality; fill-rule:evenodd; clip-rule:evenodd" xmlns:xlink="http://www.w3.org/1999/xlink">
<g><path style="opacity:1" fill="#fefefe" d="M -0.5,-0.5 C 65.1667,-0.5 130.833,-0.5 196.5,-0.5C 196.5,68.5 196.5,137.5 196.5,206.5C 130.833,206.5 65.1667,206.5 -0.5,206.5C -0.5,137.5 -0.5,68.5 -0.5,-0.5 Z"/></g>
<g><path style="opacity:1" fill="#9e9e9e" d="M 74.5,43.5 C 89.0904,45.1358 103.757,45.9692 118.5,46C 136.684,51.5602 140.851,62.3935 131,78.5C 127.466,82.3689 123.633,85.8689 119.5,89C 113.013,92.6695 106.68,96.5029 100.5,100.5C 115.197,109.206 125.697,121.539 132,137.5C 133.751,144.008 131.418,148.008 125,149.5C 122.849,149.357 121.182,148.357 120,146.5C 115.531,134.379 108.698,123.879 99.5,115C 91.9692,110.076 83.6359,108.076 74.5,109C 72.9963,107.509 72.1629,105.676 72,103.5C 68.6178,118.365 64.6178,133.031 60,147.5C 56.952,151.01 53.6187,151.343 50,148.5C 49.3333,145.167 49.3333,141.833 50,138.5C 56.3781,115.614 62.3781,92.614 68,69.5C 68.3333,63.5 68.6667,57.5 69,51.5C 69.6249,47.8907 71.4582,45.224 74.5,43.5 Z"/></g>
<g><path style="opacity:1" fill="#fdfdfd" d="M 92.5,58.5 C 100.917,58.0943 109.251,58.5943 117.5,60C 122.038,61.7129 123.538,64.8795 122,69.5C 117.425,75.3731 111.925,80.2065 105.5,84C 95.015,89.3262 84.515,94.4929 74,99.5C 76.3764,86.665 79.7098,73.9983 84,61.5C 86.9494,60.5629 89.7827,59.5629 92.5,58.5 Z"/></g>
</svg>
