<?xml version="1.0" encoding="UTF-8"?>
<!DOCTYPE svg PUBLIC "-//W3C//DTD SVG 1.1//EN" "http://www.w3.org/Graphics/SVG/1.1/DTD/svg11.dtd">
<svg xmlns="http://www.w3.org/2000/svg" version="1.1" width="130px" height="178px" style="shape-rendering:geometricPrecision; text-rendering:geometricPrecision; image-rendering:optimizeQuality; fill-rule:evenodd; clip-rule:evenodd" xmlns:xlink="http://www.w3.org/1999/xlink">
<g><path style="opacity:1" fill="#fefefe" d="M -0.5,-0.5 C 42.8333,-0.5 86.1667,-0.5 129.5,-0.5C 129.5,58.8333 129.5,118.167 129.5,177.5C 86.1667,177.5 42.8333,177.5 -0.5,177.5C -0.5,118.167 -0.5,58.8333 -0.5,-0.5 Z"/></g>
<g><path style="opacity:1" fill="#9f9f9f" d="M 46.5,49.5 C 53.846,48.8477 57.846,52.181 58.5,59.5C 70.2835,51.8893 82.6168,50.7227 95.5,56C 102.815,62.6177 105.315,70.7844 103,80.5C 98.3639,92.138 90.5305,100.971 79.5,107C 70.9207,112.529 61.5874,115.196 51.5,115C 49.5789,114.64 47.9122,113.806 46.5,112.5C 43.5301,123.766 40.6968,135.099 38,146.5C 34.7441,148.429 31.2441,148.929 27.5,148C 26.3895,145.263 26.2228,142.429 27,139.5C 32.4174,116.583 37.4174,93.5835 42,70.5C 42.3333,64.8333 42.6667,59.1667 43,53.5C 43.6897,51.6498 44.8564,50.3164 46.5,49.5 Z"/></g>
<g><path style="opacity:1" fill="#fdfdfd" d="M 73.5,64.5 C 90.117,62.7081 94.617,69.3748 87,84.5C 77.0965,96.8696 64.2632,102.87 48.5,102.5C 50.3659,92.7037 52.6992,83.0371 55.5,73.5C 56.8734,73.6567 58.2068,73.49 59.5,73C 64.3379,70.3034 69.0046,67.4701 73.5,64.5 Z"/></g>
</svg>
